{"glyphs":{"0":{"ha":543,"x_min":31,"x_max":542,"o":"m 190 -14 q 70 43 110 -14 q 31 222 31 100 q 40 356 31 278 q 67 523 49 435 q 113 697 85 611 q 181 852 142 782 q 270 964 219 922 q 383 1006 321 1006 q 453 992 424 1006 q 502 949 482 978 q 532 877 522 921 q 542 774 542 833 q 533 636 542 717 q 507 467 525 556 q 460 294 489 379 q 393 139 432 208 q 303 28 354 69 q 190 -14 253 -14 m 200 88 q 268 126 236 88 q 326 227 300 164 q 373 367 353 290 q 407 521 393 443 q 428 666 421 599 q 436 778 436 733 q 422 873 436 842 q 374 904 407 904 q 307 866 339 904 q 249 765 275 828 q 201 625 222 701 q 166 472 181 549 q 144 328 151 394 q 136 219 136 261 q 151 119 136 150 q 200 88 167 88 z "},"1":{"ha":543,"x_min":144,"x_max":492,"o":"m 319 696 q 329 741 325 724 q 339 782 333 758 q 356 847 344 806 q 335 824 346 836 q 310 801 324 813 l 196 703 l 144 774 l 390 992 l 492 992 l 282 0 l 172 0 l 319 696 z "},"2":{"ha":543,"x_min":-46,"x_max":544,"o":"m -46 0 l -31 82 l 210 371 q 292 475 253 424 q 363 578 332 526 q 413 684 394 631 q 431 793 431 738 q 407 878 431 849 q 336 907 383 907 q 284 897 308 907 q 237 869 260 886 q 189 833 214 853 l 147 914 q 243 981 192 957 q 358 1006 294 1006 q 457 982 415 1006 q 522 915 499 958 q 544 811 544 872 q 513 653 544 732 q 426 498 481 575 q 304 342 372 421 l 103 103 l 103 99 l 410 99 l 389 0 l -46 0 z "},"3":{"ha":543,"x_min":-24,"x_max":549,"o":"m 147 -14 q 52 -4 92 -14 q -24 25 13 6 l -24 136 q 56 97 13 110 q 143 83 100 83 q 228 101 192 83 q 291 149 265 118 q 330 222 317 181 q 343 310 343 263 q 326 397 343 363 q 278 447 310 431 q 199 464 246 464 l 153 464 l 174 560 l 218 560 q 308 578 268 560 q 377 628 349 596 q 421 703 406 661 q 436 793 436 746 q 411 878 436 847 q 336 908 386 908 q 258 892 296 908 q 181 846 219 875 l 147 931 q 243 986 193 967 q 356 1006 293 1006 q 458 983 415 1006 q 525 918 501 960 q 549 817 549 876 q 523 684 549 746 q 449 579 497 622 q 336 518 401 536 l 335 514 q 423 448 389 496 q 457 319 457 400 q 437 194 457 254 q 377 87 417 133 q 280 13 338 40 q 147 -14 222 -14 z "},"4":{"ha":543,"x_min":-25,"x_max":553,"o":"m 232 0 l 279 217 l -25 217 l -7 304 l 433 1000 l 553 1000 l 407 313 l 500 313 l 479 217 l 386 217 l 340 0 l 232 0 m 90 313 l 300 313 l 389 725 q 400 768 394 746 q 411 813 406 790 q 421 856 417 835 l 417 856 q 388 801 400 824 q 365 759 375 778 q 343 722 354 740 l 90 313 z "},"5":{"ha":543,"x_min":-15,"x_max":557,"o":"m 144 -14 q 80 -9 110 -14 q 26 4 50 -4 q -15 21 1 13 l -15 138 q 55 98 14 113 q 146 83 96 83 q 238 105 199 83 q 305 163 278 126 q 346 248 332 200 q 360 347 360 296 q 327 471 360 428 q 229 514 294 514 q 177 508 203 514 q 124 492 151 503 l 88 535 l 211 992 l 557 992 l 535 890 l 288 890 l 206 599 q 244 607 225 604 q 283 610 264 610 q 387 581 344 610 q 452 499 429 553 q 475 368 475 446 q 455 227 475 296 q 394 104 435 158 q 291 18 353 50 q 144 -14 229 -14 z "},"6":{"ha":543,"x_min":35,"x_max":578,"o":"m 215 -14 q 113 17 153 -14 q 53 106 72 49 q 35 236 35 163 q 46 395 35 314 q 78 556 57 476 q 129 705 99 635 q 197 831 160 775 q 265 915 226 875 q 355 980 304 954 q 465 1006 406 1006 q 528 1002 501 1006 q 578 992 556 999 l 553 893 q 512 904 535 900 q 465 908 489 908 q 346 865 400 908 q 249 735 292 821 q 175 522 207 650 l 179 522 q 226 578 200 554 q 283 614 251 601 q 350 626 315 626 q 461 568 425 626 q 497 419 497 510 q 481 276 497 351 q 431 135 465 201 q 344 28 397 69 q 215 -14 290 -14 m 222 85 q 298 119 267 85 q 349 204 329 153 q 377 311 368 256 q 386 408 386 367 q 365 497 386 465 q 308 529 344 529 q 250 514 276 529 q 204 472 224 499 q 172 413 185 446 q 156 363 163 392 q 145 300 149 333 q 142 231 142 267 q 147 168 142 196 q 163 122 153 140 q 189 94 174 104 q 222 85 204 85 z "},"7":{"ha":543,"x_min":43,"x_max":603,"o":"m 43 0 l 472 890 l 131 890 l 151 992 l 603 992 l 589 910 l 157 0 l 43 0 z "},"8":{"ha":543,"x_min":-10,"x_max":560,"o":"m 210 -14 q 91 12 140 -14 q 16 85 42 38 q -10 199 -10 133 q 17 333 -10 275 q 94 438 43 392 q 214 524 144 485 q 165 592 185 557 q 136 665 146 626 q 126 744 126 703 q 156 877 126 818 q 240 971 185 936 q 374 1006 296 1006 q 472 983 431 1006 q 537 917 514 960 q 560 817 560 875 q 535 699 560 754 q 466 598 511 643 q 357 518 421 553 q 422 440 397 479 q 458 358 446 400 q 469 268 469 315 q 438 130 469 194 q 349 26 407 65 q 210 -14 290 -14 m 211 79 q 295 104 263 79 q 345 172 328 129 q 363 263 363 214 q 351 338 363 303 q 320 403 340 372 q 272 464 300 435 q 183 401 222 436 q 122 318 144 365 q 99 207 99 271 q 128 117 99 154 q 211 79 158 79 m 300 576 q 385 639 351 604 q 435 715 418 674 q 453 800 453 756 q 428 883 453 854 q 361 913 403 913 q 293 892 322 913 q 248 835 264 872 q 232 747 232 799 q 250 654 232 696 q 300 576 268 613 z "},"9":{"ha":543,"x_min":-1,"x_max":538,"o":"m 115 -14 q 50 -9 78 -14 q -1 1 22 -4 l -1 101 q 49 88 19 93 q 111 83 78 83 q 204 108 161 83 q 283 181 247 132 q 347 301 318 229 q 399 469 376 374 l 394 469 q 347 415 374 439 q 289 378 319 392 q 224 365 258 365 q 140 393 172 365 q 92 469 108 421 q 76 575 76 517 q 92 716 76 642 q 143 856 108 790 q 232 964 178 922 q 363 1006 286 1006 q 458 978 419 1006 q 517 896 497 950 q 538 761 538 842 q 530 622 538 694 q 507 479 522 550 q 469 343 492 408 q 418 222 447 278 q 364 130 394 172 q 296 55 333 88 q 213 4 258 22 q 115 -14 168 -14 m 265 464 q 307 473 288 464 q 342 497 326 482 q 371 533 358 513 q 416 630 401 571 q 431 764 431 689 q 422 842 431 811 q 395 890 413 874 q 351 907 378 907 q 280 876 311 907 q 228 795 249 844 q 197 691 207 746 q 186 590 186 636 q 207 497 186 529 q 265 464 228 464 z "},"\u0000":{"ha":0,"x_min":0,"x_max":0,"o":""},"\r":{"ha":236,"x_min":0,"x_max":0,"o":""}," ":{"ha":236,"x_min":0,"x_max":0,"o":""},"!":{"ha":326,"x_min":14,"x_max":347,"o":"m 85 276 l 221 992 l 347 992 l 172 276 l 85 276 m 72 -11 q 30 4 46 -11 q 14 49 14 19 q 38 126 14 93 q 106 160 61 160 q 145 143 131 160 q 160 99 160 126 q 135 20 160 51 q 72 -11 110 -11 z "},"\"":{"ha":469,"x_min":138,"x_max":525,"o":"m 347 633 l 406 992 l 525 992 l 429 633 l 347 633 m 138 633 l 194 992 l 314 992 l 219 633 l 138 633 z "},"#":{"ha":588,"x_min":0,"x_max":622,"o":"m 6 0 l 100 303 l 0 303 l 15 389 l 126 389 l 201 626 l 94 626 l 110 713 l 229 713 l 315 992 l 400 992 l 313 713 l 436 713 l 524 992 l 607 992 l 521 713 l 622 713 l 606 626 l 493 626 l 418 389 l 526 389 l 511 303 l 392 303 l 297 0 l 213 0 l 308 303 l 183 303 l 90 0 l 6 0 m 211 389 l 335 389 l 410 626 l 286 626 l 211 389 z "},"$":{"ha":543,"x_min":0,"x_max":568,"o":"m 168 67 q 70 82 113 69 q 0 113 28 94 l 14 222 q 88 182 42 200 q 189 161 133 164 l 254 475 q 190 531 221 501 q 138 599 158 561 q 118 690 118 638 q 148 823 118 769 q 231 906 178 876 q 353 940 285 935 l 378 1056 l 433 1056 l 410 940 q 500 924 463 938 q 568 890 538 910 l 519 800 q 459 832 490 819 q 389 847 428 844 l 326 550 q 397 489 365 521 q 447 417 428 457 q 465 321 465 376 q 435 190 465 244 q 350 105 404 136 q 224 67 296 74 l 193 -81 l 136 -81 l 168 67 m 244 165 q 315 190 288 171 q 354 240 342 210 q 367 306 367 269 q 360 353 367 332 q 340 394 354 374 q 301 438 326 414 l 244 165 m 333 846 q 268 822 294 840 q 228 773 242 803 q 215 706 215 743 q 222 666 215 685 q 242 629 228 647 q 279 589 256 611 l 333 846 z "},"%":{"ha":844,"x_min":67,"x_max":799,"o":"m 128 0 l 644 992 l 732 992 l 218 0 l 128 0 m 179 383 q 96 424 125 383 q 67 543 67 464 q 76 648 67 588 q 102 771 85 708 q 147 886 119 833 q 213 972 175 939 q 299 1006 250 1006 q 381 966 351 1006 q 411 847 411 926 q 403 744 411 804 q 376 622 394 685 q 331 504 358 558 q 266 417 304 450 q 179 383 228 383 m 190 465 q 236 495 215 465 q 274 572 257 525 q 302 672 290 619 q 320 772 314 725 q 326 847 326 819 q 317 906 326 888 q 288 925 307 925 q 242 895 263 925 q 204 819 221 865 q 176 719 188 772 q 158 619 164 667 q 151 543 151 572 q 162 483 151 501 q 190 465 172 465 m 567 -14 q 483 26 513 -14 q 454 146 454 67 q 463 257 454 196 q 491 380 472 318 q 538 494 510 442 q 602 577 565 546 q 686 608 639 608 q 769 569 739 608 q 799 450 799 529 q 790 346 799 406 q 763 224 781 286 q 718 107 746 161 q 653 19 690 53 q 567 -14 615 -14 m 576 68 q 622 98 601 68 q 660 175 643 128 q 688 275 676 222 q 706 375 700 328 q 713 451 713 422 q 703 510 713 492 q 674 528 693 528 q 627 497 649 528 q 589 419 606 467 q 561 318 572 371 q 544 219 550 265 q 538 146 538 172 q 548 87 538 106 q 576 68 558 68 z "},"&":{"ha":594,"x_min":-8,"x_max":576,"o":"m 161 -14 q 37 36 82 -14 q -8 174 -8 86 q 17 317 -8 251 q 90 438 43 382 q 203 542 138 494 q 180 632 189 586 q 171 725 171 678 q 194 866 171 803 q 262 967 217 929 q 372 1006 307 1006 q 440 990 410 1006 q 488 942 469 974 q 506 864 506 911 q 483 738 506 799 q 422 624 461 678 q 328 524 382 571 l 401 283 q 439 369 421 321 q 471 469 457 417 l 576 469 q 544 369 564 421 q 499 269 524 318 q 444 178 474 221 l 510 0 l 386 0 l 358 93 q 272 18 318 50 q 161 -14 226 -14 m 182 83 q 238 98 214 83 q 283 135 263 113 q 322 183 304 158 l 233 463 q 161 384 190 426 q 117 294 132 342 q 101 193 101 247 q 110 133 101 158 q 138 96 119 108 q 182 83 156 83 m 294 601 q 338 653 318 625 q 373 713 358 682 q 395 779 388 744 q 403 849 403 814 q 392 900 403 881 q 357 919 381 919 q 308 892 326 919 q 282 824 290 865 q 274 742 274 783 q 279 668 274 703 q 294 601 285 633 z "},"'":{"ha":260,"x_min":143,"x_max":319,"o":"m 143 633 l 200 992 l 319 992 l 225 633 l 143 633 z "},"(":{"ha":357,"x_min":25,"x_max":446,"o":"m 97 -219 q 58 -112 74 -174 q 33 17 42 -50 q 25 143 25 83 q 47 374 25 258 q 112 601 69 490 q 215 813 154 713 q 353 999 276 914 l 446 999 q 314 804 372 907 q 214 592 256 701 q 151 369 172 482 q 129 142 129 256 q 135 15 129 79 q 154 -108 142 -49 q 186 -219 167 -168 l 97 -219 z "},")":{"ha":357,"x_min":-101,"x_max":318,"o":"m -101 -219 q 31 -25 -28 -128 q 130 188 89 78 q 192 410 171 297 q 214 638 214 524 q 208 763 214 697 q 189 890 201 828 q 157 999 176 951 l 247 999 q 288 888 272 949 q 310 764 303 828 q 318 636 318 700 q 296 401 318 518 q 231 174 274 285 q 128 -36 189 64 q -8 -219 68 -136 l -101 -219 z "},"*":{"ha":501,"x_min":136,"x_max":557,"o":"m 399 597 l 339 765 l 232 619 l 157 688 l 289 817 l 136 861 l 169 957 l 317 882 l 324 1061 l 429 1047 l 389 874 l 549 907 l 557 806 l 396 804 l 490 644 l 399 597 z "},"+":{"ha":597,"x_min":56,"x_max":567,"o":"m 360 538 l 567 538 l 567 443 l 360 443 l 360 165 l 264 165 l 264 443 l 56 443 l 56 538 l 264 538 l 264 817 l 360 817 l 360 538 z "},",":{"ha":281,"x_min":-62,"x_max":181,"o":"m -62 -183 q -19 -76 -43 -136 q 28 45 6 -17 q 64 156 51 107 l 176 156 l 181 142 q 134 31 160 86 q 80 -79 108 -25 q 21 -183 51 -133 l -62 -183 z "},"-":{"ha":360,"x_min":21,"x_max":332,"o":"m 21 322 l 42 428 l 332 428 l 311 322 l 21 322 z "},".":{"ha":281,"x_min":15,"x_max":161,"o":"m 74 -11 q 31 4 47 -11 q 15 49 15 19 q 39 126 15 93 q 106 160 63 160 q 147 143 132 160 q 161 99 161 126 q 135 20 161 51 q 74 -11 110 -11 z "},"/":{"ha":464,"x_min":-68,"x_max":568,"o":"m -68 -4 l 467 996 l 568 996 l 32 -4 l -68 -4 z "},":":{"ha":283,"x_min":3,"x_max":275,"o":"m 188 579 q 145 594 161 579 q 129 639 129 610 q 140 694 129 668 q 171 735 150 719 q 219 750 192 750 q 261 733 247 750 q 275 689 275 715 q 250 610 275 642 q 188 579 225 579 m 61 -11 q 19 4 35 -11 q 3 49 3 19 q 26 126 3 93 q 93 160 50 160 q 134 143 119 160 q 149 99 149 126 q 123 20 149 51 q 61 -11 97 -11 z "},";":{"ha":283,"x_min":-69,"x_max":282,"o":"m -69 -183 q -20 -69 -43 -126 q 23 46 3 -11 q 58 156 43 103 l 169 156 l 175 142 q 128 32 154 88 q 73 -78 101 -24 q 14 -183 44 -132 l -69 -183 m 194 579 q 152 594 168 579 q 136 639 136 610 q 147 694 136 668 q 177 735 157 719 q 226 750 197 750 q 268 733 254 750 q 282 689 282 715 q 257 610 282 642 q 194 579 232 579 z "},"<":{"ha":597,"x_min":54,"x_max":569,"o":"m 569 183 l 54 461 l 54 528 l 569 803 l 569 694 l 182 493 l 569 292 l 569 183 z "},"=":{"ha":597,"x_min":56,"x_max":567,"o":"m 56 590 l 56 685 l 567 685 l 567 590 l 56 590 m 56 293 l 56 388 l 567 388 l 567 293 l 56 293 z "},">":{"ha":597,"x_min":56,"x_max":571,"o":"m 56 292 l 443 493 l 56 694 l 56 803 l 571 528 l 571 461 l 56 183 l 56 292 z "},"?":{"ha":401,"x_min":19,"x_max":460,"o":"m 85 276 q 115 392 99 344 q 153 478 131 439 q 211 558 176 517 q 284 647 253 608 q 333 725 315 685 q 350 819 350 765 q 328 885 350 864 q 271 907 307 907 q 202 892 233 907 q 142 857 171 876 l 117 942 q 204 990 160 974 q 293 1006 249 1006 q 417 963 374 1006 q 460 842 460 919 q 439 729 460 781 q 384 631 418 678 q 307 536 350 585 q 241 453 267 490 q 200 376 215 417 q 174 276 185 336 l 85 276 m 79 -11 q 36 4 53 -11 q 19 49 19 19 q 43 126 19 93 q 111 160 67 160 q 151 143 136 160 q 165 99 165 126 q 140 20 165 51 q 79 -11 115 -11 z "},"@":{"ha":814,"x_min":33,"x_max":799,"o":"m 306 -117 q 187 -93 238 -117 q 102 -26 136 -69 q 51 76 68 17 q 33 207 33 135 q 56 434 33 321 q 123 649 79 547 q 229 830 167 751 q 372 954 292 908 q 546 1000 451 1000 q 683 960 626 1000 q 769 849 739 921 q 799 682 799 778 q 788 549 799 619 q 755 409 776 478 q 703 284 733 340 q 635 194 674 228 q 553 160 597 160 q 483 189 501 160 q 460 268 464 218 l 458 268 q 403 188 436 218 q 335 157 371 157 q 259 192 285 157 q 233 297 233 226 q 244 400 233 343 q 275 515 254 457 q 328 621 296 572 q 401 699 360 669 q 496 729 443 729 q 565 722 533 729 q 621 703 596 715 l 540 378 q 529 325 533 347 q 525 289 525 303 q 534 247 525 260 q 561 233 543 233 q 613 265 589 233 q 656 349 636 297 q 689 459 675 400 q 710 575 703 518 q 718 674 718 632 q 697 814 718 758 q 637 897 676 869 q 538 925 597 925 q 391 883 457 925 q 274 768 325 840 q 187 604 222 696 q 133 413 151 513 q 115 215 115 313 q 134 82 115 140 q 196 -10 153 24 q 308 -43 239 -43 q 403 -31 356 -43 q 489 1 450 -19 l 489 -72 q 400 -105 447 -93 q 306 -117 353 -117 m 357 233 q 415 286 388 233 q 471 449 442 339 l 522 650 q 504 654 514 653 q 482 656 494 656 q 413 618 443 656 q 362 524 383 581 q 329 409 340 468 q 318 308 318 350 q 328 251 318 269 q 357 233 339 233 z "},"A":{"ha":561,"x_min":-90,"x_max":471,"o":"m -90 0 l 325 996 l 467 996 l 471 0 l 356 0 l 357 315 l 160 315 l 31 0 l -90 0 m 197 417 l 361 417 l 367 765 q 368 828 367 799 q 372 883 369 858 l 368 883 q 353 831 363 860 q 331 765 344 801 l 197 417 z "},"B":{"ha":597,"x_min":0,"x_max":607,"o":"m 0 0 l 210 992 l 393 992 q 502 970 454 992 q 578 906 550 949 q 607 799 607 864 q 588 680 607 738 q 526 581 568 622 q 419 521 485 539 l 419 517 q 500 451 472 501 q 528 335 528 400 q 492 167 528 243 q 388 45 457 90 q 218 0 319 0 l 0 0 m 218 99 q 328 131 286 99 q 392 218 371 164 q 413 338 413 272 q 381 437 413 403 q 294 471 350 471 l 211 471 l 132 99 l 218 99 m 310 565 q 407 595 367 565 q 468 675 447 625 q 489 782 489 725 q 460 867 489 839 q 371 894 432 894 l 300 894 l 231 565 l 310 565 z "},"C":{"ha":536,"x_min":50,"x_max":639,"o":"m 272 -14 q 149 22 199 -14 q 75 129 100 58 q 50 306 50 200 q 67 484 50 389 q 117 672 83 579 q 203 840 151 764 q 323 961 254 915 q 478 1007 392 1007 q 567 995 526 1007 q 639 957 607 983 l 581 867 q 532 896 558 886 q 476 906 506 906 q 363 863 413 906 q 275 753 313 821 q 213 605 238 685 q 177 449 189 525 q 165 315 165 372 q 197 141 165 196 q 297 86 229 86 q 362 96 329 86 q 429 119 394 106 l 429 18 q 351 -6 390 1 q 272 -14 311 -14 z "},"D":{"ha":646,"x_min":0,"x_max":625,"o":"m 0 0 l 210 992 l 372 992 q 560 917 496 992 q 625 699 625 843 q 609 511 625 608 q 559 323 593 414 q 471 159 525 232 q 341 43 417 86 q 164 0 265 0 l 0 0 m 181 101 q 303 138 250 101 q 395 238 357 175 q 458 377 433 300 q 495 535 483 454 q 507 692 507 617 q 470 842 507 794 q 360 890 433 890 l 300 890 l 132 101 l 181 101 z "},"E":{"ha":508,"x_min":0,"x_max":569,"o":"m 0 0 l 210 992 l 569 992 l 549 892 l 300 892 l 232 568 l 464 568 l 442 468 l 210 468 l 132 100 l 381 100 l 360 0 l 0 0 z "},"F":{"ha":479,"x_min":0,"x_max":571,"o":"m 0 0 l 210 992 l 571 992 l 549 892 l 300 892 l 224 528 l 456 528 l 435 428 l 201 428 l 111 0 l 0 0 z "},"G":{"ha":683,"x_min":50,"x_max":714,"o":"m 315 -14 q 115 66 181 -14 q 50 301 50 146 q 72 524 50 418 q 134 719 93 631 q 231 872 175 807 q 357 972 288 936 q 506 1007 426 1007 q 621 990 567 1007 q 714 944 675 972 l 658 849 q 579 892 618 879 q 496 906 540 906 q 360 852 421 906 q 255 711 299 799 q 188 518 211 624 q 165 307 165 413 q 183 181 165 231 q 236 109 200 132 q 325 86 272 86 q 381 90 354 86 q 435 103 408 94 l 503 425 l 381 425 l 401 524 l 635 524 l 529 29 q 420 -3 475 8 q 315 -14 365 -14 z "},"H":{"ha":671,"x_min":0,"x_max":701,"o":"m 0 0 l 210 992 l 321 992 l 232 569 l 500 569 l 590 992 l 701 992 l 490 0 l 379 0 l 478 468 l 210 468 l 111 0 l 0 0 z "},"I":{"ha":361,"x_min":-71,"x_max":460,"o":"m -71 0 l -57 63 l 53 85 l 226 907 l 126 929 l 139 992 l 460 992 l 446 929 l 338 907 l 164 85 l 263 63 l 250 0 l -71 0 z "},"J":{"ha":281,"x_min":-204,"x_max":322,"o":"m -111 -267 q -164 -262 -142 -267 q -204 -250 -186 -258 l -179 -150 q -147 -162 -164 -157 q -114 -167 -131 -167 q -60 -147 -81 -167 q -24 -89 -39 -126 q 1 0 -10 -51 l 211 992 l 322 992 l 108 -19 q 60 -160 90 -106 q -12 -241 31 -215 q -111 -267 -54 -267 z "},"K":{"ha":563,"x_min":0,"x_max":675,"o":"m 0 0 l 210 992 l 321 992 l 217 499 l 293 617 l 554 992 l 675 992 l 363 538 l 476 0 l 356 0 l 267 453 l 190 375 l 111 0 l 0 0 z "},"L":{"ha":468,"x_min":0,"x_max":375,"o":"m 0 0 l 210 992 l 321 992 l 132 100 l 375 100 l 356 0 l 0 0 z "},"M":{"ha":899,"x_min":0,"x_max":929,"o":"m 0 0 l 210 992 l 365 992 l 394 181 l 397 181 l 763 992 l 929 992 l 718 0 l 608 0 l 751 672 q 762 714 757 693 q 772 756 767 735 q 782 800 776 778 l 779 800 l 415 0 l 304 0 l 274 799 l 271 799 q 261 745 265 771 q 253 695 257 719 q 243 647 249 671 l 106 0 l 0 0 z "},"N":{"ha":713,"x_min":0,"x_max":744,"o":"m 0 0 l 210 992 l 342 992 l 471 201 l 475 201 q 492 300 483 251 q 510 390 501 349 q 524 458 518 431 l 636 992 l 744 992 l 533 0 l 406 0 l 274 803 l 269 803 q 256 720 264 764 q 240 635 249 676 q 225 561 232 594 q 214 508 218 528 l 107 0 l 0 0 z "},"O":{"ha":689,"x_min":49,"x_max":668,"o":"m 265 -14 q 144 17 193 -14 q 72 114 96 49 q 49 278 49 179 q 60 435 49 353 q 93 599 71 518 q 149 754 115 681 q 228 884 183 828 q 330 973 274 940 q 454 1006 386 1006 q 615 936 563 1006 q 668 725 668 867 q 658 581 668 660 q 628 418 649 501 q 575 258 607 335 q 498 119 543 181 q 395 22 453 58 q 265 -14 338 -14 m 274 88 q 360 119 321 88 q 430 203 399 150 q 485 324 461 257 q 524 463 508 390 q 547 603 539 535 q 554 726 554 671 q 527 862 554 818 q 444 906 500 906 q 353 872 393 906 q 281 783 313 839 q 228 658 250 726 q 192 518 206 589 q 171 384 178 447 q 164 276 164 321 q 176 168 164 210 q 213 107 189 126 q 274 88 238 88 z "},"P":{"ha":561,"x_min":0,"x_max":586,"o":"m 0 0 l 210 992 l 360 992 q 485 965 435 992 q 560 890 535 939 q 586 775 586 842 q 564 622 586 692 q 499 499 542 551 q 396 417 457 446 q 256 388 335 388 l 193 388 l 111 0 l 0 0 m 254 488 q 374 522 325 488 q 447 619 422 557 q 471 761 471 681 q 438 859 471 826 q 342 892 406 892 l 300 892 l 214 488 l 254 488 z "},"Q":{"ha":689,"x_min":49,"x_max":668,"o":"m 267 -11 q 256 -12 261 -12 q 243 -12 250 -12 q 135 24 178 -8 q 70 120 92 57 q 49 278 49 183 q 60 435 49 353 q 93 599 71 518 q 149 754 115 681 q 228 884 183 828 q 330 973 274 940 q 454 1006 386 1006 q 615 936 563 1006 q 668 725 668 867 q 658 574 668 657 q 626 406 647 492 q 569 240 604 319 q 487 101 535 161 q 376 13 439 42 l 457 -236 l 329 -236 l 267 -11 m 274 88 q 360 119 321 88 q 430 203 399 150 q 485 324 461 257 q 524 463 508 390 q 547 603 539 535 q 554 726 554 671 q 527 862 554 818 q 444 906 500 906 q 353 872 393 906 q 281 783 313 839 q 228 658 250 726 q 192 518 206 589 q 171 384 178 447 q 164 276 164 321 q 176 168 164 210 q 213 107 189 126 q 274 88 238 88 z "},"R":{"ha":581,"x_min":0,"x_max":588,"o":"m 0 0 l 210 992 l 360 992 q 529 935 471 992 q 588 776 588 879 q 563 623 588 694 q 492 503 538 551 q 383 438 446 454 l 472 0 l 351 0 l 276 415 l 199 415 l 111 0 l 0 0 m 281 510 q 366 531 331 510 q 425 588 401 553 q 460 669 449 624 q 471 763 471 715 q 438 860 471 828 q 343 893 406 893 l 300 893 l 219 510 l 281 510 z "},"S":{"ha":522,"x_min":-32,"x_max":572,"o":"m 158 -14 q 49 -2 99 -14 q -32 32 0 10 l -17 149 q 66 108 19 124 q 161 92 113 92 q 229 104 199 92 q 283 140 260 117 q 317 197 306 163 q 329 274 329 231 q 321 340 329 311 q 290 400 313 368 q 225 475 268 432 q 162 548 189 513 q 120 626 135 583 q 106 722 106 668 q 126 840 106 788 q 183 928 146 892 q 272 985 219 965 q 389 1006 325 1006 q 490 991 438 1006 q 572 954 542 976 l 519 853 q 452 888 488 875 q 381 901 417 901 q 319 890 347 901 q 268 858 290 879 q 234 805 246 836 q 222 735 222 774 q 235 664 222 694 q 275 602 249 633 q 340 531 301 571 q 400 458 376 494 q 435 379 424 421 q 446 283 446 338 q 427 164 446 218 q 372 69 408 110 q 281 8 335 29 q 158 -14 228 -14 z "},"T":{"ha":478,"x_min":92,"x_max":585,"o":"m 92 0 l 281 890 l 110 890 l 132 992 l 585 992 l 563 890 l 392 890 l 203 0 l 92 0 z "},"U":{"ha":656,"x_min":46,"x_max":692,"o":"m 244 -14 q 138 10 182 -14 q 69 82 93 35 q 46 194 46 129 q 49 250 46 219 q 60 311 53 281 l 204 992 l 315 992 l 169 306 q 161 254 164 279 q 158 208 158 229 q 184 117 158 147 q 258 88 210 88 q 339 112 306 88 q 395 188 372 136 q 436 321 418 240 l 581 992 l 692 992 l 544 310 q 488 138 524 211 q 393 26 451 65 q 244 -14 335 -14 z "},"V":{"ha":561,"x_min":119,"x_max":675,"o":"m 125 0 l 119 992 l 233 992 l 228 368 q 227 303 228 336 q 224 232 226 269 q 218 150 222 194 l 221 150 q 249 235 232 188 q 288 340 265 283 l 556 992 l 675 992 l 253 0 l 125 0 z "},"W":{"ha":907,"x_min":97,"x_max":1017,"o":"m 97 0 l 121 992 l 229 992 l 211 369 q 206 260 210 308 q 200 175 203 211 l 203 175 q 238 272 219 224 q 275 369 257 321 l 518 992 l 619 992 l 599 389 q 595 308 597 344 q 591 238 593 271 q 586 175 589 206 l 589 175 q 615 249 603 214 q 640 315 628 283 q 664 379 653 347 l 903 992 l 1017 992 l 624 0 l 492 0 l 515 629 q 518 674 517 650 q 522 722 519 697 q 525 772 524 747 l 522 772 q 499 704 511 739 q 475 638 488 669 l 228 0 l 97 0 z "},"X":{"ha":515,"x_min":-82,"x_max":614,"o":"m -82 0 l 217 522 l 149 992 l 264 992 l 306 626 l 496 992 l 614 992 l 344 507 l 413 0 l 294 0 l 256 399 l 36 0 l -82 0 z "},"Y":{"ha":494,"x_min":101,"x_max":614,"o":"m 101 0 l 182 382 l 118 992 l 233 992 l 268 532 l 496 992 l 614 992 l 294 385 l 213 0 l 101 0 z "},"Z":{"ha":465,"x_min":-57,"x_max":551,"o":"m -57 0 l -39 86 l 406 892 l 139 892 l 160 992 l 551 992 l 533 904 l 86 100 l 371 100 l 350 0 l -57 0 z "},"[":{"ha":392,"x_min":-37,"x_max":486,"o":"m -37 -224 l 224 1000 l 486 1000 l 467 911 l 304 911 l 81 -135 l 244 -135 l 225 -224 l -37 -224 z "},"\\":{"ha":472,"x_min":140,"x_max":364,"o":"m 264 -4 l 140 996 l 239 996 l 364 -4 l 264 -4 z "},"]":{"ha":392,"x_min":-92,"x_max":431,"o":"m -92 -224 l -74 -135 l 89 -135 l 311 911 l 149 911 l 168 1000 l 431 1000 l 169 -224 l -92 -224 z "},"^":{"ha":553,"x_min":15,"x_max":550,"o":"m 15 460 l 336 992 l 408 992 l 550 460 l 450 460 l 347 844 l 122 460 l 15 460 z "},"_":{"ha":421,"x_min":-121,"x_max":318,"o":"m -121 -200 l -104 -115 l 318 -115 l 301 -200 l -121 -200 z "},"`":{"ha":346,"x_min":203,"x_max":392,"o":"m 322 842 q 280 905 304 867 q 234 983 256 943 q 203 1051 213 1022 l 203 1063 l 328 1063 q 345 997 336 1031 q 366 928 354 963 q 392 856 378 893 l 390 842 l 322 842 z "},"a":{"ha":588,"x_min":35,"x_max":585,"o":"m 181 -14 q 101 10 133 -14 q 51 81 68 35 q 35 193 35 126 q 46 331 35 256 q 81 481 57 406 q 140 619 104 557 q 224 720 175 682 q 335 758 272 758 q 391 747 367 758 q 433 710 415 735 q 458 650 450 686 l 463 650 l 493 744 l 585 744 l 426 0 l 340 0 l 349 106 l 346 106 q 297 42 322 68 q 242 1 271 15 q 181 -14 214 -14 m 215 81 q 296 118 263 81 q 353 214 329 156 q 392 333 376 272 q 417 453 408 400 q 425 553 425 506 q 404 634 425 606 q 347 663 383 663 q 278 631 310 663 q 222 549 246 600 q 181 437 197 499 q 155 314 164 375 q 146 201 146 253 q 163 110 146 140 q 215 81 181 81 z "},"b":{"ha":579,"x_min":-1,"x_max":550,"o":"m 249 -14 q 190 -1 215 -14 q 147 36 164 13 q 122 92 131 60 l 118 92 l 85 0 l -1 0 l 222 1056 l 329 1056 l 258 724 q 252 699 256 713 q 245 672 249 686 q 238 644 242 658 l 240 644 q 289 707 263 682 q 345 745 315 732 q 407 758 375 758 q 485 735 453 758 q 533 666 517 711 q 550 553 550 621 q 538 416 550 492 q 503 265 526 340 q 444 126 481 189 q 360 24 408 63 q 249 -14 311 -14 m 239 79 q 308 111 276 79 q 363 195 339 143 q 404 310 388 247 q 430 433 421 372 q 439 544 439 494 q 422 635 439 606 q 368 664 404 664 q 306 640 335 664 q 253 577 276 617 q 213 488 231 538 q 184 387 196 439 q 166 285 172 335 q 160 196 160 235 q 180 108 160 138 q 239 79 200 79 z "},"c":{"ha":440,"x_min":35,"x_max":482,"o":"m 213 -14 q 115 12 156 -14 q 55 88 75 38 q 35 211 35 138 q 47 351 35 276 q 83 499 58 426 q 145 629 107 571 q 237 723 183 688 q 358 758 290 758 q 425 751 394 758 q 482 726 456 743 l 439 638 q 399 657 421 650 q 357 664 378 664 q 263 620 303 664 q 197 508 224 576 q 158 364 171 440 q 144 222 144 288 q 155 142 144 174 q 186 96 165 111 q 238 81 207 81 q 291 91 263 81 q 350 119 319 101 l 350 25 q 288 -3 324 8 q 213 -14 251 -14 z "},"d":{"ha":586,"x_min":33,"x_max":649,"o":"m 176 -14 q 99 10 131 -14 q 50 81 67 35 q 33 193 33 126 q 44 329 33 254 q 79 480 56 404 q 138 619 103 556 q 222 720 174 682 q 329 758 269 758 q 388 747 361 758 q 432 712 414 735 q 457 657 450 689 l 461 657 q 469 704 465 681 q 478 750 474 728 q 486 792 482 772 l 542 1056 l 649 1056 l 425 0 l 339 0 l 347 103 l 344 103 q 294 40 319 65 q 240 0 268 14 q 176 -14 211 -14 m 214 79 q 281 105 251 79 q 334 174 311 131 q 374 269 357 217 q 402 375 392 321 q 418 476 413 429 q 424 556 424 524 q 405 635 424 608 q 346 663 386 663 q 275 630 307 663 q 219 544 243 597 q 178 430 194 492 q 153 307 161 368 q 144 199 144 246 q 162 109 144 139 q 214 79 179 79 z "},"e":{"ha":531,"x_min":33,"x_max":507,"o":"m 228 -14 q 123 13 167 -14 q 56 90 79 39 q 33 214 33 142 q 58 425 33 326 q 126 599 82 524 q 228 716 169 674 q 357 758 288 758 q 467 719 426 758 q 507 604 507 681 q 483 492 507 542 q 415 408 460 443 q 307 353 371 372 q 161 335 243 335 l 151 335 q 143 281 146 308 q 140 226 140 254 q 169 113 140 149 q 254 76 197 76 q 324 87 292 76 q 396 119 356 97 l 396 29 q 318 -3 360 7 q 228 -14 276 -14 m 171 418 q 306 441 254 418 q 381 504 357 464 q 406 599 406 544 q 390 649 406 631 q 342 668 375 668 q 272 636 306 668 q 212 548 239 604 q 167 418 185 492 l 171 418 z "},"f":{"ha":319,"x_min":-171,"x_max":481,"o":"m -100 -333 q -137 -331 -119 -333 q -171 -324 -154 -329 l -171 -228 q -142 -235 -158 -232 q -111 -237 -126 -237 q -43 -195 -61 -237 q -8 -76 -25 -153 l 147 653 l 68 653 l 79 713 l 167 746 l 185 824 q 212 925 197 881 q 248 1000 226 969 q 301 1047 269 1031 q 379 1063 333 1063 q 433 1057 407 1063 q 481 1040 458 1051 l 440 954 q 413 965 426 961 q 385 968 399 968 q 326 931 346 968 q 290 821 306 893 l 275 744 l 376 744 l 357 653 l 256 653 l 96 -85 q 61 -210 82 -153 q 3 -300 40 -267 q -100 -333 -35 -333 z "},"g":{"ha":588,"x_min":-31,"x_max":583,"o":"m 126 -333 q 39 -320 81 -333 q -31 -290 -3 -307 l -31 -186 q 13 -211 -12 -199 q 69 -232 39 -224 q 129 -240 100 -240 q 244 -192 201 -240 q 308 -51 286 -144 l 319 -1 q 329 41 322 14 q 344 97 336 68 l 342 97 q 292 35 318 60 q 237 -2 265 10 q 175 -14 208 -14 q 99 9 131 -14 q 50 78 67 32 q 33 189 33 124 q 45 327 33 251 q 81 479 57 403 q 140 619 104 556 q 225 720 176 682 q 336 758 274 758 q 395 746 371 758 q 435 710 419 733 q 460 650 451 686 l 464 650 l 492 744 l 583 744 l 417 -47 q 358 -210 396 -147 q 263 -303 319 -274 q 126 -333 206 -333 m 215 81 q 277 106 249 81 q 329 172 306 131 q 370 265 353 213 q 399 370 388 317 q 417 474 411 424 q 424 561 424 524 q 403 636 424 610 q 346 663 382 663 q 275 630 307 663 q 219 545 243 597 q 178 431 194 493 q 153 308 161 368 q 144 200 144 247 q 161 110 144 140 q 215 81 178 81 z "},"h":{"ha":571,"x_min":0,"x_max":532,"o":"m 0 0 l 224 1056 l 331 1056 l 271 778 q 261 735 267 757 q 250 692 256 714 q 238 650 244 671 l 240 650 q 284 710 260 686 q 338 746 308 733 q 403 758 368 758 q 472 742 443 758 q 516 695 500 726 q 532 617 532 664 q 525 547 532 588 q 511 469 518 506 l 411 0 l 304 0 l 400 454 q 415 527 408 490 q 421 594 421 564 q 406 643 421 626 q 360 660 390 660 q 291 634 322 660 q 236 553 260 608 q 194 411 213 499 l 107 0 l 0 0 z "},"i":{"ha":267,"x_min":-1,"x_max":319,"o":"m -1 0 l 157 744 l 264 744 l 106 0 l -1 0 m 242 869 q 202 883 215 869 q 189 924 189 897 q 198 972 189 949 q 224 1009 207 994 q 268 1024 242 1024 q 306 1011 293 1024 q 319 972 319 999 q 299 899 319 929 q 242 869 278 869 z "},"j":{"ha":268,"x_min":-179,"x_max":321,"o":"m -108 -333 q -146 -331 -128 -333 q -179 -324 -164 -329 l -179 -226 q -151 -234 -168 -232 q -121 -236 -135 -236 q -70 -220 -89 -236 q -38 -166 -51 -204 q -12 -61 -25 -128 l 158 744 l 265 744 l 92 -69 q 55 -207 76 -147 q -5 -300 33 -267 q -108 -333 -43 -333 m 243 869 q 203 883 217 869 q 190 924 190 897 q 199 972 190 949 q 226 1009 208 994 q 269 1024 243 1024 q 308 1011 294 1024 q 321 972 321 999 q 300 899 321 929 q 243 869 279 869 z "},"k":{"ha":501,"x_min":0,"x_max":563,"o":"m 0 0 l 225 1056 l 332 1056 l 222 546 q 208 481 217 518 q 186 397 199 443 l 189 397 l 446 744 l 563 744 l 339 443 l 418 0 l 304 0 l 246 354 l 161 263 l 107 0 l 0 0 z "},"l":{"ha":264,"x_min":0,"x_max":332,"o":"m 0 0 l 225 1056 l 332 1056 l 107 0 l 0 0 z "},"m":{"ha":851,"x_min":-1,"x_max":814,"o":"m -1 0 l 157 744 l 244 744 l 231 647 l 235 647 q 281 708 256 683 q 335 746 306 733 q 397 758 364 758 q 481 735 450 758 q 522 663 513 711 l 525 663 q 571 715 546 693 q 625 747 596 736 q 688 758 654 758 q 781 722 747 758 q 814 617 814 686 q 810 571 814 596 q 801 521 807 546 l 692 0 l 585 0 l 690 500 q 699 549 696 525 q 703 588 703 574 q 688 642 703 624 q 643 661 672 661 q 592 646 614 661 q 553 604 569 631 q 524 547 536 578 q 506 482 513 515 l 403 0 l 296 0 l 404 511 q 412 554 410 533 q 414 589 414 575 q 399 643 414 625 q 356 661 385 661 q 294 640 321 661 q 249 583 268 619 q 216 501 229 547 q 193 406 203 456 l 107 0 l -1 0 z "},"n":{"ha":571,"x_min":-1,"x_max":532,"o":"m -1 0 l 157 744 l 244 744 l 231 644 l 235 644 q 281 707 256 682 q 335 745 306 732 q 399 758 365 758 q 467 744 438 758 q 515 698 497 729 q 532 618 532 667 q 526 551 532 589 q 513 478 519 514 l 411 0 l 304 0 l 401 463 q 415 532 408 496 q 421 594 421 568 q 406 643 421 626 q 361 660 392 660 q 288 630 319 660 q 233 542 257 600 q 192 400 210 485 l 107 0 l -1 0 z "},"o":{"ha":565,"x_min":35,"x_max":531,"o":"m 213 -14 q 117 12 157 -14 q 56 88 76 38 q 35 211 35 139 q 45 340 35 268 q 79 485 56 411 q 140 620 103 558 q 230 720 176 682 q 354 758 283 758 q 449 732 410 758 q 510 655 489 706 q 531 531 531 604 q 518 387 531 463 q 481 240 506 311 q 419 112 457 169 q 329 20 381 54 q 213 -14 278 -14 m 224 81 q 292 110 261 81 q 347 190 324 140 q 388 300 371 240 q 413 421 404 360 q 421 533 421 482 q 412 605 421 575 q 385 650 403 635 q 340 665 368 665 q 268 633 300 665 q 213 547 236 600 q 174 433 189 494 q 151 313 158 372 q 143 210 143 254 q 163 114 143 147 q 224 81 183 81 z "},"p":{"ha":579,"x_min":-67,"x_max":550,"o":"m -67 -324 l 158 744 l 247 744 l 233 638 l 238 638 q 289 705 263 678 q 345 745 315 732 q 407 758 375 758 q 485 735 453 758 q 533 667 517 713 q 550 551 550 621 q 538 412 550 488 q 503 261 526 336 q 443 124 479 186 q 359 24 407 61 q 250 -14 311 -14 q 194 -1 219 -14 q 151 36 168 13 q 126 90 135 60 l 122 90 q 111 20 117 56 q 99 -44 106 -15 l 39 -324 l -67 -324 m 239 81 q 308 112 276 81 q 364 194 339 143 q 406 308 389 246 q 431 432 422 369 q 440 546 440 494 q 423 637 440 607 q 369 667 406 667 q 308 642 336 667 q 256 578 279 618 q 215 488 232 538 q 185 384 197 438 q 167 281 174 331 q 161 193 161 232 q 181 109 161 138 q 239 81 200 81 z "},"q":{"ha":586,"x_min":33,"x_max":583,"o":"m 317 -8 q 324 21 319 4 q 333 58 328 38 q 344 97 339 78 l 342 97 q 292 36 318 61 q 237 -1 265 11 q 175 -14 208 -14 q 99 9 131 -14 q 50 77 67 32 q 33 189 33 122 q 44 325 33 250 q 79 476 56 400 q 139 617 103 553 q 224 719 175 681 q 335 758 272 758 q 394 746 369 758 q 435 710 419 733 q 460 650 451 686 l 463 650 l 492 744 l 583 744 l 356 -332 l 249 -332 l 317 -8 m 215 81 q 277 104 249 81 q 328 169 306 128 q 369 260 351 210 q 399 363 388 310 q 417 467 411 417 q 424 557 424 518 q 403 635 424 608 q 344 663 382 663 q 274 631 306 663 q 219 548 243 600 q 178 434 194 496 q 153 311 161 372 q 144 200 144 250 q 162 110 144 139 q 215 81 179 81 z "},"r":{"ha":383,"x_min":0,"x_max":447,"o":"m 0 0 l 157 744 l 240 744 l 225 622 l 229 622 q 274 699 250 668 q 328 744 299 729 q 394 758 358 758 q 421 756 408 758 q 447 750 433 754 l 415 636 q 392 644 404 642 q 365 646 381 646 q 301 623 329 646 q 251 563 272 600 q 214 479 229 525 q 189 389 199 433 l 107 0 l 0 0 z "},"s":{"ha":439,"x_min":-15,"x_max":457,"o":"m 139 -14 q 49 -3 90 -14 q -15 21 8 7 l -15 131 q 50 97 10 111 q 128 82 90 82 q 192 96 165 82 q 233 138 219 110 q 247 204 247 165 q 241 252 247 231 q 218 298 235 274 q 169 354 201 322 q 118 414 139 385 q 87 476 97 443 q 76 547 76 508 q 101 654 76 607 q 174 730 126 701 q 288 758 222 758 q 383 745 340 758 q 457 710 426 732 l 410 624 q 353 656 383 644 q 290 667 322 667 q 215 638 243 667 q 186 563 186 610 q 192 517 186 538 q 213 474 197 496 q 256 425 228 453 q 316 358 293 388 q 349 295 339 328 q 360 215 360 263 q 334 94 360 146 q 259 15 308 43 q 139 -14 210 -14 z "},"t":{"ha":331,"x_min":33,"x_max":372,"o":"m 142 -14 q 59 19 85 -14 q 33 111 33 53 q 37 156 33 131 q 46 210 40 181 l 140 653 l 74 653 l 86 714 l 165 743 l 225 914 l 303 914 l 267 744 l 372 744 l 353 653 l 247 653 l 151 203 q 144 163 147 182 q 140 129 140 143 q 150 94 140 106 q 182 82 160 82 q 212 85 194 82 q 243 94 229 89 l 243 7 q 193 -8 221 -3 q 142 -14 165 -14 z "},"u":{"ha":574,"x_min":35,"x_max":567,"o":"m 168 -14 q 95 3 125 -14 q 50 52 65 19 q 35 131 35 85 q 40 189 35 156 q 50 251 44 222 l 156 744 l 263 744 l 161 267 q 150 208 154 236 q 146 153 146 179 q 160 102 146 121 q 204 83 174 83 q 278 114 246 83 q 334 203 310 144 q 375 344 358 261 l 460 744 l 567 744 l 410 0 l 324 0 l 332 94 l 328 94 q 281 35 307 60 q 227 -1 256 11 q 168 -14 199 -14 z "},"v":{"ha":467,"x_min":82,"x_max":538,"o":"m 93 0 l 82 744 l 189 744 l 186 332 q 185 275 186 310 q 183 208 185 240 q 179 156 182 175 l 185 156 q 201 203 193 181 q 217 247 208 225 q 235 289 226 268 l 426 744 l 538 744 l 211 0 l 93 0 z "},"w":{"ha":754,"x_min":74,"x_max":821,"o":"m 74 0 l 88 744 l 192 744 l 179 319 q 175 240 178 278 q 169 165 172 201 l 172 165 q 188 213 179 189 q 205 261 196 238 q 221 304 214 285 l 393 744 l 514 744 l 500 324 q 496 244 499 286 q 490 160 493 201 l 493 160 q 514 220 504 190 q 535 279 524 250 q 557 339 546 308 l 713 744 l 821 744 l 522 0 l 397 0 l 415 461 q 417 506 417 483 q 420 552 418 529 q 424 597 422 575 l 421 597 q 409 561 415 579 q 397 525 403 543 q 383 489 390 507 l 196 0 l 74 0 z "},"x":{"ha":478,"x_min":-64,"x_max":531,"o":"m -64 0 l 175 388 l 104 744 l 217 744 l 260 479 l 413 744 l 531 744 l 301 378 l 381 0 l 268 0 l 218 285 l 53 0 l -64 0 z "},"y":{"ha":472,"x_min":-131,"x_max":544,"o":"m -57 -335 q -97 -331 -79 -335 q -131 -321 -115 -326 l -117 -225 q -89 -233 -103 -231 q -60 -236 -75 -236 q 6 -205 -19 -236 q 54 -118 31 -174 l 107 3 l 89 744 l 196 744 l 197 332 q 197 276 197 304 q 195 219 196 247 q 192 161 194 190 l 196 161 q 215 217 206 190 q 235 269 225 244 q 251 314 244 294 l 433 744 l 544 744 l 154 -143 q 99 -244 128 -201 q 34 -311 71 -287 q -57 -335 -3 -335 z "},"z":{"ha":393,"x_min":-50,"x_max":435,"o":"m -50 0 l -35 72 l 296 653 l 101 653 l 121 744 l 435 744 l 418 668 l 92 93 l 306 93 l 285 0 l -50 0 z "},"{":{"ha":456,"x_min":32,"x_max":542,"o":"m 289 -219 q 140 -177 186 -218 q 93 -58 93 -136 q 96 -22 93 -40 q 101 15 99 -4 l 140 201 q 145 227 143 214 q 147 254 147 240 q 122 322 147 300 q 32 343 96 343 l 51 432 q 165 465 125 432 q 218 568 204 497 l 268 799 q 318 917 285 875 q 406 975 351 958 q 538 992 460 992 l 542 992 l 521 901 q 417 873 450 900 q 369 776 385 846 l 322 553 q 268 441 308 483 q 153 388 228 399 l 153 383 q 230 341 206 371 q 254 264 254 311 q 252 233 254 250 q 246 197 250 217 l 207 14 q 203 -16 204 -3 q 201 -40 201 -29 q 224 -107 201 -86 q 299 -129 246 -128 l 296 -219 l 289 -219 z "},"|":{"ha":508,"x_min":203,"x_max":300,"o":"m 203 -329 l 203 1061 l 300 1061 l 300 -329 l 203 -329 z "},"}":{"ha":454,"x_min":-83,"x_max":418,"o":"m -82 -129 q 1 -117 -32 -129 q 52 -76 33 -104 q 81 -4 71 -49 l 128 219 q 183 331 143 289 q 297 385 222 374 l 297 389 q 221 431 246 401 q 196 508 196 461 q 198 540 196 524 q 204 575 200 557 l 243 758 q 247 788 246 774 q 249 813 249 801 q 225 878 249 857 q 149 901 201 900 l 167 992 l 175 992 q 281 974 242 992 q 339 921 321 956 q 357 835 357 886 q 355 797 357 818 q 349 757 353 776 l 310 571 q 305 544 307 557 q 303 518 303 532 q 328 451 303 472 q 418 429 354 429 l 399 340 q 286 307 325 340 q 232 204 247 274 l 182 -26 q 135 -143 167 -101 q 51 -202 103 -185 q -79 -219 -1 -219 l -83 -219 l -82 -129 z "},"~":{"ha":597,"x_min":54,"x_max":572,"o":"m 299 444 q 238 472 268 463 q 183 482 208 482 q 119 460 153 482 q 54 400 86 439 l 54 507 q 115 560 82 542 q 189 578 149 578 q 259 567 228 578 q 326 536 290 556 q 390 508 363 518 q 443 499 417 499 q 510 522 475 499 q 572 579 544 544 l 572 472 q 512 422 546 440 q 438 404 478 404 q 367 415 396 404 q 299 444 338 425 z "}," ":{"ha":236,"x_min":0,"x_max":0,"o":""},"¡":{"ha":326,"x_min":-29,"x_max":307,"o":"m -29 -257 l 146 465 l 232 465 l 97 -257 l -29 -257 m 215 582 q 176 599 190 582 q 161 643 161 615 q 186 722 161 690 q 247 753 211 753 q 291 738 275 753 q 307 693 307 722 q 283 616 307 650 q 215 582 260 582 z "},"¢":{"ha":543,"x_min":88,"x_max":535,"o":"m 208 128 q 117 197 147 143 q 88 349 88 251 q 98 477 88 408 q 130 614 108 546 q 185 741 151 682 q 265 840 219 800 q 371 890 311 879 l 394 1006 l 469 1006 l 446 892 q 494 881 472 889 q 535 863 517 874 l 492 772 q 452 791 474 783 q 411 799 431 799 q 320 756 360 799 q 253 644 281 713 q 211 499 225 576 q 197 354 197 422 q 220 249 197 281 q 286 217 243 217 q 340 226 314 217 q 388 249 365 235 l 414 165 q 351 137 388 147 q 282 124 314 126 l 253 -14 l 178 -14 l 208 128 z "},"£":{"ha":544,"x_min":-32,"x_max":601,"o":"m -12 92 q 44 133 19 107 q 86 197 68 158 q 115 290 104 236 l 150 453 l 58 453 l 76 542 l 168 542 l 217 772 q 261 897 233 844 q 334 977 289 949 q 444 1006 379 1006 q 528 992 490 1006 q 601 950 567 978 l 549 861 q 500 894 526 882 q 443 906 474 906 q 365 867 392 906 q 321 753 338 829 l 276 542 l 431 542 l 413 453 l 258 453 l 224 292 q 180 172 208 218 q 111 100 151 125 l 429 100 l 408 0 l -32 0 l -12 92 z "},"¤":{"ha":703,"x_min":72,"x_max":658,"o":"m 517 285 q 444 248 482 261 q 365 235 406 235 q 285 248 324 235 q 213 286 246 261 l 125 199 l 74 251 l 161 339 q 122 412 135 374 q 110 490 110 450 q 122 569 110 531 q 161 642 135 607 l 72 731 l 125 783 l 214 694 q 288 733 249 721 q 365 746 326 746 q 444 733 406 746 q 517 694 482 721 l 606 783 l 658 731 l 569 643 q 609 570 596 608 q 622 490 622 532 q 609 410 622 449 q 571 338 596 372 l 658 249 l 607 197 l 517 285 m 364 313 q 456 337 415 313 q 520 402 496 361 q 544 490 544 443 q 521 579 546 539 q 455 644 496 619 q 365 669 414 669 q 276 645 317 669 q 210 581 235 621 q 186 490 186 540 q 210 401 186 442 q 275 336 235 360 q 364 313 315 313 z "},"¥":{"ha":539,"x_min":24,"x_max":610,"o":"m 122 0 l 161 183 l 24 183 l 40 263 l 178 263 l 203 383 l 67 383 l 83 463 l 203 463 l 164 992 l 274 992 l 292 543 l 497 992 l 610 992 l 347 463 l 469 463 l 453 383 l 313 383 l 286 263 l 426 263 l 411 183 l 271 183 l 231 0 l 122 0 z "},"¦":{"ha":508,"x_min":203,"x_max":300,"o":"m 203 531 l 203 1060 l 300 1060 l 300 531 l 203 531 m 203 -329 l 203 200 l 300 200 l 300 -329 l 203 -329 z "},"§":{"ha":479,"x_min":-6,"x_max":525,"o":"m 153 42 q 62 52 103 42 q -6 81 21 63 l -6 176 q 68 137 26 150 q 147 124 110 124 q 239 158 203 124 q 275 249 275 193 q 265 292 275 274 q 237 329 256 311 q 192 367 218 347 q 133 414 161 389 q 89 471 106 439 q 72 543 72 503 q 88 619 72 586 q 133 680 103 653 q 206 728 163 707 q 162 790 175 757 q 149 863 149 822 q 174 958 149 915 q 247 1028 200 1001 q 357 1056 294 1054 q 450 1043 408 1056 q 525 1007 492 1031 l 481 932 q 423 965 454 954 q 360 975 392 975 q 303 962 329 975 q 263 924 278 949 q 247 867 247 900 q 270 802 247 828 q 329 750 293 776 q 397 694 371 721 q 434 641 422 668 q 446 583 446 614 q 432 505 446 540 q 391 440 418 469 q 324 385 364 411 q 361 330 347 361 q 375 258 375 299 q 347 147 375 196 q 268 70 318 99 q 153 42 218 42 m 275 429 q 330 488 311 454 q 349 561 349 522 q 340 606 349 586 q 313 644 332 625 q 260 686 293 663 q 210 656 231 674 q 180 614 190 638 q 169 563 169 590 q 181 516 169 538 q 217 474 193 494 q 275 429 240 453 z "},"¨":{"ha":653,"x_min":240,"x_max":567,"o":"m 496 876 q 460 889 472 876 q 447 928 447 901 q 467 991 447 964 q 521 1018 486 1018 q 555 1006 543 1018 q 567 969 567 993 q 547 903 567 929 q 496 876 526 876 m 288 876 q 253 889 265 876 q 240 928 240 901 q 260 991 240 964 q 314 1018 279 1018 q 338 1013 328 1018 q 353 997 347 1007 q 358 969 358 986 q 339 903 358 929 q 288 876 319 876 z "},"©":{"ha":1153,"x_min":67,"x_max":1086,"o":"m 576 -14 q 365 26 458 -14 q 204 138 271 67 q 102 300 138 208 q 67 496 67 392 q 106 703 67 610 q 215 864 146 796 q 378 969 285 932 q 576 1006 471 1006 q 783 967 689 1006 q 944 858 876 928 q 1049 696 1013 789 q 1086 496 1086 603 q 1048 292 1086 385 q 941 130 1010 199 q 779 24 872 61 q 576 -14 686 -14 m 596 186 q 393 266 465 186 q 321 493 321 346 q 355 658 321 589 q 452 766 389 728 q 603 804 515 804 q 691 794 647 804 q 776 765 735 785 l 740 688 q 672 712 706 704 q 606 719 638 719 q 472 662 521 719 q 422 497 422 604 q 468 326 422 381 q 603 271 514 271 q 674 279 638 271 q 750 304 711 288 l 750 219 q 675 194 714 203 q 596 186 636 186 m 576 60 q 751 93 672 60 q 888 186 831 126 q 976 325 944 246 q 1007 496 1007 404 q 975 670 1007 590 q 885 808 943 750 q 748 899 826 867 q 576 932 669 932 q 401 899 481 932 q 264 806 321 865 q 176 667 207 746 q 144 496 144 588 q 177 318 144 399 q 269 180 210 238 q 406 91 328 122 q 576 60 485 60 z "},"ª":{"ha":375,"x_min":90,"x_max":469,"o":"m 203 533 q 151 548 176 533 q 108 597 125 563 q 90 690 90 632 q 103 801 90 746 q 142 901 117 856 q 206 974 168 946 q 294 1001 244 1001 q 355 982 335 1001 q 385 935 375 963 l 390 935 l 413 993 l 469 993 l 375 542 l 314 542 l 322 607 l 318 607 q 272 553 299 574 q 203 533 244 533 m 224 603 q 270 619 250 603 q 306 661 290 635 q 330 719 321 688 q 344 781 339 750 q 349 835 349 811 q 335 907 349 882 q 289 932 321 932 q 241 911 263 932 q 204 856 219 890 q 181 781 189 822 q 172 697 172 739 q 186 626 172 649 q 224 603 200 603 z "},"«":{"ha":582,"x_min":38,"x_max":585,"o":"m 167 85 l 38 358 l 40 376 l 271 644 l 343 599 l 154 364 l 249 121 l 167 85 m 410 85 l 279 358 l 282 376 l 513 644 l 585 599 l 397 364 l 492 121 l 410 85 z "},"¬":{"ha":597,"x_min":56,"x_max":557,"o":"m 557 538 l 557 167 l 461 167 l 461 443 l 56 443 l 56 538 l 557 538 z "},"­":{"ha":360,"x_min":21,"x_max":332,"o":"m 21 322 l 42 428 l 332 428 l 311 322 l 21 322 z "},"®":{"ha":1153,"x_min":67,"x_max":1086,"o":"m 393 201 l 393 797 l 556 797 q 716 754 660 797 q 772 622 772 711 q 748 523 772 563 q 674 460 724 483 l 807 201 l 699 201 l 585 438 l 492 438 l 492 201 l 393 201 m 550 513 q 638 538 606 513 q 669 618 669 564 q 640 693 669 669 q 550 717 611 717 l 490 717 l 490 513 l 550 513 m 576 -14 q 365 26 458 -14 q 204 138 271 67 q 102 300 138 208 q 67 496 67 392 q 106 703 67 610 q 215 864 146 796 q 378 969 285 932 q 576 1006 471 1006 q 783 967 689 1006 q 944 858 876 928 q 1049 696 1013 789 q 1086 496 1086 603 q 1048 292 1086 385 q 941 130 1010 199 q 779 24 872 61 q 576 -14 686 -14 m 576 60 q 751 93 672 60 q 888 186 831 126 q 976 325 944 246 q 1007 496 1007 404 q 975 670 1007 590 q 885 808 943 750 q 748 899 826 867 q 576 932 669 932 q 401 899 481 932 q 264 806 321 865 q 176 667 207 746 q 144 496 144 588 q 177 318 144 399 q 269 180 210 238 q 406 91 328 122 q 576 60 485 60 z "},"¯":{"ha":549,"x_min":128,"x_max":703,"o":"m 128 1056 l 147 1140 l 703 1140 l 685 1056 l 128 1056 z "},"°":{"ha":507,"x_min":63,"x_max":444,"o":"m 253 632 q 154 655 197 632 q 87 719 111 678 q 63 818 63 761 q 88 918 63 876 q 156 982 113 960 q 253 1004 199 1004 q 351 981 308 1004 q 419 917 394 958 q 444 818 444 875 q 419 719 444 761 q 351 654 394 676 q 253 632 307 632 m 254 704 q 334 735 304 704 q 364 818 364 767 q 335 901 364 869 q 254 932 306 932 q 172 899 200 932 q 143 818 143 867 q 174 735 143 765 q 254 704 206 704 z "},"±":{"ha":597,"x_min":56,"x_max":568,"o":"m 56 0 l 56 94 l 568 94 l 568 0 l 56 0 m 360 563 l 567 563 l 567 468 l 360 468 l 360 190 l 264 190 l 264 468 l 56 468 l 56 563 l 264 563 l 264 842 l 360 842 l 360 563 z "},"²":{"ha":386,"x_min":51,"x_max":444,"o":"m 51 578 l 64 651 l 233 838 q 297 911 269 876 q 339 979 324 946 q 354 1046 354 1013 q 338 1095 354 1078 q 293 1113 321 1113 q 239 1097 265 1113 q 189 1061 213 1082 l 157 1124 q 229 1172 189 1156 q 314 1188 269 1188 q 385 1172 356 1188 q 429 1126 414 1156 q 444 1058 444 1097 q 423 963 444 1008 q 367 876 401 917 q 294 796 332 835 l 161 656 l 372 656 l 356 578 l 51 578 z "},"³":{"ha":386,"x_min":61,"x_max":443,"o":"m 186 567 q 115 575 146 567 q 61 597 83 583 l 61 682 q 117 653 86 664 q 188 643 147 643 q 275 677 243 643 q 307 763 307 711 q 283 828 307 807 q 221 850 260 850 l 176 850 l 190 921 l 232 921 q 299 938 272 921 q 341 981 326 954 q 356 1042 356 1008 q 339 1093 356 1075 q 292 1111 322 1111 q 238 1100 263 1111 q 186 1069 213 1089 l 153 1131 q 224 1173 185 1158 q 307 1188 263 1188 q 383 1170 353 1188 q 428 1124 413 1153 q 443 1056 443 1094 q 411 953 443 996 q 322 890 379 910 l 321 885 q 373 842 353 871 q 393 764 393 813 q 368 661 393 706 q 297 592 343 617 q 186 567 250 567 z "},"´":{"ha":350,"x_min":157,"x_max":440,"o":"m 158 854 q 218 928 190 892 q 269 999 246 965 q 310 1064 293 1033 l 440 1064 l 439 1053 q 398 1003 425 1032 q 339 943 371 974 q 278 885 307 913 q 228 842 249 858 l 157 842 l 158 854 z "},"μ":{"ha":608,"x_min":-68,"x_max":571,"o":"m -68 -324 l 160 744 l 267 744 l 165 269 q 151 168 153 210 q 161 105 149 126 q 204 83 174 83 q 280 113 247 83 q 338 203 313 143 q 382 357 363 264 l 464 744 l 571 744 l 451 179 q 449 106 442 131 q 482 82 457 82 q 504 84 493 82 q 525 89 515 86 l 506 -1 q 489 -8 500 -4 q 465 -12 478 -11 q 443 -14 453 -14 q 381 -3 404 -14 q 348 31 358 7 q 336 94 338 54 l 332 94 q 302 48 317 68 q 272 14 288 28 q 240 -7 257 0 q 201 -14 222 -14 q 147 3 167 -14 q 118 54 126 19 l 114 54 q 106 6 110 29 q 97 -40 101 -18 q 89 -81 93 -61 l 38 -324 l -68 -324 z "},"¶":{"ha":633,"x_min":113,"x_max":561,"o":"m 321 426 q 301 420 313 422 q 275 418 290 418 q 197 444 228 418 q 147 516 165 471 q 120 618 128 561 q 113 735 113 675 q 125 865 113 806 q 163 966 138 924 q 227 1032 189 1008 q 317 1056 265 1056 l 561 1056 l 561 -176 l 488 -176 l 488 983 l 396 983 l 396 -176 l 322 -176 l 321 426 z "},"·":{"ha":285,"x_min":88,"x_max":233,"o":"m 146 404 q 103 419 119 404 q 88 464 88 435 q 111 542 88 508 q 178 575 135 575 q 219 558 204 575 q 233 514 233 542 q 208 435 233 467 q 146 404 182 404 z "},"¸":{"ha":261,"x_min":-103,"x_max":158,"o":"m -15 -333 q -61 -331 -39 -333 q -103 -324 -83 -329 l -103 -253 q -73 -260 -92 -257 q -28 -262 -54 -262 q 24 -253 3 -262 q 58 -224 46 -243 q 69 -182 69 -206 q 46 -134 69 -151 q -26 -111 22 -117 l 44 0 l 111 0 l 63 -71 q 133 -108 107 -81 q 158 -176 158 -135 q 135 -262 158 -226 q 74 -315 113 -297 q -15 -333 35 -333 z "},"¹":{"ha":386,"x_min":151,"x_max":415,"o":"m 294 1004 q 303 1039 299 1024 q 311 1069 307 1054 q 288 1050 299 1058 q 271 1036 278 1042 l 188 976 l 151 1035 l 336 1172 l 415 1172 l 288 578 l 201 578 l 294 1004 z "},"º":{"ha":386,"x_min":94,"x_max":431,"o":"m 224 532 q 126 575 158 532 q 94 693 94 618 q 107 801 94 747 q 146 901 119 856 q 211 975 172 947 q 301 1003 250 1003 q 394 965 358 1003 q 431 844 431 926 q 418 737 431 792 q 380 635 406 682 q 315 560 354 589 q 224 532 276 532 m 235 604 q 287 626 265 604 q 322 684 308 649 q 342 760 336 719 q 349 838 349 800 q 335 906 349 882 q 290 931 322 931 q 240 909 261 931 q 205 853 219 888 q 183 777 190 818 q 176 699 176 736 q 190 627 176 650 q 235 604 204 604 z "},"»":{"ha":583,"x_min":-10,"x_max":539,"o":"m 306 85 l 233 132 l 421 365 l 326 608 l 408 644 l 539 371 l 536 353 l 306 85 m 63 85 l -10 132 l 178 365 l 83 608 l 165 644 l 294 371 l 293 353 l 63 85 z "},"¼":{"ha":899,"x_min":57,"x_max":882,"o":"m 57 0 l 789 992 l 882 992 l 151 0 l 57 0 m 267 824 q 275 858 271 843 q 283 889 279 874 q 260 869 271 878 q 243 856 250 861 l 160 796 l 124 854 l 308 992 l 388 992 l 260 397 l 174 397 l 267 824 m 642 0 l 668 131 l 467 131 l 478 194 l 764 599 l 853 599 l 768 204 l 832 204 l 817 131 l 754 131 l 725 0 l 642 0 m 560 204 l 683 204 l 722 382 q 734 435 729 411 q 744 478 739 460 q 727 449 736 464 q 710 420 718 435 q 690 390 701 406 l 560 204 z "},"½":{"ha":960,"x_min":49,"x_max":906,"o":"m 49 0 l 781 992 l 874 992 l 143 0 l 49 0 m 267 824 q 275 858 271 843 q 283 889 279 874 q 260 869 271 878 q 243 856 250 861 l 160 796 l 124 854 l 308 992 l 388 992 l 260 397 l 174 397 l 267 824 m 513 0 l 525 74 l 694 260 q 758 333 731 299 q 800 401 785 368 q 815 468 815 435 q 799 517 815 500 q 754 535 782 535 q 700 519 726 535 q 650 483 674 504 l 618 546 q 690 594 650 578 q 775 610 731 610 q 846 594 817 610 q 890 549 875 578 q 906 481 906 519 q 884 385 906 431 q 828 298 863 339 q 756 218 793 257 l 622 78 l 833 78 l 817 0 l 513 0 z "},"¾":{"ha":907,"x_min":32,"x_max":899,"o":"m 157 386 q 85 394 117 386 q 32 417 54 403 l 32 501 q 88 473 57 483 q 158 463 118 463 q 246 497 214 463 q 278 582 278 531 q 254 648 278 626 q 192 669 231 669 l 147 669 l 161 740 l 203 740 q 270 757 243 740 q 312 801 297 774 q 326 861 326 828 q 310 913 326 894 q 263 931 293 931 q 208 919 233 931 q 157 889 183 908 l 124 950 q 194 992 156 978 q 278 1007 233 1007 q 353 990 324 1007 q 399 943 383 972 q 414 875 414 914 q 382 772 414 815 q 293 710 350 729 l 292 704 q 344 661 324 690 q 364 583 364 632 q 339 481 364 525 q 267 411 314 436 q 157 386 221 386 m 74 0 l 806 992 l 899 992 l 168 0 l 74 0 m 650 0 l 676 131 l 475 131 l 486 194 l 772 599 l 861 599 l 776 204 l 840 204 l 825 131 l 763 131 l 733 0 l 650 0 m 568 204 l 692 204 l 731 382 q 742 435 738 411 q 753 478 747 460 q 735 449 744 464 q 718 420 726 435 q 699 390 710 406 l 568 204 z "},"¿":{"ha":399,"x_min":-65,"x_max":375,"o":"m 310 461 q 280 347 296 394 q 242 261 264 300 q 183 179 219 222 q 111 92 143 131 q 62 13 79 53 q 44 -82 44 -28 q 66 -148 44 -126 q 124 -169 88 -169 q 192 -154 161 -169 q 253 -119 224 -139 l 278 -204 q 190 -252 235 -236 q 101 -268 146 -268 q -22 -224 21 -268 q -65 -104 -65 -181 q -44 8 -65 -43 q 11 107 -24 60 q 88 201 46 154 q 154 285 129 249 q 195 362 179 321 q 221 461 211 403 l 310 461 m 315 749 q 359 733 343 749 q 375 689 375 718 q 351 612 375 646 q 283 578 328 578 q 244 594 258 578 q 229 639 229 611 q 254 717 229 686 q 315 749 279 749 z "},"À":{"ha":561,"x_min":-90,"x_max":488,"o":"m -90 0 l 325 996 l 467 996 l 471 0 l 356 0 l 357 315 l 160 315 l 31 0 l -90 0 m 197 417 l 361 417 l 367 765 q 368 828 367 799 q 372 883 369 858 l 368 883 q 353 831 363 860 q 331 765 344 801 l 197 417 m 418 1100 q 376 1163 400 1125 q 330 1241 351 1201 q 299 1310 308 1281 l 299 1321 l 424 1321 q 441 1255 432 1289 q 462 1186 450 1221 q 488 1114 474 1151 l 486 1100 l 418 1100 z "},"Á":{"ha":561,"x_min":-90,"x_max":631,"o":"m -90 0 l 325 996 l 467 996 l 471 0 l 356 0 l 357 315 l 160 315 l 31 0 l -90 0 m 197 417 l 361 417 l 367 765 q 368 828 367 799 q 372 883 369 858 l 368 883 q 353 831 363 860 q 331 765 344 801 l 197 417 m 349 1111 q 408 1185 381 1149 q 460 1256 436 1222 q 500 1321 483 1290 l 631 1321 l 629 1310 q 588 1260 615 1289 q 529 1200 561 1231 q 468 1142 497 1169 q 418 1099 439 1115 l 347 1099 l 349 1111 z "},"Â":{"ha":561,"x_min":-90,"x_max":572,"o":"m -90 0 l 325 996 l 467 996 l 471 0 l 356 0 l 357 315 l 160 315 l 31 0 l -90 0 m 197 417 l 361 417 l 367 765 q 368 828 367 799 q 372 883 369 858 l 368 883 q 353 831 363 860 q 331 765 344 801 l 197 417 m 238 1113 q 299 1183 269 1147 q 355 1253 329 1218 q 401 1321 381 1289 l 497 1321 q 516 1256 503 1296 q 545 1177 529 1217 q 572 1113 561 1138 l 569 1099 l 510 1099 q 484 1137 497 1117 q 458 1180 471 1157 q 432 1228 444 1203 q 360 1156 394 1189 q 297 1099 326 1122 l 235 1099 l 238 1113 z "},"Ã":{"ha":561,"x_min":-90,"x_max":632,"o":"m -90 0 l 325 996 l 467 996 l 471 0 l 356 0 l 357 315 l 160 315 l 31 0 l -90 0 m 197 417 l 361 417 l 367 765 q 368 828 367 799 q 372 883 369 858 l 368 883 q 353 831 363 860 q 331 765 344 801 l 197 417 m 218 1101 q 248 1195 231 1157 q 291 1254 265 1233 q 353 1275 317 1275 q 402 1263 381 1275 q 440 1234 424 1250 q 473 1206 457 1218 q 506 1193 489 1193 q 540 1211 528 1193 q 564 1276 553 1229 l 632 1276 q 601 1174 621 1213 q 558 1119 582 1136 q 504 1103 533 1103 q 456 1115 478 1103 q 417 1144 435 1128 q 384 1174 400 1161 q 350 1186 368 1186 q 311 1165 326 1186 q 286 1101 296 1143 l 218 1101 z "},"Ä":{"ha":561,"x_min":-90,"x_max":586,"o":"m -90 0 l 325 996 l 467 996 l 471 0 l 356 0 l 357 315 l 160 315 l 31 0 l -90 0 m 197 417 l 361 417 l 367 765 q 368 828 367 799 q 372 883 369 858 l 368 883 q 353 831 363 860 q 331 765 344 801 l 197 417 m 515 1133 q 479 1146 492 1133 q 467 1185 467 1158 q 486 1248 467 1221 q 540 1275 506 1275 q 574 1263 563 1275 q 586 1226 586 1250 q 566 1160 586 1186 q 515 1133 546 1133 m 307 1133 q 272 1146 285 1133 q 260 1185 260 1158 q 279 1248 260 1221 q 333 1275 299 1275 q 357 1269 347 1275 q 372 1253 367 1264 q 378 1226 378 1243 q 358 1160 378 1186 q 307 1133 339 1133 z "},"Å":{"ha":561,"x_min":-90,"x_max":564,"o":"m -90 0 l 325 996 l 467 996 l 471 0 l 356 0 l 357 315 l 160 315 l 31 0 l -90 0 m 197 417 l 361 417 l 367 765 q 368 828 367 799 q 372 883 369 858 l 368 883 q 353 831 363 860 q 331 765 344 801 l 197 417 m 424 1088 q 320 1125 357 1088 q 283 1226 283 1163 q 321 1326 283 1288 q 424 1364 358 1364 q 525 1326 488 1364 q 564 1229 563 1289 q 526 1127 564 1167 q 424 1088 489 1088 m 425 1150 q 480 1171 460 1150 q 500 1226 500 1192 q 481 1281 500 1260 q 425 1303 461 1303 q 369 1281 389 1303 q 349 1226 349 1260 q 367 1171 349 1192 q 425 1150 386 1150 z "},"Æ":{"ha":771,"x_min":-93,"x_max":832,"o":"m -93 0 l 378 992 l 832 992 l 811 892 l 563 892 l 494 568 l 728 568 l 706 468 l 472 468 l 394 100 l 643 100 l 622 0 l 263 0 l 331 317 l 172 317 l 25 0 l -93 0 m 218 418 l 353 418 l 453 890 l 435 890 l 218 418 z "},"Ç":{"ha":536,"x_min":50,"x_max":639,"o":"m 272 -14 q 149 22 199 -14 q 75 129 100 58 q 50 306 50 200 q 67 484 50 389 q 117 672 83 579 q 203 840 151 764 q 323 961 254 915 q 478 1007 392 1007 q 567 995 526 1007 q 639 957 607 983 l 581 867 q 532 896 558 886 q 476 906 506 906 q 363 863 413 906 q 275 753 313 821 q 213 605 238 685 q 177 449 189 525 q 165 315 165 372 q 197 141 165 196 q 297 86 229 86 q 362 96 329 86 q 429 119 394 106 l 429 18 q 351 -6 390 1 q 272 -14 311 -14 m 163 -333 q 117 -331 139 -333 q 75 -324 94 -329 l 75 -253 q 105 -260 86 -257 q 150 -262 124 -262 q 202 -253 181 -262 q 235 -224 224 -243 q 247 -182 247 -206 q 224 -134 247 -151 q 151 -111 200 -117 l 222 0 l 289 0 l 240 -71 q 310 -108 285 -81 q 336 -176 336 -135 q 313 -262 336 -226 q 251 -315 290 -297 q 163 -333 213 -333 z "},"È":{"ha":508,"x_min":0,"x_max":569,"o":"m 0 0 l 210 992 l 569 992 l 549 892 l 300 892 l 232 568 l 464 568 l 442 468 l 210 468 l 132 100 l 381 100 l 360 0 l 0 0 m 394 1099 q 352 1162 376 1124 q 306 1240 328 1200 q 275 1308 285 1279 l 275 1319 l 400 1319 q 417 1253 408 1288 q 438 1185 426 1219 q 464 1113 450 1150 l 463 1099 l 394 1099 z "},"É":{"ha":508,"x_min":0,"x_max":607,"o":"m 0 0 l 210 992 l 569 992 l 549 892 l 300 892 l 232 568 l 464 568 l 442 468 l 210 468 l 132 100 l 381 100 l 360 0 l 0 0 m 325 1110 q 385 1184 357 1147 q 436 1255 413 1221 q 476 1319 460 1289 l 607 1319 l 606 1308 q 565 1258 592 1288 q 506 1199 538 1229 q 444 1141 474 1168 q 394 1097 415 1114 l 324 1097 l 325 1110 z "},"Ê":{"ha":508,"x_min":0,"x_max":569,"o":"m 0 0 l 210 992 l 569 992 l 549 892 l 300 892 l 232 568 l 464 568 l 442 468 l 210 468 l 132 100 l 381 100 l 360 0 l 0 0 m 235 1085 q 297 1155 267 1119 q 352 1226 326 1190 q 399 1293 378 1261 l 494 1293 q 513 1228 500 1268 q 542 1149 526 1189 q 569 1085 558 1110 l 567 1071 l 507 1071 q 481 1109 494 1089 q 455 1152 468 1129 q 429 1200 442 1175 q 358 1128 392 1161 q 294 1071 324 1094 l 232 1071 l 235 1085 z "},"Ë":{"ha":508,"x_min":0,"x_max":575,"o":"m 0 0 l 210 992 l 569 992 l 549 892 l 300 892 l 232 568 l 464 568 l 442 468 l 210 468 l 132 100 l 381 100 l 360 0 l 0 0 m 504 1106 q 468 1118 481 1106 q 456 1157 456 1131 q 475 1220 456 1193 q 529 1247 494 1247 q 563 1235 551 1247 q 575 1199 575 1222 q 555 1132 575 1158 q 504 1106 535 1106 m 296 1106 q 261 1118 274 1106 q 249 1157 249 1131 q 268 1220 249 1193 q 322 1247 288 1247 q 346 1242 336 1247 q 361 1226 356 1236 q 367 1199 367 1215 q 347 1132 367 1158 q 296 1106 328 1106 z "},"Ì":{"ha":361,"x_min":-71,"x_max":460,"o":"m -71 0 l -57 63 l 53 85 l 226 907 l 126 929 l 139 992 l 460 992 l 446 929 l 338 907 l 164 85 l 263 63 l 250 0 l -71 0 m 318 1099 q 276 1162 300 1124 q 230 1240 251 1200 q 199 1308 208 1279 l 199 1319 l 324 1319 q 341 1253 332 1288 q 362 1185 350 1219 q 388 1113 374 1150 l 386 1099 l 318 1099 z "},"Í":{"ha":361,"x_min":-71,"x_max":531,"o":"m -71 0 l -57 63 l 53 85 l 226 907 l 126 929 l 139 992 l 460 992 l 446 929 l 338 907 l 164 85 l 263 63 l 250 0 l -71 0 m 249 1110 q 308 1184 281 1147 q 360 1255 336 1221 q 400 1319 383 1289 l 531 1319 l 529 1308 q 488 1258 515 1288 q 429 1199 461 1229 q 368 1141 397 1168 q 318 1097 339 1114 l 247 1097 l 249 1110 z "},"Î":{"ha":361,"x_min":-71,"x_max":486,"o":"m -71 0 l -57 63 l 53 85 l 226 907 l 126 929 l 139 992 l 460 992 l 446 929 l 338 907 l 164 85 l 263 63 l 250 0 l -71 0 m 151 1114 q 213 1184 183 1149 q 269 1255 243 1219 q 315 1322 294 1290 l 411 1322 q 430 1258 417 1297 q 459 1178 443 1218 q 486 1114 475 1139 l 483 1100 l 424 1100 q 398 1138 411 1118 q 372 1181 385 1158 q 346 1229 358 1204 q 274 1157 308 1190 q 211 1100 240 1124 l 149 1100 l 151 1114 z "},"Ï":{"ha":361,"x_min":-71,"x_max":499,"o":"m -71 0 l -57 63 l 53 85 l 226 907 l 126 929 l 139 992 l 460 992 l 446 929 l 338 907 l 164 85 l 263 63 l 250 0 l -71 0 m 428 1135 q 392 1147 404 1135 q 379 1186 379 1160 q 399 1249 379 1222 q 453 1276 418 1276 q 487 1264 475 1276 q 499 1228 499 1251 q 478 1161 499 1188 q 428 1135 458 1135 m 219 1135 q 185 1147 197 1135 q 172 1186 172 1160 q 192 1249 172 1222 q 246 1276 211 1276 q 269 1271 260 1276 q 285 1255 279 1265 q 290 1228 290 1244 q 271 1161 290 1188 q 219 1135 251 1135 z "},"Ð":{"ha":646,"x_min":0,"x_max":625,"o":"m 32 469 l 51 561 l 347 561 l 328 469 l 32 469 m 0 0 l 210 992 l 372 992 q 560 917 496 992 q 625 699 625 843 q 609 511 625 608 q 559 323 593 414 q 471 159 525 232 q 341 43 417 86 q 164 0 265 0 l 0 0 m 181 101 q 303 138 250 101 q 395 238 357 175 q 458 377 433 300 q 495 535 483 454 q 507 692 507 617 q 470 842 507 794 q 360 890 433 890 l 300 890 l 132 101 l 181 101 z "},"Ñ":{"ha":713,"x_min":0,"x_max":744,"o":"m 0 0 l 210 992 l 342 992 l 471 201 l 475 201 q 492 300 483 251 q 510 390 501 349 q 524 458 518 431 l 636 992 l 744 992 l 533 0 l 406 0 l 274 803 l 269 803 q 256 720 264 764 q 240 635 249 676 q 225 561 232 594 q 214 508 218 528 l 107 0 l 0 0 m 290 1074 q 320 1167 303 1129 q 363 1226 338 1206 q 425 1247 389 1247 q 474 1235 453 1247 q 513 1206 496 1222 q 545 1178 529 1190 q 578 1165 561 1165 q 613 1183 600 1165 q 636 1249 625 1201 l 704 1249 q 674 1147 693 1185 q 630 1092 654 1108 q 576 1075 606 1075 q 528 1088 550 1075 q 490 1117 507 1100 q 456 1146 472 1133 q 422 1158 440 1158 q 383 1137 399 1158 q 358 1074 368 1115 l 290 1074 z "},"Ò":{"ha":689,"x_min":49,"x_max":668,"o":"m 265 -14 q 144 17 193 -14 q 72 114 96 49 q 49 278 49 179 q 60 435 49 353 q 93 599 71 518 q 149 754 115 681 q 228 884 183 828 q 330 973 274 940 q 454 1006 386 1006 q 615 936 563 1006 q 668 725 668 867 q 658 581 668 660 q 628 418 649 501 q 575 258 607 335 q 498 119 543 181 q 395 22 453 58 q 265 -14 338 -14 m 274 88 q 360 119 321 88 q 430 203 399 150 q 485 324 461 257 q 524 463 508 390 q 547 603 539 535 q 554 726 554 671 q 527 862 554 818 q 444 906 500 906 q 353 872 393 906 q 281 783 313 839 q 228 658 250 726 q 192 518 206 589 q 171 384 178 447 q 164 276 164 321 q 176 168 164 210 q 213 107 189 126 q 274 88 238 88 m 483 1099 q 441 1162 465 1124 q 395 1240 417 1200 q 364 1308 374 1279 l 364 1319 l 489 1319 q 506 1253 497 1288 q 527 1185 515 1219 q 553 1113 539 1150 l 551 1099 l 483 1099 z "},"Ó":{"ha":689,"x_min":49,"x_max":696,"o":"m 265 -14 q 144 17 193 -14 q 72 114 96 49 q 49 278 49 179 q 60 435 49 353 q 93 599 71 518 q 149 754 115 681 q 228 884 183 828 q 330 973 274 940 q 454 1006 386 1006 q 615 936 563 1006 q 668 725 668 867 q 658 581 668 660 q 628 418 649 501 q 575 258 607 335 q 498 119 543 181 q 395 22 453 58 q 265 -14 338 -14 m 274 88 q 360 119 321 88 q 430 203 399 150 q 485 324 461 257 q 524 463 508 390 q 547 603 539 535 q 554 726 554 671 q 527 862 554 818 q 444 906 500 906 q 353 872 393 906 q 281 783 313 839 q 228 658 250 726 q 192 518 206 589 q 171 384 178 447 q 164 276 164 321 q 176 168 164 210 q 213 107 189 126 q 274 88 238 88 m 414 1110 q 474 1184 446 1147 q 525 1255 501 1221 q 565 1319 549 1289 l 696 1319 l 694 1308 q 653 1258 681 1288 q 594 1199 626 1229 q 533 1141 563 1168 q 483 1097 504 1114 l 413 1097 l 414 1110 z "},"Ô":{"ha":689,"x_min":49,"x_max":668,"o":"m 265 -14 q 144 17 193 -14 q 72 114 96 49 q 49 278 49 179 q 60 435 49 353 q 93 599 71 518 q 149 754 115 681 q 228 884 183 828 q 330 973 274 940 q 454 1006 386 1006 q 615 936 563 1006 q 668 725 668 867 q 658 581 668 660 q 628 418 649 501 q 575 258 607 335 q 498 119 543 181 q 395 22 453 58 q 265 -14 338 -14 m 274 88 q 360 119 321 88 q 430 203 399 150 q 485 324 461 257 q 524 463 508 390 q 547 603 539 535 q 554 726 554 671 q 527 862 554 818 q 444 906 500 906 q 353 872 393 906 q 281 783 313 839 q 228 658 250 726 q 192 518 206 589 q 171 384 178 447 q 164 276 164 321 q 176 168 164 210 q 213 107 189 126 q 274 88 238 88 m 294 1085 q 356 1155 326 1119 q 412 1226 386 1190 q 458 1293 438 1261 l 554 1293 q 573 1228 560 1268 q 602 1149 586 1189 q 629 1085 618 1110 l 626 1071 l 567 1071 q 541 1109 554 1089 q 515 1152 528 1129 q 489 1200 501 1175 q 417 1128 451 1161 q 354 1071 383 1094 l 292 1071 l 294 1085 z "},"Õ":{"ha":689,"x_min":49,"x_max":690,"o":"m 265 -14 q 144 17 193 -14 q 72 114 96 49 q 49 278 49 179 q 60 435 49 353 q 93 599 71 518 q 149 754 115 681 q 228 884 183 828 q 330 973 274 940 q 454 1006 386 1006 q 615 936 563 1006 q 668 725 668 867 q 658 581 668 660 q 628 418 649 501 q 575 258 607 335 q 498 119 543 181 q 395 22 453 58 q 265 -14 338 -14 m 274 88 q 360 119 321 88 q 430 203 399 150 q 485 324 461 257 q 524 463 508 390 q 547 603 539 535 q 554 726 554 671 q 527 862 554 818 q 444 906 500 906 q 353 872 393 906 q 281 783 313 839 q 228 658 250 726 q 192 518 206 589 q 171 384 178 447 q 164 276 164 321 q 176 168 164 210 q 213 107 189 126 q 274 88 238 88 m 276 1074 q 306 1167 289 1129 q 349 1226 324 1206 q 411 1247 375 1247 q 460 1235 439 1247 q 499 1206 482 1222 q 531 1178 515 1190 q 564 1165 547 1165 q 599 1183 586 1165 q 622 1249 611 1201 l 690 1249 q 660 1147 679 1185 q 616 1092 640 1108 q 563 1075 592 1075 q 515 1088 536 1075 q 476 1117 493 1100 q 442 1146 458 1133 q 408 1158 426 1158 q 369 1137 385 1158 q 344 1074 354 1115 l 276 1074 z "},"Ö":{"ha":689,"x_min":49,"x_max":683,"o":"m 265 -14 q 144 17 193 -14 q 72 114 96 49 q 49 278 49 179 q 60 435 49 353 q 93 599 71 518 q 149 754 115 681 q 228 884 183 828 q 330 973 274 940 q 454 1006 386 1006 q 615 936 563 1006 q 668 725 668 867 q 658 581 668 660 q 628 418 649 501 q 575 258 607 335 q 498 119 543 181 q 395 22 453 58 q 265 -14 338 -14 m 274 88 q 360 119 321 88 q 430 203 399 150 q 485 324 461 257 q 524 463 508 390 q 547 603 539 535 q 554 726 554 671 q 527 862 554 818 q 444 906 500 906 q 353 872 393 906 q 281 783 313 839 q 228 658 250 726 q 192 518 206 589 q 171 384 178 447 q 164 276 164 321 q 176 168 164 210 q 213 107 189 126 q 274 88 238 88 m 613 1133 q 576 1146 589 1133 q 564 1185 564 1158 q 583 1248 564 1221 q 638 1275 603 1275 q 672 1263 660 1275 q 683 1226 683 1250 q 663 1160 683 1186 q 613 1133 643 1133 m 404 1133 q 369 1146 382 1133 q 357 1185 357 1158 q 376 1248 357 1221 q 431 1275 396 1275 q 454 1269 444 1275 q 469 1253 464 1264 q 475 1226 475 1243 q 456 1160 475 1186 q 404 1133 436 1133 z "},"×":{"ha":597,"x_min":58,"x_max":568,"o":"m 501 746 l 568 682 l 378 490 l 564 301 l 500 238 l 311 425 l 122 236 l 58 301 l 246 490 l 58 678 l 122 743 l 311 556 l 501 746 z "},"Ø":{"ha":689,"x_min":-14,"x_max":733,"o":"m 46 -67 l -14 -32 l 76 111 q 56 185 63 143 q 49 278 49 226 q 60 435 49 353 q 93 599 71 518 q 149 754 115 681 q 228 884 183 828 q 331 973 274 940 q 456 1006 388 1006 q 541 990 504 1006 q 604 942 578 974 l 672 1051 l 733 1014 l 646 876 q 663 808 657 846 q 668 725 668 769 q 658 581 668 660 q 628 418 649 501 q 575 258 607 335 q 498 119 543 181 q 395 22 453 58 q 265 -14 338 -14 q 181 1 218 -14 q 119 47 144 17 l 46 -67 m 274 88 q 356 116 318 88 q 424 193 393 144 q 476 304 454 242 q 515 434 499 367 q 540 567 531 501 q 550 688 549 632 q 551 713 551 701 q 550 735 551 725 l 182 151 q 219 103 196 118 q 274 88 242 88 m 539 838 q 502 889 525 872 q 444 906 479 906 q 356 875 396 906 q 287 792 317 844 q 235 676 257 740 q 198 546 213 613 q 176 419 183 479 q 167 314 168 358 q 165 280 165 296 q 167 249 165 264 l 539 838 z "},"Ù":{"ha":656,"x_min":46,"x_max":692,"o":"m 244 -14 q 138 10 182 -14 q 69 82 93 35 q 46 194 46 129 q 49 250 46 219 q 60 311 53 281 l 204 992 l 315 992 l 169 306 q 161 254 164 279 q 158 208 158 229 q 184 117 158 147 q 258 88 210 88 q 339 112 306 88 q 395 188 372 136 q 436 321 418 240 l 581 992 l 692 992 l 544 310 q 488 138 524 211 q 393 26 451 65 q 244 -14 335 -14 m 467 1099 q 424 1162 449 1124 q 378 1240 400 1200 q 347 1308 357 1279 l 347 1319 l 472 1319 q 490 1253 481 1288 q 510 1185 499 1219 q 536 1113 522 1150 l 535 1099 l 467 1099 z "},"Ú":{"ha":656,"x_min":46,"x_max":692,"o":"m 244 -14 q 138 10 182 -14 q 69 82 93 35 q 46 194 46 129 q 49 250 46 219 q 60 311 53 281 l 204 992 l 315 992 l 169 306 q 161 254 164 279 q 158 208 158 229 q 184 117 158 147 q 258 88 210 88 q 339 112 306 88 q 395 188 372 136 q 436 321 418 240 l 581 992 l 692 992 l 544 310 q 488 138 524 211 q 393 26 451 65 q 244 -14 335 -14 m 397 1110 q 457 1184 429 1147 q 508 1255 485 1221 q 549 1319 532 1289 l 679 1319 l 678 1308 q 637 1258 664 1288 q 578 1199 610 1229 q 517 1141 546 1168 q 467 1097 488 1114 l 396 1097 l 397 1110 z "},"Û":{"ha":656,"x_min":46,"x_max":692,"o":"m 244 -14 q 138 10 182 -14 q 69 82 93 35 q 46 194 46 129 q 49 250 46 219 q 60 311 53 281 l 204 992 l 315 992 l 169 306 q 161 254 164 279 q 158 208 158 229 q 184 117 158 147 q 258 88 210 88 q 339 112 306 88 q 395 188 372 136 q 436 321 418 240 l 581 992 l 692 992 l 544 310 q 488 138 524 211 q 393 26 451 65 q 244 -14 335 -14 m 292 1085 q 353 1155 324 1119 q 409 1226 383 1190 q 456 1293 435 1261 l 551 1293 q 570 1228 557 1268 q 599 1149 583 1189 q 626 1085 615 1110 l 624 1071 l 564 1071 q 538 1109 551 1089 q 512 1152 525 1129 q 486 1200 499 1175 q 415 1128 449 1161 q 351 1071 381 1094 l 289 1071 l 292 1085 z "},"Ü":{"ha":656,"x_min":46,"x_max":692,"o":"m 244 -14 q 138 10 182 -14 q 69 82 93 35 q 46 194 46 129 q 49 250 46 219 q 60 311 53 281 l 204 992 l 315 992 l 169 306 q 161 254 164 279 q 158 208 158 229 q 184 117 158 147 q 258 88 210 88 q 339 112 306 88 q 395 188 372 136 q 436 321 418 240 l 581 992 l 692 992 l 544 310 q 488 138 524 211 q 393 26 451 65 q 244 -14 335 -14 m 596 1133 q 560 1146 572 1133 q 547 1185 547 1158 q 567 1248 547 1221 q 621 1275 586 1275 q 655 1263 643 1275 q 667 1226 667 1250 q 647 1160 667 1186 q 596 1133 626 1133 m 388 1133 q 353 1146 365 1133 q 340 1185 340 1158 q 360 1248 340 1221 q 414 1275 379 1275 q 438 1269 428 1275 q 453 1253 447 1264 q 458 1226 458 1243 q 439 1160 458 1186 q 388 1133 419 1133 z "},"Ý":{"ha":494,"x_min":101,"x_max":614,"o":"m 101 0 l 182 382 l 118 992 l 233 992 l 268 532 l 496 992 l 614 992 l 294 385 l 213 0 l 101 0 m 318 1110 q 378 1184 350 1147 q 429 1255 406 1221 q 469 1319 453 1289 l 600 1319 l 599 1308 q 558 1258 585 1288 q 499 1199 531 1229 q 438 1141 467 1168 q 388 1097 408 1114 l 317 1097 l 318 1110 z "},"Þ":{"ha":556,"x_min":0,"x_max":550,"o":"m 0 0 l 210 992 l 321 992 l 285 819 l 321 819 q 447 793 396 819 q 524 719 497 767 q 550 604 550 671 q 527 452 550 522 q 461 329 504 382 q 357 247 418 276 q 218 217 296 217 l 156 217 l 111 0 l 0 0 m 218 315 q 338 350 289 315 q 410 447 386 385 q 435 589 435 508 q 403 687 435 654 q 306 719 371 719 l 264 719 l 178 315 l 218 315 z "},"ß":{"ha":572,"x_min":-187,"x_max":578,"o":"m -115 -333 q -153 -331 -136 -333 q -187 -324 -171 -329 l -187 -226 q -159 -233 -175 -231 q -128 -236 -143 -236 q -62 -197 -83 -236 q -25 -75 -42 -157 l 161 803 q 211 945 179 888 q 291 1033 243 1003 q 406 1063 339 1063 q 533 1018 489 1063 q 578 903 578 974 q 567 826 578 861 q 533 758 556 790 q 478 690 511 725 q 416 615 439 649 q 393 536 393 581 q 400 496 393 517 q 418 453 407 475 q 442 406 429 431 q 482 326 465 368 q 499 226 499 283 q 472 101 499 156 q 394 17 444 47 q 272 -14 343 -14 q 202 -5 235 -14 q 146 19 169 4 l 160 124 q 217 92 188 101 q 275 82 247 82 q 358 119 328 82 q 388 215 388 156 q 381 264 388 240 q 364 313 375 288 q 336 367 353 338 q 296 447 310 411 q 282 522 282 483 q 292 587 282 556 q 322 647 301 618 q 369 706 342 676 q 422 765 400 738 q 456 824 444 793 q 468 892 468 854 q 449 947 468 928 q 397 967 429 967 q 340 948 365 967 q 298 892 315 929 q 268 797 281 854 l 79 -83 q 44 -210 64 -153 q -13 -300 24 -267 q -115 -333 -50 -333 z "},"à":{"ha":588,"x_min":35,"x_max":585,"o":"m 181 -14 q 101 10 133 -14 q 51 81 68 35 q 35 193 35 126 q 46 331 35 256 q 81 481 57 406 q 140 619 104 557 q 224 720 175 682 q 335 758 272 758 q 391 747 367 758 q 433 710 415 735 q 458 650 450 686 l 463 650 l 493 744 l 585 744 l 426 0 l 340 0 l 349 106 l 346 106 q 297 42 322 68 q 242 1 271 15 q 181 -14 214 -14 m 215 81 q 296 118 263 81 q 353 214 329 156 q 392 333 376 272 q 417 453 408 400 q 425 553 425 506 q 404 634 425 606 q 347 663 383 663 q 278 631 310 663 q 222 549 246 600 q 181 437 197 499 q 155 314 164 375 q 146 201 146 253 q 163 110 146 140 q 215 81 181 81 m 379 851 q 337 915 361 876 q 291 992 313 953 q 260 1061 269 1032 l 260 1072 l 385 1072 q 402 1006 393 1040 q 423 938 411 972 q 449 865 435 903 l 447 851 l 379 851 z "},"á":{"ha":588,"x_min":35,"x_max":592,"o":"m 181 -14 q 101 10 133 -14 q 51 81 68 35 q 35 193 35 126 q 46 331 35 256 q 81 481 57 406 q 140 619 104 557 q 224 720 175 682 q 335 758 272 758 q 391 747 367 758 q 433 710 415 735 q 458 650 450 686 l 463 650 l 493 744 l 585 744 l 426 0 l 340 0 l 349 106 l 346 106 q 297 42 322 68 q 242 1 271 15 q 181 -14 214 -14 m 215 81 q 296 118 263 81 q 353 214 329 156 q 392 333 376 272 q 417 453 408 400 q 425 553 425 506 q 404 634 425 606 q 347 663 383 663 q 278 631 310 663 q 222 549 246 600 q 181 437 197 499 q 155 314 164 375 q 146 201 146 253 q 163 110 146 140 q 215 81 181 81 m 310 863 q 369 937 342 900 q 421 1008 397 974 q 461 1072 444 1042 l 592 1072 l 590 1061 q 549 1011 576 1040 q 490 951 522 982 q 429 894 458 921 q 379 850 400 867 l 308 850 l 310 863 z "},"â":{"ha":588,"x_min":35,"x_max":585,"o":"m 181 -14 q 101 10 133 -14 q 51 81 68 35 q 35 193 35 126 q 46 331 35 256 q 81 481 57 406 q 140 619 104 557 q 224 720 175 682 q 335 758 272 758 q 391 747 367 758 q 433 710 415 735 q 458 650 450 686 l 463 650 l 493 744 l 585 744 l 426 0 l 340 0 l 349 106 l 346 106 q 297 42 322 68 q 242 1 271 15 q 181 -14 214 -14 m 215 81 q 296 118 263 81 q 353 214 329 156 q 392 333 376 272 q 417 453 408 400 q 425 553 425 506 q 404 634 425 606 q 347 663 383 663 q 278 631 310 663 q 222 549 246 600 q 181 437 197 499 q 155 314 164 375 q 146 201 146 253 q 163 110 146 140 q 215 81 181 81 m 219 858 q 281 928 251 893 q 337 999 311 964 q 383 1067 363 1035 l 479 1067 q 498 1002 485 1042 q 527 923 511 963 q 554 858 543 883 l 551 844 l 492 844 q 466 883 479 863 q 440 926 453 903 q 414 974 426 949 q 342 901 376 935 q 279 844 308 868 l 217 844 l 219 858 z "},"ã":{"ha":588,"x_min":35,"x_max":614,"o":"m 181 -14 q 101 10 133 -14 q 51 81 68 35 q 35 193 35 126 q 46 331 35 256 q 81 481 57 406 q 140 619 104 557 q 224 720 175 682 q 335 758 272 758 q 391 747 367 758 q 433 710 415 735 q 458 650 450 686 l 463 650 l 493 744 l 585 744 l 426 0 l 340 0 l 349 106 l 346 106 q 297 42 322 68 q 242 1 271 15 q 181 -14 214 -14 m 215 81 q 296 118 263 81 q 353 214 329 156 q 392 333 376 272 q 417 453 408 400 q 425 553 425 506 q 404 634 425 606 q 347 663 383 663 q 278 631 310 663 q 222 549 246 600 q 181 437 197 499 q 155 314 164 375 q 146 201 146 253 q 163 110 146 140 q 215 81 181 81 m 200 847 q 230 941 213 903 q 273 1000 247 979 q 335 1021 299 1021 q 384 1008 363 1021 q 422 980 406 996 q 455 951 439 964 q 488 939 471 939 q 522 957 510 939 q 546 1022 535 975 l 614 1022 q 583 920 603 958 q 540 865 564 882 q 486 849 515 849 q 438 861 460 849 q 399 890 417 874 q 366 919 382 907 q 332 932 350 932 q 293 910 308 932 q 268 847 278 889 l 200 847 z "},"ä":{"ha":588,"x_min":35,"x_max":585,"o":"m 181 -14 q 101 10 133 -14 q 51 81 68 35 q 35 193 35 126 q 46 331 35 256 q 81 481 57 406 q 140 619 104 557 q 224 720 175 682 q 335 758 272 758 q 391 747 367 758 q 433 710 415 735 q 458 650 450 686 l 463 650 l 493 744 l 585 744 l 426 0 l 340 0 l 349 106 l 346 106 q 297 42 322 68 q 242 1 271 15 q 181 -14 214 -14 m 215 81 q 296 118 263 81 q 353 214 329 156 q 392 333 376 272 q 417 453 408 400 q 425 553 425 506 q 404 634 425 606 q 347 663 383 663 q 278 631 310 663 q 222 549 246 600 q 181 437 197 499 q 155 314 164 375 q 146 201 146 253 q 163 110 146 140 q 215 81 181 81 m 497 879 q 461 892 474 879 q 449 931 449 904 q 468 994 449 967 q 522 1021 488 1021 q 556 1008 544 1021 q 568 972 568 996 q 548 906 568 932 q 497 879 528 879 m 289 879 q 254 892 267 879 q 242 931 242 904 q 261 994 242 967 q 315 1021 281 1021 q 339 1015 329 1021 q 354 999 349 1010 q 360 972 360 989 q 340 906 360 932 q 289 879 321 879 z "},"å":{"ha":588,"x_min":35,"x_max":585,"o":"m 181 -14 q 101 10 133 -14 q 51 81 68 35 q 35 193 35 126 q 46 331 35 256 q 81 481 57 406 q 140 619 104 557 q 224 720 175 682 q 335 758 272 758 q 391 747 367 758 q 433 710 415 735 q 458 650 450 686 l 463 650 l 493 744 l 585 744 l 426 0 l 340 0 l 349 106 l 346 106 q 297 42 322 68 q 242 1 271 15 q 181 -14 214 -14 m 215 81 q 296 118 263 81 q 353 214 329 156 q 392 333 376 272 q 417 453 408 400 q 425 553 425 506 q 404 634 425 606 q 347 663 383 663 q 278 631 310 663 q 222 549 246 600 q 181 437 197 499 q 155 314 164 375 q 146 201 146 253 q 163 110 146 140 q 215 81 181 81 m 408 846 q 305 883 342 846 q 268 985 268 921 q 306 1084 268 1046 q 408 1122 343 1122 q 510 1085 472 1122 q 549 988 547 1047 q 511 885 549 925 q 408 846 474 846 m 410 908 q 465 929 444 908 q 485 985 485 950 q 465 1040 485 1018 q 410 1061 446 1061 q 353 1040 374 1061 q 333 985 333 1018 q 352 929 333 950 q 410 908 371 908 z "},"æ":{"ha":856,"x_min":33,"x_max":839,"o":"m 172 -14 q 98 10 129 -14 q 50 81 67 35 q 33 193 33 126 q 47 353 33 272 q 88 506 61 433 q 151 636 114 579 q 234 726 188 693 q 333 758 281 758 q 384 748 361 758 q 424 715 407 738 q 450 658 440 693 l 453 658 l 476 744 l 556 744 l 538 660 q 605 728 565 699 q 696 758 644 758 q 801 718 763 758 q 839 604 839 678 q 815 490 839 540 q 747 406 792 440 q 638 353 701 371 q 493 335 574 335 l 483 335 q 475 281 478 308 q 472 226 472 254 q 498 117 472 158 q 588 76 524 76 q 660 88 624 76 q 738 124 697 100 l 725 29 q 650 -3 686 7 q 567 -14 614 -14 q 473 14 510 -14 q 424 92 436 42 l 406 0 l 326 0 l 343 101 l 340 101 q 292 39 318 65 q 238 -1 267 13 q 172 -14 208 -14 m 214 79 q 272 99 246 79 q 317 153 297 118 q 353 233 338 188 q 382 329 369 278 q 405 451 397 396 q 413 557 413 507 q 395 635 413 608 q 346 663 378 663 q 282 634 313 663 q 226 558 251 606 q 183 449 201 510 q 154 324 164 389 q 144 199 144 260 q 162 109 144 139 q 214 79 179 79 m 503 418 q 637 441 585 418 q 713 505 689 464 q 738 599 738 546 q 722 649 738 631 q 672 668 707 668 q 602 636 635 668 q 544 548 569 604 q 499 418 518 492 l 503 418 z "},"ç":{"ha":440,"x_min":10,"x_max":482,"o":"m 213 -14 q 115 12 156 -14 q 55 88 75 38 q 35 211 35 138 q 47 351 35 276 q 83 499 58 426 q 145 629 107 571 q 237 723 183 688 q 358 758 290 758 q 425 751 394 758 q 482 726 456 743 l 439 638 q 399 657 421 650 q 357 664 378 664 q 263 620 303 664 q 197 508 224 576 q 158 364 171 440 q 144 222 144 288 q 155 142 144 174 q 186 96 165 111 q 238 81 207 81 q 291 91 263 81 q 350 119 319 101 l 350 25 q 288 -3 324 8 q 213 -14 251 -14 m 97 -333 q 51 -331 74 -333 q 10 -324 29 -329 l 10 -253 q 40 -260 21 -257 q 85 -262 58 -262 q 137 -253 115 -262 q 170 -224 158 -243 q 182 -182 182 -206 q 158 -134 182 -151 q 86 -111 135 -117 l 157 0 l 224 0 l 175 -71 q 245 -108 219 -81 q 271 -176 271 -135 q 248 -262 271 -226 q 186 -315 225 -297 q 97 -333 147 -333 z "},"è":{"ha":531,"x_min":33,"x_max":507,"o":"m 228 -14 q 123 13 167 -14 q 56 90 79 39 q 33 214 33 142 q 58 425 33 326 q 126 599 82 524 q 228 716 169 674 q 357 758 288 758 q 467 719 426 758 q 507 604 507 681 q 483 492 507 542 q 415 408 460 443 q 307 353 371 372 q 161 335 243 335 l 151 335 q 143 281 146 308 q 140 226 140 254 q 169 113 140 149 q 254 76 197 76 q 324 87 292 76 q 396 119 356 97 l 396 29 q 318 -3 360 7 q 228 -14 276 -14 m 171 418 q 306 441 254 418 q 381 504 357 464 q 406 599 406 544 q 390 649 406 631 q 342 668 375 668 q 272 636 306 668 q 212 548 239 604 q 167 418 185 492 l 171 418 m 350 842 q 308 905 332 867 q 262 983 283 943 q 231 1051 240 1022 l 231 1063 l 356 1063 q 373 997 364 1031 q 394 928 382 963 q 419 856 406 893 l 418 842 l 350 842 z "},"é":{"ha":531,"x_min":33,"x_max":563,"o":"m 228 -14 q 123 13 167 -14 q 56 90 79 39 q 33 214 33 142 q 58 425 33 326 q 126 599 82 524 q 228 716 169 674 q 357 758 288 758 q 467 719 426 758 q 507 604 507 681 q 483 492 507 542 q 415 408 460 443 q 307 353 371 372 q 161 335 243 335 l 151 335 q 143 281 146 308 q 140 226 140 254 q 169 113 140 149 q 254 76 197 76 q 324 87 292 76 q 396 119 356 97 l 396 29 q 318 -3 360 7 q 228 -14 276 -14 m 171 418 q 306 441 254 418 q 381 504 357 464 q 406 599 406 544 q 390 649 406 631 q 342 668 375 668 q 272 636 306 668 q 212 548 239 604 q 167 418 185 492 l 171 418 m 281 853 q 340 927 313 890 q 392 998 368 964 q 432 1063 415 1032 l 563 1063 l 561 1051 q 520 1001 547 1031 q 461 942 493 972 q 400 884 429 911 q 350 840 371 857 l 279 840 l 281 853 z "},"ê":{"ha":531,"x_min":33,"x_max":538,"o":"m 228 -14 q 123 13 167 -14 q 56 90 79 39 q 33 214 33 142 q 58 425 33 326 q 126 599 82 524 q 228 716 169 674 q 357 758 288 758 q 467 719 426 758 q 507 604 507 681 q 483 492 507 542 q 415 408 460 443 q 307 353 371 372 q 161 335 243 335 l 151 335 q 143 281 146 308 q 140 226 140 254 q 169 113 140 149 q 254 76 197 76 q 324 87 292 76 q 396 119 356 97 l 396 29 q 318 -3 360 7 q 228 -14 276 -14 m 171 418 q 306 441 254 418 q 381 504 357 464 q 406 599 406 544 q 390 649 406 631 q 342 668 375 668 q 272 636 306 668 q 212 548 239 604 q 167 418 185 492 l 171 418 m 203 856 q 265 926 235 890 q 320 997 294 961 q 367 1064 346 1032 l 463 1064 q 481 999 468 1039 q 510 920 494 960 q 538 856 526 881 l 535 842 l 475 842 q 449 880 463 860 q 423 923 436 900 q 397 971 410 946 q 326 899 360 932 q 263 842 292 865 l 200 842 l 203 856 z "},"ë":{"ha":531,"x_min":33,"x_max":553,"o":"m 228 -14 q 123 13 167 -14 q 56 90 79 39 q 33 214 33 142 q 58 425 33 326 q 126 599 82 524 q 228 716 169 674 q 357 758 288 758 q 467 719 426 758 q 507 604 507 681 q 483 492 507 542 q 415 408 460 443 q 307 353 371 372 q 161 335 243 335 l 151 335 q 143 281 146 308 q 140 226 140 254 q 169 113 140 149 q 254 76 197 76 q 324 87 292 76 q 396 119 356 97 l 396 29 q 318 -3 360 7 q 228 -14 276 -14 m 171 418 q 306 441 254 418 q 381 504 357 464 q 406 599 406 544 q 390 649 406 631 q 342 668 375 668 q 272 636 306 668 q 212 548 239 604 q 167 418 185 492 l 171 418 m 482 876 q 446 889 458 876 q 433 928 433 901 q 453 991 433 964 q 507 1018 472 1018 q 541 1006 529 1018 q 553 969 553 993 q 533 903 553 929 q 482 876 513 876 m 274 876 q 239 889 251 876 q 226 928 226 901 q 246 991 226 964 q 300 1018 265 1018 q 324 1013 314 1018 q 339 997 333 1007 q 344 969 344 986 q 325 903 344 929 q 274 876 306 876 z "},"ì":{"ha":267,"x_min":-1,"x_max":289,"o":"m -1 0 l 157 744 l 264 744 l 106 0 l -1 0 m 219 851 q 177 915 201 876 q 131 992 153 953 q 100 1061 110 1032 l 100 1072 l 225 1072 q 242 1006 233 1040 q 263 938 251 972 q 289 865 275 903 l 288 851 l 219 851 z "},"í":{"ha":267,"x_min":-1,"x_max":432,"o":"m -1 0 l 157 744 l 264 744 l 106 0 l -1 0 m 150 863 q 210 937 182 900 q 261 1008 238 974 q 301 1072 285 1042 l 432 1072 l 431 1061 q 390 1011 417 1040 q 331 951 363 982 q 269 894 299 921 q 219 850 240 867 l 149 850 l 150 863 z "},"î":{"ha":267,"x_min":-1,"x_max":390,"o":"m -1 0 l 157 744 l 264 744 l 106 0 l -1 0 m 56 856 q 117 926 88 890 q 173 997 147 961 q 219 1064 199 1032 l 315 1064 q 334 999 321 1039 q 363 920 347 960 q 390 856 379 881 l 388 842 l 328 842 q 302 880 315 860 q 276 923 289 900 q 250 971 263 946 q 178 899 213 932 q 115 842 144 865 l 53 842 l 56 856 z "},"ï":{"ha":267,"x_min":-1,"x_max":404,"o":"m -1 0 l 157 744 l 264 744 l 106 0 l -1 0 m 333 876 q 297 889 310 876 q 285 928 285 901 q 304 991 285 964 q 358 1018 324 1018 q 392 1006 381 1018 q 404 969 404 993 q 384 903 404 929 q 333 876 364 876 m 125 876 q 90 889 103 876 q 78 928 78 901 q 97 991 78 964 q 151 1018 117 1018 q 175 1013 165 1018 q 190 997 185 1007 q 196 969 196 986 q 176 903 196 929 q 125 876 157 876 z "},"ð":{"ha":561,"x_min":14,"x_max":557,"o":"m 197 -14 q 98 12 139 -14 q 35 87 57 38 q 14 207 14 136 q 31 352 14 274 q 85 500 49 431 q 176 614 121 569 q 306 658 231 658 q 383 624 358 658 q 418 546 407 590 l 419 546 q 403 725 419 646 q 340 865 388 804 l 204 782 l 169 838 l 304 921 q 265 960 290 939 q 208 1004 240 982 l 264 1067 q 326 1024 296 1049 q 385 971 356 1000 l 519 1056 l 557 1001 l 425 919 q 478 819 457 872 q 508 709 499 767 q 518 588 518 651 q 508 438 518 519 q 477 277 499 357 q 419 131 456 197 q 327 26 382 65 q 197 -14 272 -14 m 207 79 q 271 101 242 79 q 323 161 300 124 q 361 244 346 199 q 384 338 376 290 q 392 429 392 386 q 386 486 392 461 q 370 528 381 511 q 344 555 360 546 q 308 564 329 564 q 230 531 264 564 q 172 445 196 499 q 136 331 149 392 q 124 213 124 269 q 145 112 124 144 q 207 79 167 79 z "},"ñ":{"ha":571,"x_min":-1,"x_max":601,"o":"m -1 0 l 157 744 l 244 744 l 231 644 l 235 644 q 281 707 256 682 q 335 745 306 732 q 399 758 365 758 q 467 744 438 758 q 515 698 497 729 q 532 618 532 667 q 526 551 532 589 q 513 478 519 514 l 411 0 l 304 0 l 401 463 q 415 532 408 496 q 421 594 421 568 q 406 643 421 626 q 361 660 392 660 q 288 630 319 660 q 233 542 257 600 q 192 400 210 485 l 107 0 l -1 0 m 188 847 q 217 941 200 903 q 260 1000 235 979 q 322 1021 286 1021 q 372 1008 350 1021 q 410 980 393 996 q 442 951 426 964 q 475 939 458 939 q 510 957 497 939 q 533 1022 522 975 l 601 1022 q 571 920 590 958 q 527 865 551 882 q 474 849 503 849 q 426 861 447 849 q 387 890 404 874 q 353 919 369 907 q 319 932 338 932 q 281 910 296 932 q 256 847 265 889 l 188 847 z "},"ò":{"ha":565,"x_min":35,"x_max":531,"o":"m 213 -14 q 117 12 157 -14 q 56 88 76 38 q 35 211 35 139 q 45 340 35 268 q 79 485 56 411 q 140 620 103 558 q 230 720 176 682 q 354 758 283 758 q 449 732 410 758 q 510 655 489 706 q 531 531 531 604 q 518 387 531 463 q 481 240 506 311 q 419 112 457 169 q 329 20 381 54 q 213 -14 278 -14 m 224 81 q 292 110 261 81 q 347 190 324 140 q 388 300 371 240 q 413 421 404 360 q 421 533 421 482 q 412 605 421 575 q 385 650 403 635 q 340 665 368 665 q 268 633 300 665 q 213 547 236 600 q 174 433 189 494 q 151 313 158 372 q 143 210 143 254 q 163 114 143 147 q 224 81 183 81 m 368 842 q 326 905 350 867 q 280 983 301 943 q 249 1051 258 1022 l 249 1063 l 374 1063 q 391 997 382 1031 q 412 928 400 963 q 438 856 424 893 l 436 842 l 368 842 z "},"ó":{"ha":565,"x_min":35,"x_max":581,"o":"m 213 -14 q 117 12 157 -14 q 56 88 76 38 q 35 211 35 139 q 45 340 35 268 q 79 485 56 411 q 140 620 103 558 q 230 720 176 682 q 354 758 283 758 q 449 732 410 758 q 510 655 489 706 q 531 531 531 604 q 518 387 531 463 q 481 240 506 311 q 419 112 457 169 q 329 20 381 54 q 213 -14 278 -14 m 224 81 q 292 110 261 81 q 347 190 324 140 q 388 300 371 240 q 413 421 404 360 q 421 533 421 482 q 412 605 421 575 q 385 650 403 635 q 340 665 368 665 q 268 633 300 665 q 213 547 236 600 q 174 433 189 494 q 151 313 158 372 q 143 210 143 254 q 163 114 143 147 q 224 81 183 81 m 299 853 q 358 927 331 890 q 410 998 386 964 q 450 1063 433 1032 l 581 1063 l 579 1051 q 538 1001 565 1031 q 479 942 511 972 q 418 884 447 911 q 368 840 389 857 l 297 840 l 299 853 z "},"ô":{"ha":565,"x_min":35,"x_max":536,"o":"m 213 -14 q 117 12 157 -14 q 56 88 76 38 q 35 211 35 139 q 45 340 35 268 q 79 485 56 411 q 140 620 103 558 q 230 720 176 682 q 354 758 283 758 q 449 732 410 758 q 510 655 489 706 q 531 531 531 604 q 518 387 531 463 q 481 240 506 311 q 419 112 457 169 q 329 20 381 54 q 213 -14 278 -14 m 224 81 q 292 110 261 81 q 347 190 324 140 q 388 300 371 240 q 413 421 404 360 q 421 533 421 482 q 412 605 421 575 q 385 650 403 635 q 340 665 368 665 q 268 633 300 665 q 213 547 236 600 q 174 433 189 494 q 151 313 158 372 q 143 210 143 254 q 163 114 143 147 q 224 81 183 81 m 201 856 q 263 926 233 890 q 319 997 293 961 q 365 1064 344 1032 l 461 1064 q 480 999 467 1039 q 509 920 493 960 q 536 856 525 881 l 533 842 l 474 842 q 448 880 461 860 q 422 923 435 900 q 396 971 408 946 q 324 899 358 932 q 261 842 290 865 l 199 842 l 201 856 z "},"õ":{"ha":565,"x_min":35,"x_max":586,"o":"m 213 -14 q 117 12 157 -14 q 56 88 76 38 q 35 211 35 139 q 45 340 35 268 q 79 485 56 411 q 140 620 103 558 q 230 720 176 682 q 354 758 283 758 q 449 732 410 758 q 510 655 489 706 q 531 531 531 604 q 518 387 531 463 q 481 240 506 311 q 419 112 457 169 q 329 20 381 54 q 213 -14 278 -14 m 224 81 q 292 110 261 81 q 347 190 324 140 q 388 300 371 240 q 413 421 404 360 q 421 533 421 482 q 412 605 421 575 q 385 650 403 635 q 340 665 368 665 q 268 633 300 665 q 213 547 236 600 q 174 433 189 494 q 151 313 158 372 q 143 210 143 254 q 163 114 143 147 q 224 81 183 81 m 172 844 q 202 938 185 900 q 245 997 219 976 q 307 1018 271 1018 q 356 1006 335 1018 q 394 977 378 993 q 427 949 411 961 q 460 936 443 936 q 494 954 482 936 q 518 1019 507 972 l 586 1019 q 556 917 575 956 q 512 863 536 879 q 458 846 488 846 q 410 858 432 846 q 372 888 389 871 q 338 917 354 904 q 304 929 322 929 q 265 908 281 929 q 240 844 250 886 l 172 844 z "},"ö":{"ha":565,"x_min":35,"x_max":547,"o":"m 213 -14 q 117 12 157 -14 q 56 88 76 38 q 35 211 35 139 q 45 340 35 268 q 79 485 56 411 q 140 620 103 558 q 230 720 176 682 q 354 758 283 758 q 449 732 410 758 q 510 655 489 706 q 531 531 531 604 q 518 387 531 463 q 481 240 506 311 q 419 112 457 169 q 329 20 381 54 q 213 -14 278 -14 m 224 81 q 292 110 261 81 q 347 190 324 140 q 388 300 371 240 q 413 421 404 360 q 421 533 421 482 q 412 605 421 575 q 385 650 403 635 q 340 665 368 665 q 268 633 300 665 q 213 547 236 600 q 174 433 189 494 q 151 313 158 372 q 143 210 143 254 q 163 114 143 147 q 224 81 183 81 m 476 876 q 440 889 453 876 q 428 928 428 901 q 447 991 428 964 q 501 1018 467 1018 q 535 1006 524 1018 q 547 969 547 993 q 527 903 547 929 q 476 876 507 876 m 268 876 q 233 889 246 876 q 221 928 221 901 q 240 991 221 964 q 294 1018 260 1018 q 318 1013 308 1018 q 333 997 328 1007 q 339 969 339 986 q 319 903 339 929 q 268 876 300 876 z "},"÷":{"ha":597,"x_min":56,"x_max":567,"o":"m 56 443 l 56 538 l 567 538 l 567 443 l 56 443 m 314 156 q 261 177 279 156 q 243 242 243 199 q 261 306 243 285 q 314 328 279 328 q 365 306 347 328 q 382 242 382 285 q 363 177 382 199 q 314 156 344 156 m 314 651 q 261 673 279 651 q 243 738 243 694 q 261 802 243 781 q 314 824 279 824 q 365 802 347 824 q 382 738 382 781 q 363 673 382 694 q 314 651 344 651 z "},"ø":{"ha":565,"x_min":-19,"x_max":585,"o":"m 38 -83 l -19 -47 l 61 78 q 42 138 49 104 q 35 211 35 171 q 45 335 35 264 q 78 480 56 406 q 138 617 101 554 q 228 719 175 681 q 354 758 282 758 q 417 747 389 758 q 465 713 444 736 l 526 811 l 585 775 l 507 654 q 524 598 518 629 q 531 531 531 567 q 519 402 531 474 q 485 258 508 331 q 425 123 463 185 q 335 24 388 61 q 213 -14 282 -14 q 153 -4 181 -14 q 106 24 126 6 l 38 -83 m 224 76 q 290 103 260 76 q 342 173 319 129 q 383 271 365 217 q 410 382 400 325 q 422 490 419 439 q 424 512 424 501 q 422 532 424 522 l 160 114 q 187 86 171 96 q 224 76 203 76 m 410 622 q 383 657 400 646 q 342 668 365 668 q 275 640 306 668 q 221 566 244 613 q 180 463 197 519 q 153 347 163 406 q 142 238 144 289 q 142 216 142 226 q 143 197 142 206 l 410 622 z "},"ù":{"ha":574,"x_min":35,"x_max":567,"o":"m 168 -14 q 95 3 125 -14 q 50 52 65 19 q 35 131 35 85 q 40 189 35 156 q 50 251 44 222 l 156 744 l 263 744 l 161 267 q 150 208 154 236 q 146 153 146 179 q 160 102 146 121 q 204 83 174 83 q 278 114 246 83 q 334 203 310 144 q 375 344 358 261 l 460 744 l 567 744 l 410 0 l 324 0 l 332 94 l 328 94 q 281 35 307 60 q 227 -1 256 11 q 168 -14 199 -14 m 371 842 q 328 905 353 867 q 283 983 304 943 q 251 1051 261 1022 l 251 1063 l 376 1063 q 394 997 385 1031 q 415 928 403 963 q 440 856 426 893 l 439 842 l 371 842 z "},"ú":{"ha":574,"x_min":35,"x_max":583,"o":"m 168 -14 q 95 3 125 -14 q 50 52 65 19 q 35 131 35 85 q 40 189 35 156 q 50 251 44 222 l 156 744 l 263 744 l 161 267 q 150 208 154 236 q 146 153 146 179 q 160 102 146 121 q 204 83 174 83 q 278 114 246 83 q 334 203 310 144 q 375 344 358 261 l 460 744 l 567 744 l 410 0 l 324 0 l 332 94 l 328 94 q 281 35 307 60 q 227 -1 256 11 q 168 -14 199 -14 m 301 853 q 361 927 333 890 q 413 998 389 964 q 453 1063 436 1032 l 583 1063 l 582 1051 q 541 1001 568 1031 q 482 942 514 972 q 421 884 450 911 q 371 840 392 857 l 300 840 l 301 853 z "},"û":{"ha":574,"x_min":35,"x_max":567,"o":"m 168 -14 q 95 3 125 -14 q 50 52 65 19 q 35 131 35 85 q 40 189 35 156 q 50 251 44 222 l 156 744 l 263 744 l 161 267 q 150 208 154 236 q 146 153 146 179 q 160 102 146 121 q 204 83 174 83 q 278 114 246 83 q 334 203 310 144 q 375 344 358 261 l 460 744 l 567 744 l 410 0 l 324 0 l 332 94 l 328 94 q 281 35 307 60 q 227 -1 256 11 q 168 -14 199 -14 m 208 856 q 270 926 240 890 q 326 997 300 961 q 372 1064 351 1032 l 468 1064 q 487 999 474 1039 q 516 920 500 960 q 543 856 532 881 l 540 842 l 481 842 q 455 880 468 860 q 428 923 442 900 q 403 971 415 946 q 331 899 365 932 q 268 842 297 865 l 206 842 l 208 856 z "},"ü":{"ha":574,"x_min":35,"x_max":567,"o":"m 168 -14 q 95 3 125 -14 q 50 52 65 19 q 35 131 35 85 q 40 189 35 156 q 50 251 44 222 l 156 744 l 263 744 l 161 267 q 150 208 154 236 q 146 153 146 179 q 160 102 146 121 q 204 83 174 83 q 278 114 246 83 q 334 203 310 144 q 375 344 358 261 l 460 744 l 567 744 l 410 0 l 324 0 l 332 94 l 328 94 q 281 35 307 60 q 227 -1 256 11 q 168 -14 199 -14 m 476 876 q 440 889 453 876 q 428 928 428 901 q 447 991 428 964 q 501 1018 467 1018 q 535 1006 524 1018 q 547 969 547 993 q 527 903 547 929 q 476 876 507 876 m 268 876 q 233 889 246 876 q 221 928 221 901 q 240 991 221 964 q 294 1018 260 1018 q 318 1013 308 1018 q 333 997 328 1007 q 339 969 339 986 q 319 903 339 929 q 268 876 300 876 z "},"ý":{"ha":472,"x_min":-131,"x_max":544,"o":"m -57 -335 q -97 -331 -79 -335 q -131 -321 -115 -326 l -117 -225 q -89 -233 -103 -231 q -60 -236 -75 -236 q 6 -205 -19 -236 q 54 -118 31 -174 l 107 3 l 89 744 l 196 744 l 197 332 q 197 276 197 304 q 195 219 196 247 q 192 161 194 190 l 196 161 q 215 217 206 190 q 235 269 225 244 q 251 314 244 294 l 433 744 l 544 744 l 154 -143 q 99 -244 128 -201 q 34 -311 71 -287 q -57 -335 -3 -335 m 253 853 q 313 927 285 890 q 364 998 340 964 q 404 1063 388 1032 l 535 1063 l 533 1051 q 492 1001 519 1031 q 433 942 465 972 q 372 884 401 911 q 322 840 343 857 l 251 840 l 253 853 z "},"þ":{"ha":579,"x_min":-67,"x_max":550,"o":"m -67 -324 l 225 1056 l 331 1056 l 254 701 q 248 674 251 688 q 242 650 244 661 l 246 650 q 293 708 268 685 q 347 745 318 732 q 407 758 375 758 q 513 707 476 758 q 550 551 550 656 q 538 412 550 488 q 503 261 526 336 q 443 124 479 186 q 359 24 407 61 q 250 -14 311 -14 q 194 -1 219 -14 q 151 36 168 13 q 126 92 135 60 l 122 92 q 115 43 119 68 q 107 -1 110 18 l 39 -324 l -67 -324 m 239 81 q 312 115 279 81 q 369 203 344 149 q 409 320 393 257 q 433 443 425 383 q 440 546 440 503 q 423 637 440 607 q 369 667 406 667 q 292 630 326 667 q 234 535 258 593 q 193 415 210 478 q 175 335 182 375 q 165 258 168 294 q 161 193 161 222 q 181 109 161 138 q 239 81 200 81 z "},"ÿ":{"ha":472,"x_min":-131,"x_max":544,"o":"m -57 -335 q -97 -331 -79 -335 q -131 -321 -115 -326 l -117 -225 q -89 -233 -103 -231 q -60 -236 -75 -236 q 6 -205 -19 -236 q 54 -118 31 -174 l 107 3 l 89 744 l 196 744 l 197 332 q 197 276 197 304 q 195 219 196 247 q 192 161 194 190 l 196 161 q 215 217 206 190 q 235 269 225 244 q 251 314 244 294 l 433 744 l 544 744 l 154 -143 q 99 -244 128 -201 q 34 -311 71 -287 q -57 -335 -3 -335 m 425 876 q 389 889 401 876 q 376 928 376 901 q 396 991 376 964 q 450 1018 415 1018 q 484 1006 472 1018 q 496 969 496 993 q 476 903 496 929 q 425 876 456 876 m 217 876 q 182 889 194 876 q 169 928 169 901 q 189 991 169 964 q 243 1018 208 1018 q 267 1013 257 1018 q 282 997 276 1007 q 288 969 288 986 q 268 903 288 929 q 217 876 249 876 z "},"Ā":{"ha":561,"x_min":-90,"x_max":589,"o":"m -90 0 l 325 996 l 467 996 l 471 0 l 356 0 l 357 315 l 160 315 l 31 0 l -90 0 m 197 417 l 361 417 l 367 765 q 368 828 367 799 q 372 883 369 858 l 368 883 q 353 831 363 860 q 331 765 344 801 l 197 417 m 239 1104 l 256 1188 l 589 1188 l 571 1104 l 239 1104 z "},"ā":{"ha":588,"x_min":35,"x_max":585,"o":"m 181 -14 q 101 10 133 -14 q 51 81 68 35 q 35 193 35 126 q 46 331 35 256 q 81 481 57 406 q 140 619 104 557 q 224 720 175 682 q 335 758 272 758 q 391 747 367 758 q 433 710 415 735 q 458 650 450 686 l 463 650 l 493 744 l 585 744 l 426 0 l 340 0 l 349 106 l 346 106 q 297 42 322 68 q 242 1 271 15 q 181 -14 214 -14 m 215 81 q 296 118 263 81 q 353 214 329 156 q 392 333 376 272 q 417 453 408 400 q 425 553 425 506 q 404 634 425 606 q 347 663 383 663 q 278 631 310 663 q 222 549 246 600 q 181 437 197 499 q 155 314 164 375 q 146 201 146 253 q 163 110 146 140 q 215 81 181 81 m 221 850 l 238 933 l 571 933 l 553 850 l 221 850 z "},"Ă":{"ha":561,"x_min":-90,"x_max":592,"o":"m -90 0 l 325 996 l 467 996 l 471 0 l 356 0 l 357 315 l 160 315 l 31 0 l -90 0 m 197 417 l 361 417 l 367 765 q 368 828 367 799 q 372 883 369 858 l 368 883 q 353 831 363 860 q 331 765 344 801 l 197 417 m 413 1099 q 333 1115 364 1099 q 288 1163 303 1132 q 274 1235 274 1194 q 275 1261 274 1249 q 278 1283 276 1274 l 347 1283 q 355 1226 347 1249 q 378 1194 363 1204 q 418 1183 393 1183 q 483 1206 458 1183 q 521 1283 507 1229 l 592 1283 q 531 1147 576 1194 q 413 1099 486 1099 z "},"ă":{"ha":588,"x_min":35,"x_max":585,"o":"m 181 -14 q 101 10 133 -14 q 51 81 68 35 q 35 193 35 126 q 46 331 35 256 q 81 481 57 406 q 140 619 104 557 q 224 720 175 682 q 335 758 272 758 q 391 747 367 758 q 433 710 415 735 q 458 650 450 686 l 463 650 l 493 744 l 585 744 l 426 0 l 340 0 l 349 106 l 346 106 q 297 42 322 68 q 242 1 271 15 q 181 -14 214 -14 m 215 81 q 296 118 263 81 q 353 214 329 156 q 392 333 376 272 q 417 453 408 400 q 425 553 425 506 q 404 634 425 606 q 347 663 383 663 q 278 631 310 663 q 222 549 246 600 q 181 437 197 499 q 155 314 164 375 q 146 201 146 253 q 163 110 146 140 q 215 81 181 81 m 394 844 q 315 861 346 844 q 270 909 285 878 q 256 981 256 940 q 257 1007 256 994 q 260 1029 258 1019 l 329 1029 q 337 972 329 994 q 360 940 344 950 q 400 929 375 929 q 465 952 440 929 q 503 1029 489 975 l 574 1029 q 513 892 558 940 q 394 844 468 844 z "},"Ą":{"ha":561,"x_min":-90,"x_max":471,"o":"m -90 0 l 325 996 l 467 996 l 471 0 l 356 0 l 357 315 l 160 315 l 31 0 l -90 0 m 197 417 l 361 417 l 367 765 q 368 828 367 799 q 372 883 369 858 l 368 883 q 353 831 363 860 q 331 765 344 801 l 197 417 m 340 -311 q 263 -283 289 -311 q 238 -211 238 -254 q 252 -137 238 -172 q 298 -69 267 -103 q 376 0 329 -35 l 449 0 q 383 -67 408 -36 q 347 -127 358 -99 q 335 -185 335 -156 q 346 -219 335 -207 q 379 -232 357 -232 q 403 -229 390 -232 q 431 -224 417 -226 l 414 -299 q 379 -308 397 -306 q 340 -311 361 -311 z "},"ą":{"ha":588,"x_min":35,"x_max":585,"o":"m 181 -14 q 101 10 133 -14 q 51 81 68 35 q 35 193 35 126 q 46 331 35 256 q 81 481 57 406 q 140 619 104 557 q 224 720 175 682 q 335 758 272 758 q 391 747 367 758 q 433 710 415 735 q 458 650 450 686 l 463 650 l 493 744 l 585 744 l 426 0 l 340 0 l 349 106 l 346 106 q 297 42 322 68 q 242 1 271 15 q 181 -14 214 -14 m 215 81 q 296 118 263 81 q 353 214 329 156 q 392 333 376 272 q 417 453 408 400 q 425 553 425 506 q 404 634 425 606 q 347 663 383 663 q 278 631 310 663 q 222 549 246 600 q 181 437 197 499 q 155 314 164 375 q 146 201 146 253 q 163 110 146 140 q 215 81 181 81 m 307 -311 q 230 -283 256 -311 q 204 -211 204 -254 q 219 -137 204 -172 q 265 -69 233 -103 q 343 0 296 -35 l 415 0 q 350 -67 375 -36 q 313 -127 325 -99 q 301 -185 301 -156 q 313 -219 301 -207 q 346 -232 324 -232 q 370 -229 357 -232 q 397 -224 383 -226 l 381 -299 q 346 -308 364 -306 q 307 -311 328 -311 z "},"Ć":{"ha":536,"x_min":50,"x_max":639,"o":"m 272 -14 q 149 22 199 -14 q 75 129 100 58 q 50 306 50 200 q 67 484 50 389 q 117 672 83 579 q 203 840 151 764 q 323 961 254 915 q 478 1007 392 1007 q 567 995 526 1007 q 639 957 607 983 l 581 867 q 532 896 558 886 q 476 906 506 906 q 363 863 413 906 q 275 753 313 821 q 213 605 238 685 q 177 449 189 525 q 165 315 165 372 q 197 141 165 196 q 297 86 229 86 q 362 96 329 86 q 429 119 394 106 l 429 18 q 351 -6 390 1 q 272 -14 311 -14 m 354 1110 q 414 1184 386 1147 q 465 1255 442 1221 q 506 1319 489 1289 l 636 1319 l 635 1308 q 594 1258 621 1288 q 535 1199 567 1229 q 474 1141 503 1168 q 424 1097 444 1114 l 353 1097 l 354 1110 z "},"ć":{"ha":440,"x_min":35,"x_max":519,"o":"m 213 -14 q 115 12 156 -14 q 55 88 75 38 q 35 211 35 138 q 47 351 35 276 q 83 499 58 426 q 145 629 107 571 q 237 723 183 688 q 358 758 290 758 q 425 751 394 758 q 482 726 456 743 l 439 638 q 399 657 421 650 q 357 664 378 664 q 263 620 303 664 q 197 508 224 576 q 158 364 171 440 q 144 222 144 288 q 155 142 144 174 q 186 96 165 111 q 238 81 207 81 q 291 91 263 81 q 350 119 319 101 l 350 25 q 288 -3 324 8 q 213 -14 251 -14 m 238 863 q 297 937 269 900 q 349 1008 325 974 q 389 1072 372 1042 l 519 1072 l 518 1061 q 477 1011 504 1040 q 418 951 450 982 q 357 894 386 921 q 307 850 328 867 l 236 850 l 238 863 z "},"Ĉ":{"ha":536,"x_min":50,"x_max":639,"o":"m 272 -14 q 149 22 199 -14 q 75 129 100 58 q 50 306 50 200 q 67 484 50 389 q 117 672 83 579 q 203 840 151 764 q 323 961 254 915 q 478 1007 392 1007 q 567 995 526 1007 q 639 957 607 983 l 581 867 q 532 896 558 886 q 476 906 506 906 q 363 863 413 906 q 275 753 313 821 q 213 605 238 685 q 177 449 189 525 q 165 315 165 372 q 197 141 165 196 q 297 86 229 86 q 362 96 329 86 q 429 119 394 106 l 429 18 q 351 -6 390 1 q 272 -14 311 -14 m 303 1085 q 365 1155 335 1119 q 420 1226 394 1190 q 467 1293 446 1261 l 563 1293 q 581 1228 568 1268 q 610 1149 594 1189 q 638 1085 626 1110 l 635 1071 l 575 1071 q 549 1109 563 1089 q 523 1152 536 1129 q 497 1200 510 1175 q 426 1128 460 1161 q 363 1071 392 1094 l 300 1071 l 303 1085 z "},"ĉ":{"ha":440,"x_min":35,"x_max":517,"o":"m 213 -14 q 115 12 156 -14 q 55 88 75 38 q 35 211 35 138 q 47 351 35 276 q 83 499 58 426 q 145 629 107 571 q 237 723 183 688 q 358 758 290 758 q 425 751 394 758 q 482 726 456 743 l 439 638 q 399 657 421 650 q 357 664 378 664 q 263 620 303 664 q 197 508 224 576 q 158 364 171 440 q 144 222 144 288 q 155 142 144 174 q 186 96 165 111 q 238 81 207 81 q 291 91 263 81 q 350 119 319 101 l 350 25 q 288 -3 324 8 q 213 -14 251 -14 m 182 856 q 244 926 214 890 q 299 997 274 961 q 346 1064 325 1032 l 442 1064 q 460 999 447 1039 q 490 920 474 960 q 517 856 506 881 l 514 842 l 454 842 q 428 880 442 860 q 402 923 415 900 q 376 971 389 946 q 305 899 339 932 q 242 842 271 865 l 179 842 l 182 856 z "},"Ċ":{"ha":536,"x_min":50,"x_max":639,"o":"m 272 -14 q 149 22 199 -14 q 75 129 100 58 q 50 306 50 200 q 67 484 50 389 q 117 672 83 579 q 203 840 151 764 q 323 961 254 915 q 478 1007 392 1007 q 567 995 526 1007 q 639 957 607 983 l 581 867 q 532 896 558 886 q 476 906 506 906 q 363 863 413 906 q 275 753 313 821 q 213 605 238 685 q 177 449 189 525 q 165 315 165 372 q 197 141 165 196 q 297 86 229 86 q 362 96 329 86 q 429 119 394 106 l 429 18 q 351 -6 390 1 q 272 -14 311 -14 m 503 1104 q 463 1119 476 1104 q 449 1161 449 1135 q 469 1228 449 1199 q 526 1258 489 1258 q 556 1252 544 1258 q 574 1234 568 1246 q 581 1203 581 1222 q 560 1134 581 1164 q 503 1104 539 1104 z "},"ċ":{"ha":440,"x_min":35,"x_max":482,"o":"m 213 -14 q 115 12 156 -14 q 55 88 75 38 q 35 211 35 138 q 47 351 35 276 q 83 499 58 426 q 145 629 107 571 q 237 723 183 688 q 358 758 290 758 q 425 751 394 758 q 482 726 456 743 l 439 638 q 399 657 421 650 q 357 664 378 664 q 263 620 303 664 q 197 508 224 576 q 158 364 171 440 q 144 222 144 288 q 155 142 144 174 q 186 96 165 111 q 238 81 207 81 q 291 91 263 81 q 350 119 319 101 l 350 25 q 288 -3 324 8 q 213 -14 251 -14 m 382 869 q 342 885 356 869 q 328 926 328 900 q 348 994 328 964 q 406 1024 368 1024 q 435 1017 424 1024 q 453 999 447 1011 q 460 968 460 988 q 439 899 460 929 q 382 869 418 869 z "},"Č":{"ha":536,"x_min":50,"x_max":703,"o":"m 272 -14 q 149 22 199 -14 q 75 129 100 58 q 50 306 50 200 q 67 484 50 389 q 117 672 83 579 q 203 840 151 764 q 323 961 254 915 q 478 1007 392 1007 q 567 995 526 1007 q 639 957 607 983 l 581 867 q 532 896 558 886 q 476 906 506 906 q 363 863 413 906 q 275 753 313 821 q 213 605 238 685 q 177 449 189 525 q 165 315 165 372 q 197 141 165 196 q 297 86 229 86 q 362 96 329 86 q 429 119 394 106 l 429 18 q 351 -6 390 1 q 272 -14 311 -14 m 440 1071 q 421 1135 435 1094 q 392 1215 407 1175 q 364 1279 376 1256 l 367 1293 l 428 1293 q 449 1261 438 1281 q 476 1217 461 1242 q 506 1164 490 1193 q 576 1237 543 1204 q 640 1293 610 1269 l 703 1293 l 700 1279 q 646 1217 679 1257 q 582 1138 613 1178 q 536 1071 551 1097 l 440 1071 z "},"č":{"ha":440,"x_min":35,"x_max":576,"o":"m 213 -14 q 115 12 156 -14 q 55 88 75 38 q 35 211 35 138 q 47 351 35 276 q 83 499 58 426 q 145 629 107 571 q 237 723 183 688 q 358 758 290 758 q 425 751 394 758 q 482 726 456 743 l 439 638 q 399 657 421 650 q 357 664 378 664 q 263 620 303 664 q 197 508 224 576 q 158 364 171 440 q 144 222 144 288 q 155 142 144 174 q 186 96 165 111 q 238 81 207 81 q 291 91 263 81 q 350 119 319 101 l 350 25 q 288 -3 324 8 q 213 -14 251 -14 m 314 842 q 294 906 308 865 q 265 986 281 946 q 238 1050 250 1026 l 240 1064 l 301 1064 q 323 1032 311 1051 q 349 988 335 1013 q 379 935 364 964 q 450 1008 417 975 q 514 1064 483 1040 l 576 1064 l 574 1050 q 519 988 553 1028 q 456 908 486 949 q 410 842 425 868 l 314 842 z "},"Ď":{"ha":646,"x_min":0,"x_max":625,"o":"m 0 0 l 210 992 l 372 992 q 560 917 496 992 q 625 699 625 843 q 609 511 625 608 q 559 323 593 414 q 471 159 525 232 q 341 43 417 86 q 164 0 265 0 l 0 0 m 181 101 q 303 138 250 101 q 395 238 357 175 q 458 377 433 300 q 495 535 483 454 q 507 692 507 617 q 470 842 507 794 q 360 890 433 890 l 300 890 l 132 101 l 181 101 m 361 1071 q 342 1135 356 1094 q 313 1215 328 1175 q 285 1279 297 1256 l 288 1293 l 349 1293 q 370 1261 358 1281 q 397 1217 382 1242 q 426 1164 411 1193 q 497 1237 464 1204 q 561 1293 531 1269 l 624 1293 l 621 1279 q 567 1217 600 1257 q 503 1138 533 1178 q 457 1071 472 1097 l 361 1071 z "},"ď":{"ha":683,"x_min":33,"x_max":842,"o":"m 658 846 q 690 922 676 885 q 716 992 704 958 q 735 1056 728 1026 l 842 1056 l 842 1042 q 810 974 831 1014 q 765 897 789 935 q 722 833 742 860 l 658 833 l 658 846 m 176 -14 q 99 10 131 -14 q 50 81 67 35 q 33 193 33 126 q 44 329 33 254 q 79 480 56 404 q 138 619 103 556 q 222 720 174 682 q 329 758 269 758 q 388 747 361 758 q 432 712 414 735 q 457 657 450 689 l 461 657 q 469 704 465 681 q 478 750 474 728 q 486 792 482 772 l 542 1056 l 649 1056 l 425 0 l 339 0 l 347 103 l 344 103 q 294 40 319 65 q 240 0 268 14 q 176 -14 211 -14 m 214 79 q 281 105 251 79 q 334 174 311 131 q 374 269 357 217 q 402 375 392 321 q 418 476 413 429 q 424 556 424 524 q 405 635 424 608 q 346 663 386 663 q 275 630 307 663 q 219 544 243 597 q 178 430 194 492 q 153 307 161 368 q 144 199 144 246 q 162 109 144 139 q 214 79 179 79 z "},"Đ":{"ha":646,"x_min":0,"x_max":625,"o":"m 32 469 l 51 561 l 347 561 l 328 469 l 32 469 m 0 0 l 210 992 l 372 992 q 560 917 496 992 q 625 699 625 843 q 609 511 625 608 q 559 323 593 414 q 471 159 525 232 q 341 43 417 86 q 164 0 265 0 l 0 0 m 181 101 q 303 138 250 101 q 395 238 357 175 q 458 377 433 300 q 495 535 483 454 q 507 692 507 617 q 470 842 507 794 q 360 890 433 890 l 300 890 l 132 101 l 181 101 z "},"đ":{"ha":586,"x_min":33,"x_max":704,"o":"m 176 -14 q 99 10 131 -14 q 50 81 67 35 q 33 193 33 126 q 44 329 33 254 q 79 480 56 404 q 138 619 103 556 q 222 720 174 682 q 329 758 269 758 q 388 747 361 758 q 432 712 414 735 q 457 657 450 689 l 461 657 q 469 701 465 679 q 477 743 474 722 q 485 783 481 764 l 499 849 l 367 849 l 385 932 l 517 932 l 542 1056 l 649 1056 l 624 932 l 704 932 l 686 849 l 606 849 l 425 0 l 339 0 l 347 103 l 344 103 q 294 40 319 65 q 240 0 268 14 q 176 -14 211 -14 m 214 79 q 281 105 251 79 q 334 174 311 131 q 374 269 357 217 q 402 375 392 321 q 418 476 413 429 q 424 556 424 524 q 405 635 424 608 q 346 663 386 663 q 275 630 307 663 q 219 544 243 597 q 178 430 194 492 q 153 307 161 368 q 144 199 144 246 q 162 109 144 139 q 214 79 179 79 z "},"Ē":{"ha":508,"x_min":0,"x_max":585,"o":"m 0 0 l 210 992 l 569 992 l 549 892 l 300 892 l 232 568 l 464 568 l 442 468 l 210 468 l 132 100 l 381 100 l 360 0 l 0 0 m 235 1076 l 251 1160 l 585 1160 l 567 1076 l 235 1076 z "},"ē":{"ha":531,"x_min":33,"x_max":560,"o":"m 228 -14 q 123 13 167 -14 q 56 90 79 39 q 33 214 33 142 q 58 425 33 326 q 126 599 82 524 q 228 716 169 674 q 357 758 288 758 q 467 719 426 758 q 507 604 507 681 q 483 492 507 542 q 415 408 460 443 q 307 353 371 372 q 161 335 243 335 l 151 335 q 143 281 146 308 q 140 226 140 254 q 169 113 140 149 q 254 76 197 76 q 324 87 292 76 q 396 119 356 97 l 396 29 q 318 -3 360 7 q 228 -14 276 -14 m 171 418 q 306 441 254 418 q 381 504 357 464 q 406 599 406 544 q 390 649 406 631 q 342 668 375 668 q 272 636 306 668 q 212 548 239 604 q 167 418 185 492 l 171 418 m 210 847 l 226 931 l 560 931 l 542 847 l 210 847 z "},"Ĕ":{"ha":508,"x_min":0,"x_max":586,"o":"m 0 0 l 210 992 l 569 992 l 549 892 l 300 892 l 232 568 l 464 568 l 442 468 l 210 468 l 132 100 l 381 100 l 360 0 l 0 0 m 407 1071 q 328 1088 358 1071 q 283 1135 297 1104 q 268 1207 268 1167 q 269 1233 268 1221 q 272 1256 271 1246 l 342 1256 q 349 1199 342 1221 q 372 1166 357 1176 q 413 1156 388 1156 q 477 1178 453 1156 q 515 1256 501 1201 l 586 1256 q 526 1119 571 1167 q 407 1071 481 1071 z "},"ĕ":{"ha":531,"x_min":33,"x_max":575,"o":"m 228 -14 q 123 13 167 -14 q 56 90 79 39 q 33 214 33 142 q 58 425 33 326 q 126 599 82 524 q 228 716 169 674 q 357 758 288 758 q 467 719 426 758 q 507 604 507 681 q 483 492 507 542 q 415 408 460 443 q 307 353 371 372 q 161 335 243 335 l 151 335 q 143 281 146 308 q 140 226 140 254 q 169 113 140 149 q 254 76 197 76 q 324 87 292 76 q 396 119 356 97 l 396 29 q 318 -3 360 7 q 228 -14 276 -14 m 171 418 q 306 441 254 418 q 381 504 357 464 q 406 599 406 544 q 390 649 406 631 q 342 668 375 668 q 272 636 306 668 q 212 548 239 604 q 167 418 185 492 l 171 418 m 396 842 q 317 858 347 842 q 272 906 286 875 q 257 978 257 938 q 258 1004 257 992 q 261 1026 260 1017 l 331 1026 q 338 969 331 992 q 361 937 346 947 q 401 926 376 926 q 466 949 442 926 q 504 1026 490 972 l 575 1026 q 515 890 560 938 q 396 842 469 842 z "},"Ė":{"ha":508,"x_min":0,"x_max":569,"o":"m 0 0 l 210 992 l 569 992 l 549 892 l 300 892 l 232 568 l 464 568 l 442 468 l 210 468 l 132 100 l 381 100 l 360 0 l 0 0 m 417 1079 q 376 1094 390 1079 q 363 1136 363 1110 q 383 1203 363 1174 q 440 1233 403 1233 q 470 1227 458 1233 q 488 1209 482 1221 q 494 1178 494 1197 q 474 1109 494 1139 q 417 1079 453 1079 z "},"ė":{"ha":531,"x_min":33,"x_max":507,"o":"m 228 -14 q 123 13 167 -14 q 56 90 79 39 q 33 214 33 142 q 58 425 33 326 q 126 599 82 524 q 228 716 169 674 q 357 758 288 758 q 467 719 426 758 q 507 604 507 681 q 483 492 507 542 q 415 408 460 443 q 307 353 371 372 q 161 335 243 335 l 151 335 q 143 281 146 308 q 140 226 140 254 q 169 113 140 149 q 254 76 197 76 q 324 87 292 76 q 396 119 356 97 l 396 29 q 318 -3 360 7 q 228 -14 276 -14 m 171 418 q 306 441 254 418 q 381 504 357 464 q 406 599 406 544 q 390 649 406 631 q 342 668 375 668 q 272 636 306 668 q 212 548 239 604 q 167 418 185 492 l 171 418 m 403 869 q 363 885 376 869 q 349 926 349 900 q 369 994 349 964 q 426 1024 389 1024 q 456 1017 444 1024 q 474 999 468 1011 q 481 968 481 988 q 460 899 481 929 q 403 869 439 869 z "},"Ę":{"ha":508,"x_min":0,"x_max":569,"o":"m 0 0 l 210 992 l 569 992 l 549 892 l 300 892 l 232 568 l 464 568 l 442 468 l 210 468 l 132 100 l 381 100 l 360 0 l 0 0 m 207 -311 q 130 -283 156 -311 q 104 -211 104 -254 q 119 -137 104 -172 q 165 -69 133 -103 q 243 0 196 -35 l 315 0 q 250 -67 275 -36 q 213 -127 225 -99 q 201 -185 201 -156 q 213 -219 201 -207 q 246 -232 224 -232 q 270 -229 257 -232 q 297 -224 283 -226 l 281 -299 q 246 -308 264 -306 q 207 -311 228 -311 z "},"ę":{"ha":531,"x_min":33,"x_max":507,"o":"m 260 -292 q 185 -262 210 -292 q 160 -190 160 -233 q 174 -117 160 -151 q 219 -49 189 -83 q 296 19 249 -15 l 385 25 q 313 -41 340 -8 q 272 -105 285 -74 q 257 -165 258 -136 q 269 -199 257 -187 q 300 -211 281 -211 q 324 -209 311 -211 q 350 -204 336 -207 l 333 -279 q 299 -289 317 -286 q 260 -292 281 -292 m 228 -14 q 123 13 167 -14 q 56 90 79 39 q 33 214 33 142 q 58 425 33 326 q 126 599 82 524 q 228 716 169 674 q 357 758 288 758 q 467 719 426 758 q 507 604 507 681 q 483 492 507 542 q 415 408 460 443 q 307 353 371 372 q 161 335 243 335 l 151 335 q 143 281 146 308 q 140 226 140 254 q 169 113 140 149 q 254 76 197 76 q 324 87 292 76 q 396 119 356 97 l 396 29 q 318 -3 360 7 q 228 -14 276 -14 m 171 418 q 306 441 254 418 q 381 504 357 464 q 406 599 406 544 q 390 649 406 631 q 342 668 375 668 q 272 636 306 668 q 212 548 239 604 q 167 418 185 492 l 171 418 z "},"Ě":{"ha":508,"x_min":0,"x_max":610,"o":"m 0 0 l 210 992 l 569 992 l 549 892 l 300 892 l 232 568 l 464 568 l 442 468 l 210 468 l 132 100 l 381 100 l 360 0 l 0 0 m 347 1071 q 328 1135 342 1094 q 299 1215 314 1175 q 271 1279 283 1256 l 274 1293 l 335 1293 q 356 1261 344 1281 q 383 1217 368 1242 q 413 1164 397 1193 q 483 1237 450 1204 q 547 1293 517 1269 l 610 1293 l 607 1279 q 553 1217 586 1257 q 489 1138 519 1178 q 443 1071 458 1097 l 347 1071 z "},"ě":{"ha":531,"x_min":33,"x_max":585,"o":"m 228 -14 q 123 13 167 -14 q 56 90 79 39 q 33 214 33 142 q 58 425 33 326 q 126 599 82 524 q 228 716 169 674 q 357 758 288 758 q 467 719 426 758 q 507 604 507 681 q 483 492 507 542 q 415 408 460 443 q 307 353 371 372 q 161 335 243 335 l 151 335 q 143 281 146 308 q 140 226 140 254 q 169 113 140 149 q 254 76 197 76 q 324 87 292 76 q 396 119 356 97 l 396 29 q 318 -3 360 7 q 228 -14 276 -14 m 171 418 q 306 441 254 418 q 381 504 357 464 q 406 599 406 544 q 390 649 406 631 q 342 668 375 668 q 272 636 306 668 q 212 548 239 604 q 167 418 185 492 l 171 418 m 322 842 q 303 906 317 865 q 274 986 289 946 q 246 1050 258 1026 l 249 1064 l 310 1064 q 331 1032 319 1051 q 358 988 343 1013 q 388 935 372 964 q 458 1008 425 975 q 522 1064 492 1040 l 585 1064 l 582 1050 q 528 988 561 1028 q 464 908 494 949 q 418 842 433 868 l 322 842 z "},"Ĝ":{"ha":683,"x_min":50,"x_max":714,"o":"m 315 -14 q 115 66 181 -14 q 50 301 50 146 q 72 524 50 418 q 134 719 93 631 q 231 872 175 807 q 357 972 288 936 q 506 1007 426 1007 q 621 990 567 1007 q 714 944 675 972 l 658 849 q 579 892 618 879 q 496 906 540 906 q 360 852 421 906 q 255 711 299 799 q 188 518 211 624 q 165 307 165 413 q 183 181 165 231 q 236 109 200 132 q 325 86 272 86 q 381 90 354 86 q 435 103 408 94 l 503 425 l 381 425 l 401 524 l 635 524 l 529 29 q 420 -3 475 8 q 315 -14 365 -14 m 339 1085 q 401 1155 371 1119 q 456 1226 431 1190 q 503 1293 482 1261 l 599 1293 q 617 1228 604 1268 q 647 1149 631 1189 q 674 1085 663 1110 l 671 1071 l 611 1071 q 585 1109 599 1089 q 559 1152 572 1129 q 533 1200 546 1175 q 462 1128 496 1161 q 399 1071 428 1094 l 336 1071 l 339 1085 z "},"ĝ":{"ha":588,"x_min":-31,"x_max":583,"o":"m 126 -333 q 39 -320 81 -333 q -31 -290 -3 -307 l -31 -186 q 13 -211 -12 -199 q 69 -232 39 -224 q 129 -240 100 -240 q 244 -192 201 -240 q 308 -51 286 -144 l 319 -1 q 329 41 322 14 q 344 97 336 68 l 342 97 q 292 35 318 60 q 237 -2 265 10 q 175 -14 208 -14 q 99 9 131 -14 q 50 78 67 32 q 33 189 33 124 q 45 327 33 251 q 81 479 57 403 q 140 619 104 556 q 225 720 176 682 q 336 758 274 758 q 395 746 371 758 q 435 710 419 733 q 460 650 451 686 l 464 650 l 492 744 l 583 744 l 417 -47 q 358 -210 396 -147 q 263 -303 319 -274 q 126 -333 206 -333 m 215 81 q 277 106 249 81 q 329 172 306 131 q 370 265 353 213 q 399 370 388 317 q 417 474 411 424 q 424 561 424 524 q 403 636 424 610 q 346 663 382 663 q 275 630 307 663 q 219 545 243 597 q 178 431 194 493 q 153 308 161 368 q 144 200 144 247 q 161 110 144 140 q 215 81 178 81 m 192 858 q 253 928 224 893 q 309 999 283 964 q 356 1067 335 1035 l 451 1067 q 470 1002 457 1042 q 499 923 483 963 q 526 858 515 883 l 524 844 l 464 844 q 438 883 451 863 q 412 926 425 903 q 386 974 399 949 q 315 901 349 935 q 251 844 281 868 l 189 844 l 192 858 z "},"Ğ":{"ha":683,"x_min":50,"x_max":714,"o":"m 315 -14 q 115 66 181 -14 q 50 301 50 146 q 72 524 50 418 q 134 719 93 631 q 231 872 175 807 q 357 972 288 936 q 506 1007 426 1007 q 621 990 567 1007 q 714 944 675 972 l 658 849 q 579 892 618 879 q 496 906 540 906 q 360 852 421 906 q 255 711 299 799 q 188 518 211 624 q 165 307 165 413 q 183 181 165 231 q 236 109 200 132 q 325 86 272 86 q 381 90 354 86 q 435 103 408 94 l 503 425 l 381 425 l 401 524 l 635 524 l 529 29 q 420 -3 475 8 q 315 -14 365 -14 m 522 1071 q 443 1088 474 1071 q 398 1135 413 1104 q 383 1207 383 1167 q 385 1233 383 1221 q 388 1256 386 1246 l 457 1256 q 465 1199 457 1221 q 488 1166 472 1176 q 528 1156 503 1156 q 592 1178 568 1156 q 631 1256 617 1201 l 701 1256 q 641 1119 686 1167 q 522 1071 596 1071 z "},"ğ":{"ha":588,"x_min":-31,"x_max":583,"o":"m 126 -333 q 39 -320 81 -333 q -31 -290 -3 -307 l -31 -186 q 13 -211 -12 -199 q 69 -232 39 -224 q 129 -240 100 -240 q 244 -192 201 -240 q 308 -51 286 -144 l 319 -1 q 329 41 322 14 q 344 97 336 68 l 342 97 q 292 35 318 60 q 237 -2 265 10 q 175 -14 208 -14 q 99 9 131 -14 q 50 78 67 32 q 33 189 33 124 q 45 327 33 251 q 81 479 57 403 q 140 619 104 556 q 225 720 176 682 q 336 758 274 758 q 395 746 371 758 q 435 710 419 733 q 460 650 451 686 l 464 650 l 492 744 l 583 744 l 417 -47 q 358 -210 396 -147 q 263 -303 319 -274 q 126 -333 206 -333 m 215 81 q 277 106 249 81 q 329 172 306 131 q 370 265 353 213 q 399 370 388 317 q 417 474 411 424 q 424 561 424 524 q 403 636 424 610 q 346 663 382 663 q 275 630 307 663 q 219 545 243 597 q 178 431 194 493 q 153 308 161 368 q 144 200 144 247 q 161 110 144 140 q 215 81 178 81 m 364 844 q 285 861 315 844 q 240 909 254 878 q 225 981 225 940 q 226 1007 225 994 q 229 1029 228 1019 l 299 1029 q 306 972 299 994 q 329 940 314 950 q 369 929 344 929 q 434 952 410 929 q 472 1029 458 975 l 543 1029 q 483 892 528 940 q 364 844 438 844 z "},"Ġ":{"ha":683,"x_min":50,"x_max":714,"o":"m 315 -14 q 115 66 181 -14 q 50 301 50 146 q 72 524 50 418 q 134 719 93 631 q 231 872 175 807 q 357 972 288 936 q 506 1007 426 1007 q 621 990 567 1007 q 714 944 675 972 l 658 849 q 579 892 618 879 q 496 906 540 906 q 360 852 421 906 q 255 711 299 799 q 188 518 211 624 q 165 307 165 413 q 183 181 165 231 q 236 109 200 132 q 325 86 272 86 q 381 90 354 86 q 435 103 408 94 l 503 425 l 381 425 l 401 524 l 635 524 l 529 29 q 420 -3 475 8 q 315 -14 365 -14 m 535 1099 q 494 1114 508 1099 q 481 1156 481 1129 q 501 1223 481 1193 q 558 1253 521 1253 q 588 1247 576 1253 q 606 1228 600 1240 q 613 1197 613 1217 q 592 1128 613 1158 q 535 1099 571 1099 z "},"ġ":{"ha":588,"x_min":-31,"x_max":583,"o":"m 126 -333 q 39 -320 81 -333 q -31 -290 -3 -307 l -31 -186 q 13 -211 -12 -199 q 69 -232 39 -224 q 129 -240 100 -240 q 244 -192 201 -240 q 308 -51 286 -144 l 319 -1 q 329 41 322 14 q 344 97 336 68 l 342 97 q 292 35 318 60 q 237 -2 265 10 q 175 -14 208 -14 q 99 9 131 -14 q 50 78 67 32 q 33 189 33 124 q 45 327 33 251 q 81 479 57 403 q 140 619 104 556 q 225 720 176 682 q 336 758 274 758 q 395 746 371 758 q 435 710 419 733 q 460 650 451 686 l 464 650 l 492 744 l 583 744 l 417 -47 q 358 -210 396 -147 q 263 -303 319 -274 q 126 -333 206 -333 m 215 81 q 277 106 249 81 q 329 172 306 131 q 370 265 353 213 q 399 370 388 317 q 417 474 411 424 q 424 561 424 524 q 403 636 424 610 q 346 663 382 663 q 275 630 307 663 q 219 545 243 597 q 178 431 194 493 q 153 308 161 368 q 144 200 144 247 q 161 110 144 140 q 215 81 178 81 m 378 869 q 338 885 351 869 q 324 926 324 900 q 344 994 324 964 q 401 1024 364 1024 q 431 1017 419 1024 q 449 999 443 1011 q 456 968 456 988 q 435 899 456 929 q 378 869 414 869 z "},"Ģ":{"ha":683,"x_min":50,"x_max":714,"o":"m 315 -14 q 115 66 181 -14 q 50 301 50 146 q 72 524 50 418 q 134 719 93 631 q 231 872 175 807 q 357 972 288 936 q 506 1007 426 1007 q 621 990 567 1007 q 714 944 675 972 l 658 849 q 579 892 618 879 q 496 906 540 906 q 360 852 421 906 q 255 711 299 799 q 188 518 211 624 q 165 307 165 413 q 183 181 165 231 q 236 109 200 132 q 325 86 272 86 q 381 90 354 86 q 435 103 408 94 l 503 425 l 381 425 l 401 524 l 635 524 l 529 29 q 420 -3 475 8 q 315 -14 365 -14 m 126 -287 q 161 -228 142 -264 q 198 -153 181 -192 q 224 -85 215 -114 l 329 -85 l 329 -99 q 295 -167 319 -128 q 242 -245 271 -207 q 190 -307 214 -283 l 126 -307 l 126 -287 z "},"ģ":{"ha":588,"x_min":-31,"x_max":583,"o":"m 308 856 q 345 926 322 888 q 395 1002 368 965 q 447 1064 422 1039 l 510 1064 l 511 1049 q 477 990 497 1029 q 439 909 457 950 q 413 842 421 868 l 308 842 l 308 856 m 126 -333 q 39 -320 81 -333 q -31 -290 -3 -307 l -31 -186 q 13 -211 -12 -199 q 69 -232 39 -224 q 129 -240 100 -240 q 244 -192 201 -240 q 308 -51 286 -144 l 319 -1 q 329 41 322 14 q 344 97 336 68 l 342 97 q 292 35 318 60 q 237 -2 265 10 q 175 -14 208 -14 q 99 9 131 -14 q 50 78 67 32 q 33 189 33 124 q 45 327 33 251 q 81 479 57 403 q 140 619 104 556 q 225 720 176 682 q 336 758 274 758 q 395 746 371 758 q 435 710 419 733 q 460 650 451 686 l 464 650 l 492 744 l 583 744 l 417 -47 q 358 -210 396 -147 q 263 -303 319 -274 q 126 -333 206 -333 m 215 81 q 277 106 249 81 q 329 172 306 131 q 370 265 353 213 q 399 370 388 317 q 417 474 411 424 q 424 561 424 524 q 403 636 424 610 q 346 663 382 663 q 275 630 307 663 q 219 545 243 597 q 178 431 194 493 q 153 308 161 368 q 144 200 144 247 q 161 110 144 140 q 215 81 178 81 z "},"Ĥ":{"ha":671,"x_min":0,"x_max":701,"o":"m 0 0 l 210 992 l 321 992 l 232 569 l 500 569 l 590 992 l 701 992 l 490 0 l 379 0 l 478 468 l 210 468 l 111 0 l 0 0 m 297 1085 q 359 1155 329 1119 q 415 1226 389 1190 q 461 1293 440 1261 l 557 1293 q 576 1228 563 1268 q 605 1149 589 1189 q 632 1085 621 1110 l 629 1071 l 569 1071 q 544 1109 557 1089 q 517 1152 531 1129 q 492 1200 504 1175 q 420 1128 454 1161 q 357 1071 386 1094 l 294 1071 l 297 1085 z "},"ĥ":{"ha":571,"x_min":0,"x_max":532,"o":"m 0 0 l 224 1056 l 331 1056 l 271 778 q 261 735 267 757 q 250 692 256 714 q 238 650 244 671 l 240 650 q 284 710 260 686 q 338 746 308 733 q 403 758 368 758 q 472 742 443 758 q 516 695 500 726 q 532 617 532 664 q 525 547 532 588 q 511 469 518 506 l 411 0 l 304 0 l 400 454 q 415 527 408 490 q 421 594 421 564 q 406 643 421 626 q 360 660 390 660 q 291 634 322 660 q 236 553 260 608 q 194 411 213 499 l 107 0 l 0 0 m 119 1167 q 181 1237 151 1201 q 237 1308 211 1272 q 283 1375 263 1343 l 379 1375 q 398 1310 385 1350 q 427 1231 411 1271 q 454 1167 443 1192 l 451 1153 l 392 1153 q 366 1191 379 1171 q 340 1234 353 1211 q 314 1282 326 1257 q 242 1210 276 1243 q 179 1153 208 1176 l 117 1153 l 119 1167 z "},"Ħ":{"ha":668,"x_min":0,"x_max":751,"o":"m 0 0 l 156 736 l 65 736 l 83 824 l 174 824 l 210 992 l 321 992 l 285 824 l 553 824 l 589 992 l 701 992 l 665 824 l 751 824 l 733 736 l 647 736 l 490 0 l 379 0 l 478 468 l 210 468 l 111 0 l 0 0 m 231 565 l 499 565 l 535 736 l 267 736 l 231 565 z "},"ħ":{"ha":572,"x_min":0,"x_max":529,"o":"m 0 0 l 181 849 l 96 849 l 114 932 l 197 932 l 224 1056 l 331 1056 l 304 932 l 433 932 l 417 849 l 286 849 q 263 746 272 785 q 247 683 254 707 q 235 640 240 660 l 238 640 q 283 700 258 676 q 337 736 307 724 q 400 749 367 749 q 469 733 440 749 q 514 685 499 717 q 529 607 529 654 q 522 537 529 578 q 508 460 515 496 l 411 0 l 304 0 l 399 444 q 413 517 407 481 q 419 585 419 554 q 403 633 419 617 q 358 650 386 650 q 288 623 318 650 q 234 541 257 596 q 193 401 211 486 l 107 0 l 0 0 z "},"Ĩ":{"ha":361,"x_min":-71,"x_max":546,"o":"m -71 0 l -57 63 l 53 85 l 226 907 l 126 929 l 139 992 l 460 992 l 446 929 l 338 907 l 164 85 l 263 63 l 250 0 l -71 0 m 132 1103 q 162 1197 144 1158 q 205 1256 179 1235 q 267 1276 231 1276 q 316 1264 294 1276 q 354 1235 338 1251 q 387 1207 371 1219 q 419 1194 403 1194 q 454 1213 442 1194 q 478 1278 467 1231 l 546 1278 q 515 1176 535 1214 q 472 1121 496 1138 q 418 1104 447 1104 q 370 1117 392 1104 q 331 1146 349 1129 q 298 1175 314 1163 q 264 1188 282 1188 q 225 1166 240 1188 q 200 1103 210 1144 l 132 1103 z "},"ĩ":{"ha":267,"x_min":-1,"x_max":450,"o":"m -1 0 l 157 744 l 264 744 l 106 0 l -1 0 m 36 844 q 66 938 49 900 q 109 997 83 976 q 171 1018 135 1018 q 220 1006 199 1018 q 258 977 242 993 q 291 949 275 961 q 324 936 307 936 q 358 954 346 936 q 382 1019 371 972 l 450 1019 q 419 917 439 956 q 376 863 400 879 q 322 846 351 846 q 274 858 296 846 q 235 888 253 871 q 202 917 218 904 q 168 929 186 929 q 129 908 144 929 q 104 844 114 886 l 36 844 z "},"Ī":{"ha":361,"x_min":-71,"x_max":501,"o":"m -71 0 l -57 63 l 53 85 l 226 907 l 126 929 l 139 992 l 460 992 l 446 929 l 338 907 l 164 85 l 263 63 l 250 0 l -71 0 m 151 1106 l 168 1189 l 501 1189 l 483 1106 l 151 1106 z "},"ī":{"ha":267,"x_min":-1,"x_max":408,"o":"m -1 0 l 157 744 l 264 744 l 106 0 l -1 0 m 58 847 l 75 931 l 408 931 l 390 847 l 58 847 z "},"Ĭ":{"ha":361,"x_min":-71,"x_max":506,"o":"m -71 0 l -57 63 l 53 85 l 226 907 l 126 929 l 139 992 l 460 992 l 446 929 l 338 907 l 164 85 l 263 63 l 250 0 l -71 0 m 326 1100 q 247 1117 278 1100 q 202 1165 217 1133 q 188 1236 188 1196 q 189 1263 188 1250 q 192 1285 190 1275 l 261 1285 q 269 1228 261 1250 q 292 1195 276 1206 q 332 1185 307 1185 q 397 1208 372 1185 q 435 1285 421 1231 l 506 1285 q 445 1148 490 1196 q 326 1100 400 1100 z "},"ĭ":{"ha":267,"x_min":-1,"x_max":415,"o":"m -1 0 l 157 744 l 264 744 l 106 0 l -1 0 m 236 842 q 157 858 188 842 q 112 906 126 875 q 97 978 97 938 q 99 1004 97 992 q 101 1026 100 1017 l 171 1026 q 178 969 171 992 q 201 937 186 947 q 242 926 217 926 q 306 949 282 926 q 344 1026 331 972 l 415 1026 q 355 890 400 938 q 236 842 310 842 z "},"Į":{"ha":361,"x_min":-71,"x_max":460,"o":"m -71 0 l -57 63 l 53 85 l 226 907 l 126 929 l 139 992 l 460 992 l 446 929 l 338 907 l 164 85 l 263 63 l 250 0 l -71 0 m 60 -311 q -17 -283 8 -311 q -43 -211 -43 -254 q -28 -137 -43 -172 q 17 -69 -14 -103 q 96 0 49 -35 l 168 0 q 103 -67 128 -36 q 66 -127 78 -99 q 54 -185 54 -156 q 65 -219 54 -207 q 99 -232 76 -232 q 123 -229 110 -232 q 150 -224 136 -226 l 133 -299 q 99 -308 117 -306 q 60 -311 81 -311 z "},"į":{"ha":267,"x_min":-115,"x_max":319,"o":"m -1 0 l 157 744 l 264 744 l 106 0 l -1 0 m 242 869 q 202 883 215 869 q 189 924 189 897 q 198 972 189 949 q 224 1009 207 994 q 268 1024 242 1024 q 306 1011 293 1024 q 319 972 319 999 q 299 899 319 929 q 242 869 278 869 m -12 -311 q -90 -283 -64 -311 q -115 -211 -115 -254 q -101 -137 -115 -172 q -55 -69 -86 -103 q 24 0 -24 -35 l 96 0 q 31 -67 56 -36 q -6 -127 6 -99 q -18 -185 -18 -156 q -7 -219 -18 -207 q 26 -232 4 -232 q 51 -229 38 -232 q 78 -224 64 -226 l 61 -299 q 26 -308 44 -306 q -12 -311 8 -311 z "},"İ":{"ha":361,"x_min":-71,"x_max":460,"o":"m -71 0 l -57 63 l 53 85 l 226 907 l 126 929 l 139 992 l 460 992 l 446 929 l 338 907 l 164 85 l 263 63 l 250 0 l -71 0 m 333 1128 q 293 1143 307 1128 q 279 1185 279 1158 q 299 1252 279 1222 q 357 1282 319 1282 q 387 1276 375 1282 q 405 1258 399 1269 q 411 1226 411 1246 q 390 1158 411 1188 q 333 1128 369 1128 z "},"Ĳ":{"ha":651,"x_min":-71,"x_max":693,"o":"m -71 0 l -57 63 l 53 85 l 226 907 l 126 929 l 139 992 l 460 992 l 446 929 l 338 907 l 164 85 l 263 63 l 250 0 l -71 0 m 260 -267 q 207 -262 229 -267 q 167 -250 185 -258 l 192 -150 q 224 -162 207 -157 q 257 -167 240 -167 q 311 -147 290 -167 q 347 -89 332 -126 q 372 0 361 -51 l 582 992 l 693 992 l 479 -19 q 431 -160 461 -106 q 359 -241 401 -215 q 260 -267 317 -267 z "},"ĳ":{"ha":535,"x_min":-1,"x_max":588,"o":"m -1 0 l 157 744 l 264 744 l 106 0 l -1 0 m 242 869 q 202 883 215 869 q 189 924 189 897 q 198 972 189 949 q 224 1009 207 994 q 268 1024 242 1024 q 306 1011 293 1024 q 319 972 319 999 q 299 899 319 929 q 242 869 278 869 m 158 -333 q 121 -331 139 -333 q 88 -324 103 -329 l 88 -226 q 115 -234 99 -232 q 146 -236 132 -236 q 197 -220 178 -236 q 228 -166 215 -204 q 254 -61 242 -128 l 425 744 l 532 744 l 358 -69 q 322 -207 343 -147 q 262 -300 300 -267 q 158 -333 224 -333 m 510 869 q 470 883 483 869 q 457 924 457 897 q 466 972 457 949 q 492 1009 475 994 q 536 1024 510 1024 q 574 1011 561 1024 q 588 972 588 999 q 567 899 588 929 q 510 869 546 869 z "},"Ĵ":{"ha":281,"x_min":-204,"x_max":442,"o":"m -111 -267 q -164 -262 -142 -267 q -204 -250 -186 -258 l -179 -150 q -147 -162 -164 -157 q -114 -167 -131 -167 q -60 -147 -81 -167 q -24 -89 -39 -126 q 1 0 -10 -51 l 211 992 l 322 992 l 108 -19 q 60 -160 90 -106 q -12 -241 31 -215 q -111 -267 -54 -267 m 107 1085 q 169 1155 139 1119 q 224 1226 199 1190 q 271 1293 250 1261 l 367 1293 q 385 1228 372 1268 q 415 1149 399 1189 q 442 1085 431 1110 l 439 1071 l 379 1071 q 353 1109 367 1089 q 327 1152 340 1129 q 301 1200 314 1175 q 230 1128 264 1161 q 167 1071 196 1094 l 104 1071 l 107 1085 z "},"ĵ":{"ha":267,"x_min":-179,"x_max":389,"o":"m -108 -333 q -146 -331 -128 -333 q -179 -324 -164 -329 l -179 -226 q -151 -234 -168 -232 q -121 -236 -135 -236 q -70 -220 -89 -236 q -38 -166 -51 -204 q -12 -61 -25 -128 l 158 744 l 265 744 l 92 -69 q 55 -207 76 -147 q -5 -300 33 -267 q -108 -333 -43 -333 m 54 856 q 116 926 86 890 q 172 997 146 961 q 218 1064 197 1032 l 314 1064 q 333 999 319 1039 q 362 920 346 960 q 389 856 378 881 l 386 842 l 326 842 q 301 880 314 860 q 274 923 288 900 q 249 971 261 946 q 177 899 211 932 q 114 842 143 865 l 51 842 l 54 856 z "},"Ķ":{"ha":563,"x_min":0,"x_max":675,"o":"m 0 0 l 210 992 l 321 992 l 217 499 l 293 617 l 554 992 l 675 992 l 363 538 l 476 0 l 356 0 l 267 453 l 190 375 l 111 0 l 0 0 m 67 -287 q 101 -228 82 -264 q 138 -153 121 -192 q 164 -85 156 -114 l 269 -85 l 269 -99 q 235 -167 260 -128 q 183 -245 211 -207 q 131 -307 154 -283 l 67 -307 l 67 -287 z "},"ķ":{"ha":501,"x_min":0,"x_max":563,"o":"m 0 0 l 225 1056 l 332 1056 l 222 546 q 208 481 217 518 q 186 397 199 443 l 189 397 l 446 744 l 563 744 l 339 443 l 418 0 l 304 0 l 246 354 l 161 263 l 107 0 l 0 0 m 36 -287 q 71 -228 51 -264 q 108 -153 90 -192 q 133 -85 125 -114 l 239 -85 l 239 -99 q 205 -167 229 -128 q 152 -245 181 -207 q 100 -307 124 -283 l 36 -307 l 36 -287 z "},"ĸ":{"ha":503,"x_min":0,"x_max":563,"o":"m 0 0 l 160 744 l 267 744 l 222 544 q 207 480 215 517 q 186 397 199 443 l 189 397 l 446 744 l 563 744 l 339 443 l 418 0 l 304 0 l 246 354 l 161 263 l 107 0 l 0 0 z "},"Ĺ":{"ha":468,"x_min":0,"x_max":586,"o":"m 0 0 l 210 992 l 321 992 l 132 100 l 375 100 l 356 0 l 0 0 m 304 1110 q 364 1184 336 1147 q 415 1255 392 1221 q 456 1319 439 1289 l 586 1319 l 585 1308 q 544 1258 571 1288 q 485 1199 517 1229 q 424 1141 453 1168 q 374 1097 394 1114 l 303 1097 l 304 1110 z "},"ĺ":{"ha":264,"x_min":0,"x_max":497,"o":"m 0 0 l 225 1056 l 332 1056 l 107 0 l 0 0 m 215 1174 q 275 1248 247 1211 q 326 1319 303 1285 q 367 1383 350 1353 l 497 1383 l 496 1372 q 455 1322 482 1351 q 396 1263 428 1293 q 335 1205 364 1232 q 285 1161 306 1178 l 214 1161 l 215 1174 z "},"Ļ":{"ha":468,"x_min":0,"x_max":375,"o":"m 0 0 l 210 992 l 321 992 l 132 100 l 375 100 l 356 0 l 0 0 m 18 -287 q 53 -228 33 -264 q 90 -153 72 -192 q 115 -85 107 -114 l 221 -85 l 221 -99 q 187 -167 211 -128 q 134 -245 163 -207 q 82 -307 106 -283 l 18 -307 l 18 -287 z "},"ļ":{"ha":264,"x_min":-83,"x_max":332,"o":"m 0 0 l 225 1056 l 332 1056 l 107 0 l 0 0 m -83 -287 q -49 -228 -68 -264 q -12 -153 -29 -192 q 14 -85 6 -114 l 119 -85 l 119 -99 q 85 -167 110 -128 q 33 -245 61 -207 q -19 -307 4 -283 l -83 -307 l -83 -287 z "},"Ľ":{"ha":468,"x_min":0,"x_max":549,"o":"m 365 781 q 397 856 383 819 q 423 927 411 893 q 442 990 435 961 l 549 990 l 549 976 q 517 909 538 949 q 472 832 496 869 q 429 768 449 794 l 365 768 l 365 781 m 0 0 l 210 992 l 321 992 l 132 100 l 375 100 l 356 0 l 0 0 z "},"ľ":{"ha":375,"x_min":0,"x_max":533,"o":"m 350 846 q 382 922 368 885 q 408 992 396 958 q 426 1056 419 1026 l 533 1056 l 533 1042 q 501 974 522 1014 q 457 897 481 935 q 414 833 433 860 l 350 833 l 350 846 m 0 0 l 225 1056 l 332 1056 l 107 0 l 0 0 z "},"Ŀ":{"ha":468,"x_min":0,"x_max":447,"o":"m 0 0 l 210 992 l 321 992 l 132 100 l 375 100 l 356 0 l 0 0 m 369 433 q 329 449 343 433 q 315 490 315 464 q 335 558 315 528 q 393 588 356 588 q 423 581 411 588 q 441 563 435 575 q 447 532 447 551 q 426 463 447 493 q 369 433 406 433 z "},"ŀ":{"ha":397,"x_min":0,"x_max":421,"o":"m 0 0 l 225 1056 l 332 1056 l 107 0 l 0 0 m 343 386 q 303 401 317 386 q 289 443 289 417 q 309 510 289 481 q 367 540 329 540 q 397 534 385 540 q 415 516 408 528 q 421 485 421 504 q 400 416 421 446 q 343 386 379 386 z "},"Ł":{"ha":475,"x_min":-32,"x_max":418,"o":"m 10 0 l 89 374 l 10 328 l -32 400 l 114 490 l 219 992 l 331 992 l 243 576 l 374 656 l 418 585 l 217 458 l 142 100 l 385 100 l 365 0 l 10 0 z "},"ł":{"ha":301,"x_min":-8,"x_max":378,"o":"m 11 0 l 106 444 l 25 399 l -8 474 l 126 549 l 235 1056 l 342 1056 l 246 606 l 343 661 l 378 588 l 224 501 l 117 0 l 11 0 z "},"Ń":{"ha":713,"x_min":0,"x_max":744,"o":"m 0 0 l 210 992 l 342 992 l 471 201 l 475 201 q 492 300 483 251 q 510 390 501 349 q 524 458 518 431 l 636 992 l 744 992 l 533 0 l 406 0 l 274 803 l 269 803 q 256 720 264 764 q 240 635 249 676 q 225 561 232 594 q 214 508 218 528 l 107 0 l 0 0 m 428 1110 q 488 1184 460 1147 q 539 1255 515 1221 q 579 1319 563 1289 l 710 1319 l 708 1308 q 667 1258 694 1288 q 608 1199 640 1229 q 547 1141 576 1168 q 497 1097 518 1114 l 426 1097 l 428 1110 z "},"ń":{"ha":571,"x_min":-1,"x_max":586,"o":"m -1 0 l 157 744 l 244 744 l 231 644 l 235 644 q 281 707 256 682 q 335 745 306 732 q 399 758 365 758 q 467 744 438 758 q 515 698 497 729 q 532 618 532 667 q 526 551 532 589 q 513 478 519 514 l 411 0 l 304 0 l 401 463 q 415 532 408 496 q 421 594 421 568 q 406 643 421 626 q 361 660 392 660 q 288 630 319 660 q 233 542 257 600 q 192 400 210 485 l 107 0 l -1 0 m 304 856 q 364 930 336 893 q 415 1001 392 967 q 456 1065 439 1035 l 586 1065 l 585 1054 q 544 1004 571 1033 q 485 944 517 975 q 424 887 453 914 q 374 843 394 860 l 303 843 l 304 856 z "},"Ņ":{"ha":713,"x_min":0,"x_max":744,"o":"m 0 0 l 210 992 l 342 992 l 471 201 l 475 201 q 492 300 483 251 q 510 390 501 349 q 524 458 518 431 l 636 992 l 744 992 l 533 0 l 406 0 l 274 803 l 269 803 q 256 720 264 764 q 240 635 249 676 q 225 561 232 594 q 214 508 218 528 l 107 0 l 0 0 m 142 -287 q 176 -228 157 -264 q 213 -153 196 -192 q 239 -85 231 -114 l 344 -85 l 344 -99 q 310 -167 335 -128 q 258 -245 286 -207 q 206 -307 229 -283 l 142 -307 l 142 -287 z "},"ņ":{"ha":571,"x_min":-1,"x_max":532,"o":"m -1 0 l 157 744 l 244 744 l 231 644 l 235 644 q 281 707 256 682 q 335 745 306 732 q 399 758 365 758 q 467 744 438 758 q 515 698 497 729 q 532 618 532 667 q 526 551 532 589 q 513 478 519 514 l 411 0 l 304 0 l 401 463 q 415 532 408 496 q 421 594 421 568 q 406 643 421 626 q 361 660 392 660 q 288 630 319 660 q 233 542 257 600 q 192 400 210 485 l 107 0 l -1 0 m 72 -287 q 107 -228 88 -264 q 144 -153 126 -192 q 169 -85 161 -114 l 275 -85 l 275 -99 q 241 -167 265 -128 q 188 -245 217 -207 q 136 -307 160 -283 l 72 -307 l 72 -287 z "},"Ň":{"ha":713,"x_min":0,"x_max":744,"o":"m 0 0 l 210 992 l 342 992 l 471 201 l 475 201 q 492 300 483 251 q 510 390 501 349 q 524 458 518 431 l 636 992 l 744 992 l 533 0 l 406 0 l 274 803 l 269 803 q 256 720 264 764 q 240 635 249 676 q 225 561 232 594 q 214 508 218 528 l 107 0 l 0 0 m 429 1071 q 410 1135 424 1094 q 381 1215 396 1175 q 353 1279 365 1256 l 356 1293 l 417 1293 q 438 1261 426 1281 q 465 1217 450 1242 q 494 1164 479 1193 q 565 1237 532 1204 q 629 1293 599 1269 l 692 1293 l 689 1279 q 635 1217 668 1257 q 571 1138 601 1178 q 525 1071 540 1097 l 429 1071 z "},"ň":{"ha":571,"x_min":-1,"x_max":581,"o":"m -1 0 l 157 744 l 244 744 l 231 644 l 235 644 q 281 707 256 682 q 335 745 306 732 q 399 758 365 758 q 467 744 438 758 q 515 698 497 729 q 532 618 532 667 q 526 551 532 589 q 513 478 519 514 l 411 0 l 304 0 l 401 463 q 415 532 408 496 q 421 594 421 568 q 406 643 421 626 q 361 660 392 660 q 288 630 319 660 q 233 542 257 600 q 192 400 210 485 l 107 0 l -1 0 m 318 842 q 299 906 313 865 q 269 986 285 946 q 242 1050 254 1026 l 244 1064 l 306 1064 q 327 1032 315 1051 q 353 988 339 1013 q 383 935 368 964 q 454 1008 421 975 q 518 1064 488 1040 l 581 1064 l 578 1050 q 524 988 557 1028 q 460 908 490 949 q 414 842 429 868 l 318 842 z "},"ŉ":{"ha":631,"x_min":11,"x_max":592,"o":"m 58 0 l 217 744 l 304 744 l 290 644 l 294 644 q 340 707 315 682 q 395 745 365 732 q 458 758 425 758 q 527 744 497 758 q 574 698 557 729 q 592 618 592 667 q 585 551 592 589 q 572 478 579 514 l 471 0 l 364 0 l 461 463 q 474 532 468 496 q 481 594 481 568 q 466 643 481 626 q 421 660 451 660 q 348 630 379 660 q 293 542 317 600 q 251 400 269 485 l 167 0 l 58 0 m 11 653 q 60 767 38 710 q 104 881 83 824 q 140 992 125 938 l 250 992 l 256 976 q 209 867 235 922 q 155 758 183 813 q 96 653 126 704 l 11 653 z "},"Ŋ":{"ha":713,"x_min":0,"x_max":744,"o":"m 307 -265 q 261 -260 285 -265 q 221 -247 238 -256 l 243 -146 q 276 -158 258 -154 q 313 -162 293 -162 q 363 -146 343 -162 q 397 -95 383 -129 q 419 -10 411 -61 l 276 815 l 272 815 q 266 772 269 794 q 258 725 263 749 q 249 678 254 701 q 239 631 244 654 l 107 0 l 0 0 l 210 992 l 344 992 l 475 222 l 479 222 q 488 275 483 249 q 497 328 492 301 q 508 383 503 356 l 636 992 l 744 992 l 536 10 q 493 -135 518 -74 q 425 -231 468 -197 q 307 -265 382 -265 z "},"ŋ":{"ha":569,"x_min":-1,"x_max":532,"o":"m 194 -333 q 155 -331 172 -333 q 124 -324 138 -328 l 124 -226 q 153 -234 136 -232 q 183 -236 169 -236 q 232 -221 214 -236 q 264 -167 250 -206 q 292 -61 278 -129 l 401 463 q 415 532 408 496 q 421 594 421 568 q 406 643 421 626 q 361 660 392 660 q 288 631 319 660 q 234 545 257 601 q 193 410 211 489 l 107 0 l -1 0 l 157 744 l 244 744 l 231 644 l 235 644 q 281 707 256 682 q 335 745 306 732 q 399 758 365 758 q 467 744 438 758 q 515 698 497 729 q 532 618 532 667 q 526 551 532 589 q 513 478 519 514 l 396 -69 q 351 -224 375 -167 q 290 -308 326 -282 q 194 -333 254 -333 z "},"Ō":{"ha":689,"x_min":49,"x_max":668,"o":"m 265 -14 q 144 17 193 -14 q 72 114 96 49 q 49 278 49 179 q 60 435 49 353 q 93 599 71 518 q 149 754 115 681 q 228 884 183 828 q 330 973 274 940 q 454 1006 386 1006 q 615 936 563 1006 q 668 725 668 867 q 658 581 668 660 q 628 418 649 501 q 575 258 607 335 q 498 119 543 181 q 395 22 453 58 q 265 -14 338 -14 m 274 88 q 360 119 321 88 q 430 203 399 150 q 485 324 461 257 q 524 463 508 390 q 547 603 539 535 q 554 726 554 671 q 527 862 554 818 q 444 906 500 906 q 353 872 393 906 q 281 783 313 839 q 228 658 250 726 q 192 518 206 589 q 171 384 178 447 q 164 276 164 321 q 176 168 164 210 q 213 107 189 126 q 274 88 238 88 m 304 1076 l 321 1160 l 654 1160 l 636 1076 l 304 1076 z "},"ō":{"ha":565,"x_min":35,"x_max":550,"o":"m 213 -14 q 117 12 157 -14 q 56 88 76 38 q 35 211 35 139 q 45 340 35 268 q 79 485 56 411 q 140 620 103 558 q 230 720 176 682 q 354 758 283 758 q 449 732 410 758 q 510 655 489 706 q 531 531 531 604 q 518 387 531 463 q 481 240 506 311 q 419 112 457 169 q 329 20 381 54 q 213 -14 278 -14 m 224 81 q 292 110 261 81 q 347 190 324 140 q 388 300 371 240 q 413 421 404 360 q 421 533 421 482 q 412 605 421 575 q 385 650 403 635 q 340 665 368 665 q 268 633 300 665 q 213 547 236 600 q 174 433 189 494 q 151 313 158 372 q 143 210 143 254 q 163 114 143 147 q 224 81 183 81 m 200 847 l 217 931 l 550 931 l 532 847 l 200 847 z "},"Ŏ":{"ha":689,"x_min":49,"x_max":668,"o":"m 265 -14 q 144 17 193 -14 q 72 114 96 49 q 49 278 49 179 q 60 435 49 353 q 93 599 71 518 q 149 754 115 681 q 228 884 183 828 q 330 973 274 940 q 454 1006 386 1006 q 615 936 563 1006 q 668 725 668 867 q 658 581 668 660 q 628 418 649 501 q 575 258 607 335 q 498 119 543 181 q 395 22 453 58 q 265 -14 338 -14 m 274 88 q 360 119 321 88 q 430 203 399 150 q 485 324 461 257 q 524 463 508 390 q 547 603 539 535 q 554 726 554 671 q 527 862 554 818 q 444 906 500 906 q 353 872 393 906 q 281 783 313 839 q 228 658 250 726 q 192 518 206 589 q 171 384 178 447 q 164 276 164 321 q 176 168 164 210 q 213 107 189 126 q 274 88 238 88 m 481 1071 q 401 1088 432 1071 q 356 1135 371 1104 q 342 1207 342 1167 q 343 1233 342 1221 q 346 1256 344 1246 l 415 1256 q 423 1199 415 1221 q 446 1166 431 1176 q 486 1156 461 1156 q 551 1178 526 1156 q 589 1256 575 1201 l 660 1256 q 599 1119 644 1167 q 481 1071 554 1071 z "},"ŏ":{"ha":565,"x_min":35,"x_max":564,"o":"m 213 -14 q 117 12 157 -14 q 56 88 76 38 q 35 211 35 139 q 45 340 35 268 q 79 485 56 411 q 140 620 103 558 q 230 720 176 682 q 354 758 283 758 q 449 732 410 758 q 510 655 489 706 q 531 531 531 604 q 518 387 531 463 q 481 240 506 311 q 419 112 457 169 q 329 20 381 54 q 213 -14 278 -14 m 224 81 q 292 110 261 81 q 347 190 324 140 q 388 300 371 240 q 413 421 404 360 q 421 533 421 482 q 412 605 421 575 q 385 650 403 635 q 340 665 368 665 q 268 633 300 665 q 213 547 236 600 q 174 433 189 494 q 151 313 158 372 q 143 210 143 254 q 163 114 143 147 q 224 81 183 81 m 385 842 q 306 858 336 842 q 260 906 275 875 q 246 978 246 938 q 247 1004 246 992 q 250 1026 249 1017 l 319 1026 q 327 969 319 992 q 350 937 335 947 q 390 926 365 926 q 455 949 431 926 q 493 1026 479 972 l 564 1026 q 503 890 549 938 q 385 842 458 842 z "},"Ő":{"ha":689,"x_min":49,"x_max":782,"o":"m 265 -14 q 144 17 193 -14 q 72 114 96 49 q 49 278 49 179 q 60 435 49 353 q 93 599 71 518 q 149 754 115 681 q 228 884 183 828 q 330 973 274 940 q 454 1006 386 1006 q 615 936 563 1006 q 668 725 668 867 q 658 581 668 660 q 628 418 649 501 q 575 258 607 335 q 498 119 543 181 q 395 22 453 58 q 265 -14 338 -14 m 274 88 q 360 119 321 88 q 430 203 399 150 q 485 324 461 257 q 524 463 508 390 q 547 603 539 535 q 554 726 554 671 q 527 862 554 818 q 444 906 500 906 q 353 872 393 906 q 281 783 313 839 q 228 658 250 726 q 192 518 206 589 q 171 384 178 447 q 164 276 164 321 q 176 168 164 210 q 213 107 189 126 q 274 88 238 88 m 518 1085 q 580 1165 551 1126 q 630 1235 608 1203 q 665 1293 651 1268 l 782 1293 l 781 1282 q 742 1233 767 1261 q 687 1174 717 1204 q 627 1117 657 1143 q 572 1071 597 1090 l 515 1071 l 518 1085 m 313 1085 q 374 1165 346 1126 q 424 1235 401 1203 q 460 1293 446 1268 l 576 1293 l 575 1282 q 537 1232 561 1260 q 482 1174 513 1204 q 421 1118 451 1144 q 364 1071 390 1092 l 310 1071 l 313 1085 z "},"ő":{"ha":565,"x_min":35,"x_max":696,"o":"m 213 -14 q 117 12 157 -14 q 56 88 76 38 q 35 211 35 139 q 45 340 35 268 q 79 485 56 411 q 140 620 103 558 q 230 720 176 682 q 354 758 283 758 q 449 732 410 758 q 510 655 489 706 q 531 531 531 604 q 518 387 531 463 q 481 240 506 311 q 419 112 457 169 q 329 20 381 54 q 213 -14 278 -14 m 224 81 q 292 110 261 81 q 347 190 324 140 q 388 300 371 240 q 413 421 404 360 q 421 533 421 482 q 412 605 421 575 q 385 650 403 635 q 340 665 368 665 q 268 633 300 665 q 213 547 236 600 q 174 433 189 494 q 151 313 158 372 q 143 210 143 254 q 163 114 143 147 q 224 81 183 81 m 432 856 q 494 935 465 897 q 544 1006 522 974 q 579 1064 565 1039 l 696 1064 l 694 1053 q 656 1003 681 1032 q 601 944 631 975 q 541 888 571 914 q 486 842 511 861 l 429 842 l 432 856 m 226 856 q 288 935 260 897 q 338 1006 315 974 q 374 1064 360 1039 l 490 1064 l 489 1053 q 451 1003 475 1031 q 396 945 426 975 q 335 889 365 915 q 278 842 304 863 l 224 842 l 226 856 z "},"Œ":{"ha":807,"x_min":49,"x_max":871,"o":"m 265 -7 q 144 27 193 -7 q 72 124 96 61 q 49 274 49 188 q 62 453 49 356 q 104 647 75 550 q 181 823 133 743 q 294 951 228 903 q 449 999 360 999 q 511 997 481 999 q 560 992 542 994 l 871 992 l 850 892 l 601 892 l 533 568 l 765 568 l 744 468 l 513 468 l 433 100 l 682 100 l 661 0 l 354 0 q 317 -4 340 -1 q 265 -7 293 -7 m 289 94 q 309 95 300 94 q 324 97 318 96 l 492 892 q 473 897 483 894 q 444 899 463 899 q 342 857 388 899 q 264 747 297 815 q 208 597 231 679 q 175 432 186 514 q 164 282 164 350 q 176 178 164 219 q 217 115 189 136 q 289 94 244 94 z "},"œ":{"ha":876,"x_min":35,"x_max":857,"o":"m 206 -14 q 81 44 126 -14 q 35 214 35 103 q 44 334 35 264 q 76 478 54 404 q 135 615 99 551 q 225 719 172 679 q 350 758 278 758 q 451 719 415 758 q 494 603 486 681 q 590 717 535 676 q 707 758 646 758 q 817 719 776 758 q 857 604 857 681 q 833 492 857 542 q 765 408 810 443 q 657 353 721 372 q 511 335 593 335 l 500 335 q 492 281 494 308 q 490 226 490 253 q 519 113 490 149 q 604 76 547 76 q 677 88 642 76 q 747 119 713 99 l 747 32 q 667 -2 710 10 q 578 -14 625 -14 q 497 3 531 -14 q 442 55 463 21 q 411 139 421 89 q 324 26 375 67 q 206 -14 272 -14 m 224 79 q 292 110 261 79 q 347 191 324 140 q 388 302 371 242 q 413 424 404 363 q 421 538 421 486 q 401 633 421 601 q 340 664 381 664 q 270 633 301 664 q 215 551 239 603 q 176 440 192 500 q 151 318 160 379 q 143 207 143 257 q 164 111 143 143 q 224 79 185 79 m 522 418 q 657 441 606 418 q 732 505 708 464 q 756 599 756 546 q 740 649 756 631 q 692 668 725 668 q 615 630 651 668 q 553 534 579 592 q 517 418 528 476 l 522 418 z "},"Ŕ":{"ha":581,"x_min":0,"x_max":642,"o":"m 0 0 l 210 992 l 360 992 q 529 935 471 992 q 588 776 588 879 q 563 623 588 694 q 492 503 538 551 q 383 438 446 454 l 472 0 l 351 0 l 276 415 l 199 415 l 111 0 l 0 0 m 281 510 q 366 531 331 510 q 425 588 401 553 q 460 669 449 624 q 471 763 471 715 q 438 860 471 828 q 343 893 406 893 l 300 893 l 219 510 l 281 510 m 360 1110 q 419 1184 392 1147 q 471 1255 447 1221 q 511 1319 494 1289 l 642 1319 l 640 1308 q 599 1258 626 1288 q 540 1199 572 1229 q 479 1141 508 1168 q 429 1097 450 1114 l 358 1097 l 360 1110 z "},"ŕ":{"ha":383,"x_min":0,"x_max":489,"o":"m 0 0 l 157 744 l 240 744 l 225 622 l 229 622 q 274 699 250 668 q 328 744 299 729 q 394 758 358 758 q 421 756 408 758 q 447 750 433 754 l 415 636 q 392 644 404 642 q 365 646 381 646 q 301 623 329 646 q 251 563 272 600 q 214 479 229 525 q 189 389 199 433 l 107 0 l 0 0 m 207 853 q 267 927 239 890 q 318 998 294 964 q 358 1063 342 1032 l 489 1063 l 488 1051 q 447 1001 474 1031 q 388 942 419 972 q 326 884 356 911 q 276 840 297 857 l 206 840 l 207 853 z "},"Ŗ":{"ha":581,"x_min":0,"x_max":588,"o":"m 0 0 l 210 992 l 360 992 q 529 935 471 992 q 588 776 588 879 q 563 623 588 694 q 492 503 538 551 q 383 438 446 454 l 472 0 l 351 0 l 276 415 l 199 415 l 111 0 l 0 0 m 281 510 q 366 531 331 510 q 425 588 401 553 q 460 669 449 624 q 471 763 471 715 q 438 860 471 828 q 343 893 406 893 l 300 893 l 219 510 l 281 510 m 75 -287 q 110 -228 90 -264 q 147 -153 129 -192 q 172 -85 164 -114 l 278 -85 l 278 -99 q 244 -167 268 -128 q 191 -245 219 -207 q 139 -307 163 -283 l 75 -307 l 75 -287 z "},"ŗ":{"ha":383,"x_min":-24,"x_max":447,"o":"m 0 0 l 157 744 l 240 744 l 225 622 l 229 622 q 274 699 250 668 q 328 744 299 729 q 394 758 358 758 q 421 756 408 758 q 447 750 433 754 l 415 636 q 392 644 404 642 q 365 646 381 646 q 301 623 329 646 q 251 563 272 600 q 214 479 229 525 q 189 389 199 433 l 107 0 l 0 0 m -24 -287 q 11 -228 -8 -264 q 48 -153 31 -192 q 74 -85 65 -114 l 179 -85 l 179 -99 q 145 -167 169 -128 q 92 -245 121 -207 q 40 -307 64 -283 l -24 -307 l -24 -287 z "},"Ř":{"ha":581,"x_min":0,"x_max":615,"o":"m 0 0 l 210 992 l 360 992 q 529 935 471 992 q 588 776 588 879 q 563 623 588 694 q 492 503 538 551 q 383 438 446 454 l 472 0 l 351 0 l 276 415 l 199 415 l 111 0 l 0 0 m 281 510 q 366 531 331 510 q 425 588 401 553 q 460 669 449 624 q 471 763 471 715 q 438 860 471 828 q 343 893 406 893 l 300 893 l 219 510 l 281 510 m 353 1071 q 333 1135 347 1094 q 304 1215 319 1175 q 276 1279 289 1256 l 279 1293 l 340 1293 q 362 1261 350 1281 q 388 1217 374 1242 q 418 1164 403 1193 q 489 1237 456 1204 q 553 1293 522 1269 l 615 1293 l 613 1279 q 558 1217 592 1257 q 494 1138 525 1178 q 449 1071 464 1097 l 353 1071 z "},"ř":{"ha":383,"x_min":0,"x_max":524,"o":"m 0 0 l 157 744 l 240 744 l 225 622 l 229 622 q 274 699 250 668 q 328 744 299 729 q 394 758 358 758 q 421 756 408 758 q 447 750 433 754 l 415 636 q 392 644 404 642 q 365 646 381 646 q 301 623 329 646 q 251 563 272 600 q 214 479 229 525 q 189 389 199 433 l 107 0 l 0 0 m 261 842 q 242 906 256 865 q 213 986 228 946 q 185 1050 197 1026 l 188 1064 l 249 1064 q 270 1032 258 1051 q 297 988 282 1013 q 326 935 311 964 q 397 1008 364 975 q 461 1064 431 1040 l 524 1064 l 521 1050 q 467 988 500 1028 q 403 908 433 949 q 357 842 372 868 l 261 842 z "},"Ś":{"ha":522,"x_min":-32,"x_max":614,"o":"m 158 -14 q 49 -2 99 -14 q -32 32 0 10 l -17 149 q 66 108 19 124 q 161 92 113 92 q 229 104 199 92 q 283 140 260 117 q 317 197 306 163 q 329 274 329 231 q 321 340 329 311 q 290 400 313 368 q 225 475 268 432 q 162 548 189 513 q 120 626 135 583 q 106 722 106 668 q 126 840 106 788 q 183 928 146 892 q 272 985 219 965 q 389 1006 325 1006 q 490 991 438 1006 q 572 954 542 976 l 519 853 q 452 888 488 875 q 381 901 417 901 q 319 890 347 901 q 268 858 290 879 q 234 805 246 836 q 222 735 222 774 q 235 664 222 694 q 275 602 249 633 q 340 531 301 571 q 400 458 376 494 q 435 379 424 421 q 446 283 446 338 q 427 164 446 218 q 372 69 408 110 q 281 8 335 29 q 158 -14 228 -14 m 332 1110 q 392 1184 364 1147 q 443 1255 419 1221 q 483 1319 467 1289 l 614 1319 l 613 1308 q 572 1258 599 1288 q 513 1199 544 1229 q 451 1141 481 1168 q 401 1097 422 1114 l 331 1097 l 332 1110 z "},"ś":{"ha":439,"x_min":-15,"x_max":517,"o":"m 139 -14 q 49 -3 90 -14 q -15 21 8 7 l -15 131 q 50 97 10 111 q 128 82 90 82 q 192 96 165 82 q 233 138 219 110 q 247 204 247 165 q 241 252 247 231 q 218 298 235 274 q 169 354 201 322 q 118 414 139 385 q 87 476 97 443 q 76 547 76 508 q 101 654 76 607 q 174 730 126 701 q 288 758 222 758 q 383 745 340 758 q 457 710 426 732 l 410 624 q 353 656 383 644 q 290 667 322 667 q 215 638 243 667 q 186 563 186 610 q 192 517 186 538 q 213 474 197 496 q 256 425 228 453 q 316 358 293 388 q 349 295 339 328 q 360 215 360 263 q 334 94 360 146 q 259 15 308 43 q 139 -14 210 -14 m 235 853 q 294 927 267 890 q 346 998 322 964 q 386 1063 369 1032 l 517 1063 l 515 1051 q 474 1001 501 1031 q 415 942 447 972 q 354 884 383 911 q 304 840 325 857 l 233 840 l 235 853 z "},"Ŝ":{"ha":522,"x_min":-32,"x_max":572,"o":"m 158 -14 q 49 -2 99 -14 q -32 32 0 10 l -17 149 q 66 108 19 124 q 161 92 113 92 q 229 104 199 92 q 283 140 260 117 q 317 197 306 163 q 329 274 329 231 q 321 340 329 311 q 290 400 313 368 q 225 475 268 432 q 162 548 189 513 q 120 626 135 583 q 106 722 106 668 q 126 840 106 788 q 183 928 146 892 q 272 985 219 965 q 389 1006 325 1006 q 490 991 438 1006 q 572 954 542 976 l 519 853 q 452 888 488 875 q 381 901 417 901 q 319 890 347 901 q 268 858 290 879 q 234 805 246 836 q 222 735 222 774 q 235 664 222 694 q 275 602 249 633 q 340 531 301 571 q 400 458 376 494 q 435 379 424 421 q 446 283 446 338 q 427 164 446 218 q 372 69 408 110 q 281 8 335 29 q 158 -14 228 -14 m 224 1085 q 285 1155 256 1119 q 341 1226 315 1190 q 388 1293 367 1261 l 483 1293 q 502 1228 489 1268 q 531 1149 515 1189 q 558 1085 547 1110 l 556 1071 l 496 1071 q 470 1109 483 1089 q 444 1152 457 1129 q 418 1200 431 1175 q 347 1128 381 1161 q 283 1071 313 1094 l 221 1071 l 224 1085 z "},"ŝ":{"ha":439,"x_min":-15,"x_max":472,"o":"m 139 -14 q 49 -3 90 -14 q -15 21 8 7 l -15 131 q 50 97 10 111 q 128 82 90 82 q 192 96 165 82 q 233 138 219 110 q 247 204 247 165 q 241 252 247 231 q 218 298 235 274 q 169 354 201 322 q 118 414 139 385 q 87 476 97 443 q 76 547 76 508 q 101 654 76 607 q 174 730 126 701 q 288 758 222 758 q 383 745 340 758 q 457 710 426 732 l 410 624 q 353 656 383 644 q 290 667 322 667 q 215 638 243 667 q 186 563 186 610 q 192 517 186 538 q 213 474 197 496 q 256 425 228 453 q 316 358 293 388 q 349 295 339 328 q 360 215 360 263 q 334 94 360 146 q 259 15 308 43 q 139 -14 210 -14 m 138 856 q 199 926 169 890 q 255 997 229 961 q 301 1064 281 1032 l 397 1064 q 416 999 403 1039 q 445 920 429 960 q 472 856 461 881 l 469 842 l 410 842 q 384 880 397 860 q 358 923 371 900 q 332 971 344 946 q 260 899 294 932 q 197 842 226 865 l 135 842 l 138 856 z "},"Ş":{"ha":522,"x_min":-32,"x_max":572,"o":"m 158 -14 q 49 -2 99 -14 q -32 32 0 10 l -17 149 q 66 108 19 124 q 161 92 113 92 q 229 104 199 92 q 283 140 260 117 q 317 197 306 163 q 329 274 329 231 q 321 340 329 311 q 290 400 313 368 q 225 475 268 432 q 162 548 189 513 q 120 626 135 583 q 106 722 106 668 q 126 840 106 788 q 183 928 146 892 q 272 985 219 965 q 389 1006 325 1006 q 490 991 438 1006 q 572 954 542 976 l 519 853 q 452 888 488 875 q 381 901 417 901 q 319 890 347 901 q 268 858 290 879 q 234 805 246 836 q 222 735 222 774 q 235 664 222 694 q 275 602 249 633 q 340 531 301 571 q 400 458 376 494 q 435 379 424 421 q 446 283 446 338 q 427 164 446 218 q 372 69 408 110 q 281 8 335 29 q 158 -14 228 -14 m 82 -333 q 36 -331 58 -333 q -6 -324 14 -329 l -6 -253 q 24 -260 6 -257 q 69 -262 43 -262 q 122 -253 100 -262 q 155 -224 143 -243 q 167 -182 167 -206 q 143 -134 167 -151 q 71 -111 119 -117 l 142 0 l 208 0 l 160 -71 q 230 -108 204 -81 q 256 -176 256 -135 q 233 -262 256 -226 q 171 -315 210 -297 q 82 -333 132 -333 z "},"ş":{"ha":439,"x_min":-43,"x_max":457,"o":"m 139 -14 q 49 -3 90 -14 q -15 21 8 7 l -15 131 q 50 97 10 111 q 128 82 90 82 q 192 96 165 82 q 233 138 219 110 q 247 204 247 165 q 241 252 247 231 q 218 298 235 274 q 169 354 201 322 q 118 414 139 385 q 87 476 97 443 q 76 547 76 508 q 101 654 76 607 q 174 730 126 701 q 288 758 222 758 q 383 745 340 758 q 457 710 426 732 l 410 624 q 353 656 383 644 q 290 667 322 667 q 215 638 243 667 q 186 563 186 610 q 192 517 186 538 q 213 474 197 496 q 256 425 228 453 q 316 358 293 388 q 349 295 339 328 q 360 215 360 263 q 334 94 360 146 q 259 15 308 43 q 139 -14 210 -14 m 44 -333 q -1 -331 21 -333 q -43 -324 -24 -329 l -43 -253 q -13 -260 -32 -257 q 32 -262 6 -262 q 84 -253 63 -262 q 117 -224 106 -243 q 129 -182 129 -206 q 106 -134 129 -151 q 33 -111 82 -117 l 104 0 l 171 0 l 122 -71 q 192 -108 167 -81 q 218 -176 218 -135 q 195 -262 218 -226 q 133 -315 172 -297 q 44 -333 94 -333 z "},"Š":{"ha":522,"x_min":-32,"x_max":615,"o":"m 158 -14 q 49 -2 99 -14 q -32 32 0 10 l -17 149 q 66 108 19 124 q 161 92 113 92 q 229 104 199 92 q 283 140 260 117 q 317 197 306 163 q 329 274 329 231 q 321 340 329 311 q 290 400 313 368 q 225 475 268 432 q 162 548 189 513 q 120 626 135 583 q 106 722 106 668 q 126 840 106 788 q 183 928 146 892 q 272 985 219 965 q 389 1006 325 1006 q 490 991 438 1006 q 572 954 542 976 l 519 853 q 452 888 488 875 q 381 901 417 901 q 319 890 347 901 q 268 858 290 879 q 234 805 246 836 q 222 735 222 774 q 235 664 222 694 q 275 602 249 633 q 340 531 301 571 q 400 458 376 494 q 435 379 424 421 q 446 283 446 338 q 427 164 446 218 q 372 69 408 110 q 281 8 335 29 q 158 -14 228 -14 m 353 1071 q 333 1135 347 1094 q 304 1215 319 1175 q 276 1279 289 1256 l 279 1293 l 340 1293 q 362 1261 350 1281 q 388 1217 374 1242 q 418 1164 403 1193 q 489 1237 456 1204 q 553 1293 522 1269 l 615 1293 l 613 1279 q 558 1217 592 1257 q 494 1138 525 1178 q 449 1071 464 1097 l 353 1071 z "},"š":{"ha":439,"x_min":-15,"x_max":524,"o":"m 139 -14 q 49 -3 90 -14 q -15 21 8 7 l -15 131 q 50 97 10 111 q 128 82 90 82 q 192 96 165 82 q 233 138 219 110 q 247 204 247 165 q 241 252 247 231 q 218 298 235 274 q 169 354 201 322 q 118 414 139 385 q 87 476 97 443 q 76 547 76 508 q 101 654 76 607 q 174 730 126 701 q 288 758 222 758 q 383 745 340 758 q 457 710 426 732 l 410 624 q 353 656 383 644 q 290 667 322 667 q 215 638 243 667 q 186 563 186 610 q 192 517 186 538 q 213 474 197 496 q 256 425 228 453 q 316 358 293 388 q 349 295 339 328 q 360 215 360 263 q 334 94 360 146 q 259 15 308 43 q 139 -14 210 -14 m 261 842 q 242 906 256 865 q 213 986 228 946 q 185 1050 197 1026 l 188 1064 l 249 1064 q 270 1032 258 1051 q 297 988 282 1013 q 326 935 311 964 q 397 1008 364 975 q 461 1064 431 1040 l 524 1064 l 521 1050 q 467 988 500 1028 q 403 908 433 949 q 357 842 372 868 l 261 842 z "},"Ț":{"ha":478,"x_min":24,"x_max":585,"o":"m 92 0 l 281 890 l 110 890 l 132 992 l 585 992 l 563 890 l 392 890 l 203 0 l 92 0 m 24 -287 q 58 -228 39 -264 q 95 -153 78 -192 q 121 -85 113 -114 l 226 -85 l 226 -99 q 192 -167 217 -128 q 140 -245 168 -207 q 88 -307 111 -283 l 24 -307 l 24 -287 z "},"ț":{"ha":331,"x_min":-50,"x_max":372,"o":"m 142 -14 q 59 19 85 -14 q 33 111 33 53 q 37 156 33 131 q 46 210 40 181 l 140 653 l 74 653 l 86 714 l 165 743 l 225 914 l 303 914 l 267 744 l 372 744 l 353 653 l 247 653 l 151 203 q 144 163 147 182 q 140 129 140 143 q 150 94 140 106 q 182 82 160 82 q 212 85 194 82 q 243 94 229 89 l 243 7 q 193 -8 221 -3 q 142 -14 165 -14 m -50 -287 q -15 -228 -35 -264 q 22 -153 4 -192 q 47 -85 39 -114 l 153 -85 l 153 -99 q 119 -167 143 -128 q 66 -245 94 -207 q 14 -307 38 -283 l -50 -307 l -50 -287 z "},"Ť":{"ha":478,"x_min":92,"x_max":585,"o":"m 92 0 l 281 890 l 110 890 l 132 992 l 585 992 l 563 890 l 392 890 l 203 0 l 92 0 m 317 1071 q 297 1135 311 1094 q 268 1215 283 1175 q 240 1279 253 1256 l 243 1293 l 304 1293 q 326 1261 314 1281 q 352 1217 338 1242 q 382 1164 367 1193 q 453 1237 419 1204 q 517 1293 486 1269 l 579 1293 l 576 1279 q 522 1217 556 1257 q 458 1138 489 1178 q 413 1071 428 1097 l 317 1071 z "},"ť":{"ha":347,"x_min":33,"x_max":517,"o":"m 333 829 q 365 905 351 868 q 391 976 379 942 q 410 1039 403 1010 l 517 1039 l 517 1025 q 485 958 506 997 q 440 881 464 918 q 397 817 417 843 l 333 817 l 333 829 m 142 -14 q 59 19 85 -14 q 33 111 33 53 q 37 156 33 131 q 46 210 40 181 l 140 653 l 74 653 l 86 714 l 165 743 l 225 914 l 303 914 l 267 744 l 372 744 l 353 653 l 247 653 l 151 203 q 144 163 147 182 q 140 129 140 143 q 150 94 140 106 q 182 82 160 82 q 212 85 194 82 q 243 94 229 89 l 243 7 q 193 -8 221 -3 q 142 -14 165 -14 z "},"Ŧ":{"ha":476,"x_min":68,"x_max":585,"o":"m 92 0 l 190 464 l 68 464 l 86 550 l 208 550 l 281 890 l 111 890 l 132 992 l 585 992 l 563 890 l 392 890 l 319 550 l 449 550 l 432 464 l 301 464 l 204 0 l 92 0 z "},"ŧ":{"ha":328,"x_min":11,"x_max":372,"o":"m 140 -14 q 58 19 85 -14 q 32 110 32 53 q 35 151 32 128 q 44 204 39 175 l 83 388 l 11 388 l 29 472 l 101 472 l 140 653 l 74 653 l 86 714 l 165 743 l 225 914 l 301 914 l 265 744 l 372 744 l 353 653 l 246 653 l 207 472 l 318 472 l 300 388 l 190 388 l 150 203 q 143 165 146 182 q 140 133 140 147 q 151 94 140 107 q 186 82 163 82 q 213 85 197 82 q 243 94 228 89 l 243 7 q 192 -8 221 -3 q 140 -14 164 -14 z "},"Ũ":{"ha":656,"x_min":46,"x_max":692,"o":"m 244 -14 q 138 10 182 -14 q 69 82 93 35 q 46 194 46 129 q 49 250 46 219 q 60 311 53 281 l 204 992 l 315 992 l 169 306 q 161 254 164 279 q 158 208 158 229 q 184 117 158 147 q 258 88 210 88 q 339 112 306 88 q 395 188 372 136 q 436 321 418 240 l 581 992 l 692 992 l 544 310 q 488 138 524 211 q 393 26 451 65 q 244 -14 335 -14 m 269 1074 q 299 1167 282 1129 q 342 1226 317 1206 q 404 1247 368 1247 q 453 1235 432 1247 q 492 1206 475 1222 q 524 1178 508 1190 q 557 1165 540 1165 q 592 1183 579 1165 q 615 1249 604 1201 l 683 1249 q 653 1147 672 1185 q 609 1092 633 1108 q 556 1075 585 1075 q 508 1088 529 1075 q 469 1117 486 1100 q 435 1146 451 1133 q 401 1158 419 1158 q 363 1137 378 1158 q 338 1074 347 1115 l 269 1074 z "},"ũ":{"ha":574,"x_min":35,"x_max":607,"o":"m 168 -14 q 95 3 125 -14 q 50 52 65 19 q 35 131 35 85 q 40 189 35 156 q 50 251 44 222 l 156 744 l 263 744 l 161 267 q 150 208 154 236 q 146 153 146 179 q 160 102 146 121 q 204 83 174 83 q 278 114 246 83 q 334 203 310 144 q 375 344 358 261 l 460 744 l 567 744 l 410 0 l 324 0 l 332 94 l 328 94 q 281 35 307 60 q 227 -1 256 11 q 168 -14 199 -14 m 193 844 q 223 938 206 900 q 266 997 240 976 q 328 1018 292 1018 q 377 1006 356 1018 q 415 977 399 993 q 448 949 432 961 q 481 936 464 936 q 515 954 503 936 q 539 1019 528 972 l 607 1019 q 576 917 596 956 q 533 863 557 879 q 479 846 508 846 q 431 858 453 846 q 392 888 410 871 q 359 917 375 904 q 325 929 343 929 q 286 908 301 929 q 261 844 271 886 l 193 844 z "},"Ū":{"ha":656,"x_min":46,"x_max":692,"o":"m 244 -14 q 138 10 182 -14 q 69 82 93 35 q 46 194 46 129 q 49 250 46 219 q 60 311 53 281 l 204 992 l 315 992 l 169 306 q 161 254 164 279 q 158 208 158 229 q 184 117 158 147 q 258 88 210 88 q 339 112 306 88 q 395 188 372 136 q 436 321 418 240 l 581 992 l 692 992 l 544 310 q 488 138 524 211 q 393 26 451 65 q 244 -14 335 -14 m 290 1076 l 307 1160 l 640 1160 l 622 1076 l 290 1076 z "},"ū":{"ha":574,"x_min":35,"x_max":567,"o":"m 168 -14 q 95 3 125 -14 q 50 52 65 19 q 35 131 35 85 q 40 189 35 156 q 50 251 44 222 l 156 744 l 263 744 l 161 267 q 150 208 154 236 q 146 153 146 179 q 160 102 146 121 q 204 83 174 83 q 278 114 246 83 q 334 203 310 144 q 375 344 358 261 l 460 744 l 567 744 l 410 0 l 324 0 l 332 94 l 328 94 q 281 35 307 60 q 227 -1 256 11 q 168 -14 199 -14 m 208 847 l 225 931 l 558 931 l 540 847 l 208 847 z "},"Ŭ":{"ha":656,"x_min":46,"x_max":692,"o":"m 244 -14 q 138 10 182 -14 q 69 82 93 35 q 46 194 46 129 q 49 250 46 219 q 60 311 53 281 l 204 992 l 315 992 l 169 306 q 161 254 164 279 q 158 208 158 229 q 184 117 158 147 q 258 88 210 88 q 339 112 306 88 q 395 188 372 136 q 436 321 418 240 l 581 992 l 692 992 l 544 310 q 488 138 524 211 q 393 26 451 65 q 244 -14 335 -14 m 461 1071 q 382 1088 413 1071 q 337 1135 351 1104 q 322 1207 322 1167 q 324 1233 322 1221 q 326 1256 325 1246 l 396 1256 q 403 1199 396 1221 q 426 1166 411 1176 q 467 1156 442 1156 q 531 1178 507 1156 q 569 1256 556 1201 l 640 1256 q 580 1119 625 1167 q 461 1071 535 1071 z "},"ŭ":{"ha":574,"x_min":35,"x_max":567,"o":"m 168 -14 q 95 3 125 -14 q 50 52 65 19 q 35 131 35 85 q 40 189 35 156 q 50 251 44 222 l 156 744 l 263 744 l 161 267 q 150 208 154 236 q 146 153 146 179 q 160 102 146 121 q 204 83 174 83 q 278 114 246 83 q 334 203 310 144 q 375 344 358 261 l 460 744 l 567 744 l 410 0 l 324 0 l 332 94 l 328 94 q 281 35 307 60 q 227 -1 256 11 q 168 -14 199 -14 m 383 842 q 304 858 335 842 q 259 906 274 875 q 244 978 244 938 q 246 1004 244 992 q 249 1026 247 1017 l 318 1026 q 326 969 318 992 q 349 937 333 947 q 389 926 364 926 q 453 949 429 926 q 492 1026 478 972 l 563 1026 q 502 890 547 938 q 383 842 457 842 z "},"Ů":{"ha":656,"x_min":46,"x_max":692,"o":"m 244 -14 q 138 10 182 -14 q 69 82 93 35 q 46 194 46 129 q 49 250 46 219 q 60 311 53 281 l 204 992 l 315 992 l 169 306 q 161 254 164 279 q 158 208 158 229 q 184 117 158 147 q 258 88 210 88 q 339 112 306 88 q 395 188 372 136 q 436 321 418 240 l 581 992 l 692 992 l 544 310 q 488 138 524 211 q 393 26 451 65 q 244 -14 335 -14 m 474 1075 q 370 1113 407 1075 q 333 1214 333 1150 q 371 1313 333 1275 q 474 1351 408 1351 q 575 1314 538 1351 q 614 1217 613 1276 q 576 1115 614 1154 q 474 1075 539 1075 m 475 1138 q 530 1158 510 1138 q 550 1214 550 1179 q 531 1269 550 1247 q 475 1290 511 1290 q 419 1269 439 1290 q 399 1214 399 1247 q 417 1158 399 1179 q 475 1138 436 1138 z "},"ů":{"ha":574,"x_min":35,"x_max":567,"o":"m 168 -14 q 95 3 125 -14 q 50 52 65 19 q 35 131 35 85 q 40 189 35 156 q 50 251 44 222 l 156 744 l 263 744 l 161 267 q 150 208 154 236 q 146 153 146 179 q 160 102 146 121 q 204 83 174 83 q 278 114 246 83 q 334 203 310 144 q 375 344 358 261 l 460 744 l 567 744 l 410 0 l 324 0 l 332 94 l 328 94 q 281 35 307 60 q 227 -1 256 11 q 168 -14 199 -14 m 396 846 q 292 883 329 846 q 256 985 256 921 q 293 1084 256 1046 q 396 1122 331 1122 q 497 1085 460 1122 q 536 988 535 1047 q 499 885 536 925 q 396 846 461 846 m 397 908 q 452 929 432 908 q 472 985 472 950 q 453 1040 472 1018 q 397 1061 433 1061 q 341 1040 361 1061 q 321 985 321 1018 q 340 929 321 950 q 397 908 358 908 z "},"Ű":{"ha":656,"x_min":46,"x_max":778,"o":"m 244 -14 q 138 10 182 -14 q 69 82 93 35 q 46 194 46 129 q 49 250 46 219 q 60 311 53 281 l 204 992 l 315 992 l 169 306 q 161 254 164 279 q 158 208 158 229 q 184 117 158 147 q 258 88 210 88 q 339 112 306 88 q 395 188 372 136 q 436 321 418 240 l 581 992 l 692 992 l 544 310 q 488 138 524 211 q 393 26 451 65 q 244 -14 335 -14 m 514 1085 q 576 1165 547 1126 q 626 1235 604 1203 q 661 1293 647 1268 l 778 1293 l 776 1282 q 738 1233 763 1261 q 683 1174 713 1204 q 623 1117 653 1143 q 568 1071 593 1090 l 511 1071 l 514 1085 m 308 1085 q 369 1165 342 1126 q 419 1235 397 1203 q 456 1293 442 1268 l 572 1293 l 571 1282 q 533 1232 557 1260 q 478 1174 508 1204 q 417 1118 447 1144 q 360 1071 386 1092 l 306 1071 l 308 1085 z "},"ű":{"ha":574,"x_min":35,"x_max":692,"o":"m 168 -14 q 95 3 125 -14 q 50 52 65 19 q 35 131 35 85 q 40 189 35 156 q 50 251 44 222 l 156 744 l 263 744 l 161 267 q 150 208 154 236 q 146 153 146 179 q 160 102 146 121 q 204 83 174 83 q 278 114 246 83 q 334 203 310 144 q 375 344 358 261 l 460 744 l 567 744 l 410 0 l 324 0 l 332 94 l 328 94 q 281 35 307 60 q 227 -1 256 11 q 168 -14 199 -14 m 428 856 q 490 935 461 897 q 540 1006 518 974 q 575 1064 561 1039 l 692 1064 l 690 1053 q 651 1003 676 1032 q 597 944 626 975 q 537 888 567 914 q 482 842 507 861 l 425 842 l 428 856 m 222 856 q 283 935 256 897 q 333 1006 311 974 q 369 1064 356 1039 l 486 1064 l 485 1053 q 447 1003 471 1031 q 392 945 422 975 q 331 889 361 915 q 274 842 300 863 l 219 842 l 222 856 z "},"Ų":{"ha":656,"x_min":46,"x_max":692,"o":"m 244 -14 q 138 10 182 -14 q 69 82 93 35 q 46 194 46 129 q 49 250 46 219 q 60 311 53 281 l 204 992 l 315 992 l 169 306 q 161 254 164 279 q 158 208 158 229 q 184 117 158 147 q 258 88 210 88 q 339 112 306 88 q 395 188 372 136 q 436 321 418 240 l 581 992 l 692 992 l 544 310 q 488 138 524 211 q 393 26 451 65 q 244 -14 335 -14 m 217 -311 q 140 -283 165 -311 q 114 -211 114 -254 q 128 -137 114 -172 q 174 -69 143 -103 q 253 0 206 -35 l 325 0 q 260 -67 285 -36 q 223 -127 235 -99 q 211 -185 211 -156 q 222 -219 211 -207 q 256 -232 233 -232 q 280 -229 267 -232 q 307 -224 293 -226 l 290 -299 q 256 -308 274 -306 q 217 -311 238 -311 z "},"ų":{"ha":574,"x_min":35,"x_max":567,"o":"m 168 -14 q 95 3 125 -14 q 50 52 65 19 q 35 131 35 85 q 40 189 35 156 q 50 251 44 222 l 156 744 l 263 744 l 161 267 q 150 208 154 236 q 146 153 146 179 q 160 102 146 121 q 204 83 174 83 q 278 114 246 83 q 334 203 310 144 q 375 344 358 261 l 460 744 l 567 744 l 410 0 l 324 0 l 332 94 l 328 94 q 281 35 307 60 q 227 -1 256 11 q 168 -14 199 -14 m 301 -311 q 224 -283 250 -311 q 199 -211 199 -254 q 213 -137 199 -172 q 259 -69 228 -103 q 338 0 290 -35 l 410 0 q 344 -67 369 -36 q 308 -127 319 -99 q 296 -185 296 -156 q 307 -219 296 -207 q 340 -232 318 -232 q 365 -229 351 -232 q 392 -224 378 -226 l 375 -299 q 340 -308 358 -306 q 301 -311 322 -311 z "},"Ŵ":{"ha":907,"x_min":97,"x_max":1017,"o":"m 97 0 l 121 992 l 229 992 l 211 369 q 206 260 210 308 q 200 175 203 211 l 203 175 q 238 272 219 224 q 275 369 257 321 l 518 992 l 619 992 l 599 389 q 595 308 597 344 q 591 238 593 271 q 586 175 589 206 l 589 175 q 615 249 603 214 q 640 315 628 283 q 664 379 653 347 l 903 992 l 1017 992 l 624 0 l 492 0 l 515 629 q 518 674 517 650 q 522 722 519 697 q 525 772 524 747 l 522 772 q 499 704 511 739 q 475 638 488 669 l 228 0 l 97 0 m 404 1085 q 466 1155 436 1119 q 522 1226 496 1190 q 568 1293 547 1261 l 664 1293 q 683 1228 669 1268 q 712 1149 696 1189 q 739 1085 728 1110 l 736 1071 l 676 1071 q 651 1109 664 1089 q 624 1152 638 1129 q 599 1200 611 1175 q 527 1128 561 1161 q 464 1071 493 1094 l 401 1071 l 404 1085 z "},"ŵ":{"ha":754,"x_min":74,"x_max":821,"o":"m 74 0 l 88 744 l 192 744 l 179 319 q 175 240 178 278 q 169 165 172 201 l 172 165 q 188 213 179 189 q 205 261 196 238 q 221 304 214 285 l 393 744 l 514 744 l 500 324 q 496 244 499 286 q 490 160 493 201 l 493 160 q 514 220 504 190 q 535 279 524 250 q 557 339 546 308 l 713 744 l 821 744 l 522 0 l 397 0 l 415 461 q 417 506 417 483 q 420 552 418 529 q 424 597 422 575 l 421 597 q 409 561 415 579 q 397 525 403 543 q 383 489 390 507 l 196 0 l 74 0 m 299 856 q 360 926 331 890 q 416 997 390 961 q 463 1064 442 1032 l 558 1064 q 577 999 564 1039 q 606 920 590 960 q 633 856 622 881 l 631 842 l 571 842 q 545 880 558 860 q 519 923 532 900 q 493 971 506 946 q 422 899 456 932 q 358 842 388 865 l 296 842 l 299 856 z "},"Ŷ":{"ha":494,"x_min":101,"x_max":614,"o":"m 101 0 l 182 382 l 118 992 l 233 992 l 268 532 l 496 992 l 614 992 l 294 385 l 213 0 l 101 0 m 203 1085 q 265 1155 235 1119 q 320 1226 294 1190 q 367 1293 346 1261 l 463 1293 q 481 1228 468 1268 q 510 1149 494 1189 q 538 1085 526 1110 l 535 1071 l 475 1071 q 449 1109 463 1089 q 423 1152 436 1129 q 397 1200 410 1175 q 326 1128 360 1161 q 263 1071 292 1094 l 200 1071 l 203 1085 z "},"ŷ":{"ha":472,"x_min":-131,"x_max":544,"o":"m -57 -335 q -97 -331 -79 -335 q -131 -321 -115 -326 l -117 -225 q -89 -233 -103 -231 q -60 -236 -75 -236 q 6 -205 -19 -236 q 54 -118 31 -174 l 107 3 l 89 744 l 196 744 l 197 332 q 197 276 197 304 q 195 219 196 247 q 192 161 194 190 l 196 161 q 215 217 206 190 q 235 269 225 244 q 251 314 244 294 l 433 744 l 544 744 l 154 -143 q 99 -244 128 -201 q 34 -311 71 -287 q -57 -335 -3 -335 m 147 856 q 209 926 179 890 q 265 997 239 961 q 311 1064 290 1032 l 407 1064 q 426 999 413 1039 q 455 920 439 960 q 482 856 471 881 l 479 842 l 419 842 q 394 880 407 860 q 367 923 381 900 q 342 971 354 946 q 270 899 304 932 q 207 842 236 865 l 144 842 l 147 856 z "},"Ÿ":{"ha":494,"x_min":101,"x_max":614,"o":"m 101 0 l 182 382 l 118 992 l 233 992 l 268 532 l 496 992 l 614 992 l 294 385 l 213 0 l 101 0 m 475 1106 q 439 1118 451 1106 q 426 1157 426 1131 q 446 1220 426 1193 q 500 1247 465 1247 q 534 1235 522 1247 q 546 1199 546 1222 q 526 1132 546 1158 q 475 1106 506 1106 m 267 1106 q 232 1118 244 1106 q 219 1157 219 1131 q 239 1220 219 1193 q 293 1247 258 1247 q 317 1242 307 1247 q 332 1226 326 1236 q 338 1199 338 1215 q 318 1132 338 1158 q 267 1106 299 1106 z "},"Ź":{"ha":465,"x_min":-57,"x_max":585,"o":"m -57 0 l -39 86 l 406 892 l 139 892 l 160 992 l 551 992 l 533 904 l 86 100 l 371 100 l 350 0 l -57 0 m 303 1110 q 363 1184 335 1147 q 414 1255 390 1221 q 454 1319 438 1289 l 585 1319 l 583 1308 q 542 1258 569 1288 q 483 1199 515 1229 q 422 1141 451 1168 q 372 1097 393 1114 l 301 1097 l 303 1110 z "},"ź":{"ha":393,"x_min":-50,"x_max":494,"o":"m -50 0 l -35 72 l 296 653 l 101 653 l 121 744 l 435 744 l 418 668 l 92 93 l 306 93 l 285 0 l -50 0 m 213 853 q 272 927 244 890 q 324 998 300 964 q 364 1063 347 1032 l 494 1063 l 493 1051 q 452 1001 479 1031 q 393 942 425 972 q 332 884 361 911 q 282 840 303 857 l 211 840 l 213 853 z "},"Ż":{"ha":465,"x_min":-57,"x_max":551,"o":"m -57 0 l -39 86 l 406 892 l 139 892 l 160 992 l 551 992 l 533 904 l 86 100 l 371 100 l 350 0 l -57 0 m 371 1099 q 331 1114 344 1099 q 317 1156 317 1129 q 337 1223 317 1193 q 394 1253 357 1253 q 424 1247 413 1253 q 442 1228 436 1240 q 449 1197 449 1217 q 428 1128 449 1158 q 371 1099 407 1099 z "},"ż":{"ha":393,"x_min":-50,"x_max":435,"o":"m -50 0 l -35 72 l 296 653 l 101 653 l 121 744 l 435 744 l 418 668 l 92 93 l 306 93 l 285 0 l -50 0 m 299 869 q 258 885 272 869 q 244 926 244 900 q 265 994 244 964 q 322 1024 285 1024 q 352 1017 340 1024 q 370 999 364 1011 q 376 968 376 988 q 356 899 376 929 q 299 869 335 869 z "},"Ž":{"ha":465,"x_min":-57,"x_max":575,"o":"m -57 0 l -39 86 l 406 892 l 139 892 l 160 992 l 551 992 l 533 904 l 86 100 l 371 100 l 350 0 l -57 0 m 313 1071 q 293 1135 307 1094 q 264 1215 279 1175 q 236 1279 249 1256 l 239 1293 l 300 1293 q 322 1261 310 1281 q 348 1217 333 1242 q 378 1164 363 1193 q 449 1237 415 1204 q 513 1293 482 1269 l 575 1293 l 572 1279 q 518 1217 551 1257 q 454 1138 485 1178 q 408 1071 424 1097 l 313 1071 z "},"ž":{"ha":393,"x_min":-50,"x_max":494,"o":"m -50 0 l -35 72 l 296 653 l 101 653 l 121 744 l 435 744 l 418 668 l 92 93 l 306 93 l 285 0 l -50 0 m 232 842 q 213 906 226 865 q 183 986 199 946 q 156 1050 168 1026 l 158 1064 l 219 1064 q 241 1032 229 1051 q 267 988 253 1013 q 297 935 282 964 q 368 1008 335 975 q 432 1064 401 1040 l 494 1064 l 492 1050 q 438 988 471 1028 q 374 908 404 949 q 328 842 343 868 l 232 842 z "},"ſ":{"ha":281,"x_min":-182,"x_max":469,"o":"m -111 -333 q -148 -331 -131 -333 q -182 -324 -165 -329 l -182 -226 q -154 -234 -171 -232 q -122 -236 -137 -236 q -55 -194 -74 -236 q -19 -76 -36 -153 l 172 824 q 208 944 186 890 q 267 1031 229 999 q 368 1063 304 1063 q 422 1057 396 1063 q 469 1040 447 1051 l 429 953 q 401 963 415 960 q 374 967 388 967 q 324 944 342 967 q 295 883 306 921 q 275 803 285 846 l 85 -85 q 49 -211 69 -154 q -9 -301 28 -268 q -111 -333 -46 -333 z "},"ƒ":{"ha":474,"x_min":-112,"x_max":635,"o":"m 49 -336 q -43 -313 -7 -336 q -96 -253 -79 -290 q -112 -172 -112 -215 q -109 -132 -112 -150 q -99 -97 -106 -114 l -7 -119 q -13 -145 -11 -132 q -15 -169 -15 -158 q -10 -206 -15 -189 q 10 -232 -4 -222 q 49 -242 25 -242 q 105 -209 88 -242 q 133 -124 122 -176 l 301 653 l 222 653 l 233 713 l 321 746 l 339 824 q 367 925 351 881 q 403 1000 382 969 q 456 1047 424 1031 q 533 1063 488 1063 q 587 1057 561 1063 q 635 1040 613 1051 l 594 954 q 567 965 581 961 q 539 968 553 968 q 480 931 500 968 q 444 821 460 893 l 429 744 l 531 744 l 511 653 l 410 653 l 239 -135 q 175 -282 219 -228 q 49 -336 131 -336 z "},"Ǻ":{"ha":561,"x_min":-87,"x_max":615,"o":"m 285 867 q 250 905 263 881 q 238 963 238 929 q 275 1063 238 1025 q 379 1100 313 1100 q 481 1061 443 1100 q 519 965 519 1022 q 501 893 519 922 q 449 851 482 864 l 474 0 l 358 0 l 351 306 l 161 306 l 33 0 l -87 0 l 285 867 m 200 407 l 357 407 l 356 708 q 356 758 356 732 q 357 808 356 785 l 353 808 q 339 760 347 786 q 321 710 331 735 l 200 407 m 379 888 q 433 908 413 888 q 454 961 454 928 q 435 1016 454 994 q 379 1038 415 1038 q 325 1016 344 1038 q 306 961 306 994 q 323 908 306 928 q 379 888 340 888 m 346 1149 q 393 1203 369 1175 q 440 1262 417 1232 q 481 1322 463 1292 l 615 1322 l 615 1313 q 559 1254 593 1288 q 488 1190 525 1221 q 422 1139 451 1160 l 346 1139 l 346 1149 z "},"ǻ":{"ha":588,"x_min":33,"x_max":650,"o":"m 181 -14 q 99 9 132 -14 q 50 78 67 32 q 33 189 33 124 q 44 326 33 250 q 79 478 56 401 q 138 617 103 554 q 223 719 174 681 q 335 758 272 758 q 389 747 365 758 q 431 714 413 736 q 458 656 449 692 l 463 656 l 492 744 l 583 744 l 425 0 l 339 0 l 347 101 l 343 101 q 292 39 318 65 q 238 -1 265 13 q 181 -14 211 -14 m 213 81 q 293 118 260 81 q 351 214 326 156 q 392 333 375 272 q 416 453 408 400 q 424 553 424 506 q 403 634 424 606 q 346 663 382 663 q 276 631 308 663 q 220 548 244 600 q 179 433 196 496 q 153 308 163 371 q 144 193 144 246 q 160 109 144 138 q 213 81 175 81 m 394 810 q 292 847 331 810 q 254 947 254 883 q 292 1048 254 1010 q 394 1086 331 1086 q 496 1049 457 1086 q 536 951 535 1013 q 498 849 536 888 q 394 810 460 810 m 394 872 q 449 892 428 872 q 471 947 471 913 q 451 1003 471 982 q 394 1025 431 1025 q 340 1003 360 1025 q 319 947 319 982 q 338 891 319 910 q 394 872 356 872 m 381 1146 q 424 1199 401 1171 q 469 1257 446 1226 q 511 1321 492 1288 l 650 1321 l 650 1311 q 597 1256 631 1288 q 525 1192 563 1224 q 454 1135 488 1160 l 379 1135 l 381 1146 z "},"Ǽ":{"ha":771,"x_min":-93,"x_max":832,"o":"m -93 0 l 378 992 l 832 992 l 811 892 l 563 892 l 494 568 l 728 568 l 706 468 l 472 468 l 394 100 l 643 100 l 622 0 l 263 0 l 331 317 l 172 317 l 25 0 l -93 0 m 218 418 l 353 418 l 453 890 l 435 890 l 218 418 m 456 1110 q 515 1184 488 1147 q 567 1255 543 1221 q 607 1319 590 1289 l 738 1319 l 736 1308 q 695 1258 722 1288 q 636 1199 668 1229 q 575 1141 604 1168 q 525 1097 546 1114 l 454 1097 l 456 1110 z "},"ǽ":{"ha":856,"x_min":33,"x_max":839,"o":"m 172 -14 q 98 10 129 -14 q 50 81 67 35 q 33 193 33 126 q 47 353 33 272 q 88 506 61 433 q 151 636 114 579 q 234 726 188 693 q 333 758 281 758 q 384 748 361 758 q 424 715 407 738 q 450 658 440 693 l 453 658 l 476 744 l 556 744 l 538 660 q 605 728 565 699 q 696 758 644 758 q 801 718 763 758 q 839 604 839 678 q 815 490 839 540 q 747 406 792 440 q 638 353 701 371 q 493 335 574 335 l 483 335 q 475 281 478 308 q 472 226 472 254 q 498 117 472 158 q 588 76 524 76 q 660 88 624 76 q 738 124 697 100 l 725 29 q 650 -3 686 7 q 567 -14 614 -14 q 473 14 510 -14 q 424 92 436 42 l 406 0 l 326 0 l 343 101 l 340 101 q 292 39 318 65 q 238 -1 267 13 q 172 -14 208 -14 m 214 79 q 272 99 246 79 q 317 153 297 118 q 353 233 338 188 q 382 329 369 278 q 405 451 397 396 q 413 557 413 507 q 395 635 413 608 q 346 663 378 663 q 282 634 313 663 q 226 558 251 606 q 183 449 201 510 q 154 324 164 389 q 144 199 144 260 q 162 109 144 139 q 214 79 179 79 m 503 418 q 637 441 585 418 q 713 505 689 464 q 738 599 738 546 q 722 649 738 631 q 672 668 707 668 q 602 636 635 668 q 544 548 569 604 q 499 418 518 492 l 503 418 m 443 853 q 503 927 475 890 q 554 998 531 964 q 594 1063 578 1032 l 725 1063 l 724 1051 q 683 1001 710 1031 q 624 942 656 972 q 563 884 592 911 q 513 840 533 857 l 442 840 l 443 853 z "},"Ǿ":{"ha":689,"x_min":-14,"x_max":733,"o":"m 46 -67 l -14 -32 l 76 111 q 56 185 63 143 q 49 278 49 226 q 60 435 49 353 q 93 599 71 518 q 149 754 115 681 q 228 884 183 828 q 331 973 274 940 q 456 1006 388 1006 q 541 990 504 1006 q 604 942 578 974 l 672 1051 l 733 1014 l 646 876 q 663 808 657 846 q 668 725 668 769 q 658 581 668 660 q 628 418 649 501 q 575 258 607 335 q 498 119 543 181 q 395 22 453 58 q 265 -14 338 -14 q 181 1 218 -14 q 119 47 144 17 l 46 -67 m 274 88 q 356 116 318 88 q 424 193 393 144 q 476 304 454 242 q 515 434 499 367 q 540 567 531 501 q 550 688 549 632 q 551 713 551 701 q 550 735 551 725 l 182 151 q 219 103 196 118 q 274 88 242 88 m 539 838 q 502 889 525 872 q 444 906 479 906 q 356 875 396 906 q 287 792 317 844 q 235 676 257 740 q 198 546 213 613 q 176 419 183 479 q 167 314 168 358 q 165 280 165 296 q 167 249 165 264 l 539 838 m 414 1110 q 474 1184 446 1147 q 525 1255 501 1221 q 565 1319 549 1289 l 696 1319 l 694 1308 q 653 1258 681 1288 q 594 1199 626 1229 q 533 1141 563 1168 q 483 1097 504 1114 l 413 1097 l 414 1110 z "},"ǿ":{"ha":565,"x_min":-19,"x_max":585,"o":"m 38 -83 l -19 -47 l 61 78 q 42 138 49 104 q 35 211 35 171 q 45 335 35 264 q 78 480 56 406 q 138 617 101 554 q 228 719 175 681 q 354 758 282 758 q 417 747 389 758 q 465 713 444 736 l 526 811 l 585 775 l 507 654 q 524 598 518 629 q 531 531 531 567 q 519 402 531 474 q 485 258 508 331 q 425 123 463 185 q 335 24 388 61 q 213 -14 282 -14 q 153 -4 181 -14 q 106 24 126 6 l 38 -83 m 224 76 q 290 103 260 76 q 342 173 319 129 q 383 271 365 217 q 410 382 400 325 q 422 490 419 439 q 424 512 424 501 q 422 532 424 522 l 160 114 q 187 86 171 96 q 224 76 203 76 m 410 622 q 383 657 400 646 q 342 668 365 668 q 275 640 306 668 q 221 566 244 613 q 180 463 197 519 q 153 347 163 406 q 142 238 144 289 q 142 216 142 226 q 143 197 142 206 l 410 622 m 299 853 q 358 927 331 890 q 410 998 386 964 q 450 1063 433 1032 l 581 1063 l 579 1051 q 538 1001 565 1031 q 479 942 511 972 q 418 884 447 911 q 368 840 389 857 l 297 840 l 299 853 z "},"Ș":{"ha":522,"x_min":-32,"x_max":572,"o":"m 158 -14 q 49 -2 99 -14 q -32 32 0 10 l -17 149 q 66 108 19 124 q 161 92 113 92 q 229 104 199 92 q 283 140 260 117 q 317 197 306 163 q 329 274 329 231 q 321 340 329 311 q 290 400 313 368 q 225 475 268 432 q 162 548 189 513 q 120 626 135 583 q 106 722 106 668 q 126 840 106 788 q 183 928 146 892 q 272 985 219 965 q 389 1006 325 1006 q 490 991 438 1006 q 572 954 542 976 l 519 853 q 452 888 488 875 q 381 901 417 901 q 319 890 347 901 q 268 858 290 879 q 234 805 246 836 q 222 735 222 774 q 235 664 222 694 q 275 602 249 633 q 340 531 301 571 q 400 458 376 494 q 435 379 424 421 q 446 283 446 338 q 427 164 446 218 q 372 69 408 110 q 281 8 335 29 q 158 -14 228 -14 m 47 -287 q 82 -228 63 -264 q 119 -153 101 -192 q 144 -85 136 -114 l 250 -85 l 250 -99 q 216 -167 240 -128 q 163 -245 192 -207 q 111 -307 135 -283 l 47 -307 l 47 -287 z "},"ș":{"ha":439,"x_min":-15,"x_max":457,"o":"m 139 -14 q 49 -3 90 -14 q -15 21 8 7 l -15 131 q 50 97 10 111 q 128 82 90 82 q 192 96 165 82 q 233 138 219 110 q 247 204 247 165 q 241 252 247 231 q 218 298 235 274 q 169 354 201 322 q 118 414 139 385 q 87 476 97 443 q 76 547 76 508 q 101 654 76 607 q 174 730 126 701 q 288 758 222 758 q 383 745 340 758 q 457 710 426 732 l 410 624 q 353 656 383 644 q 290 667 322 667 q 215 638 243 667 q 186 563 186 610 q 192 517 186 538 q 213 474 197 496 q 256 425 228 453 q 316 358 293 388 q 349 295 339 328 q 360 215 360 263 q 334 94 360 146 q 259 15 308 43 q 139 -14 210 -14 m 4 -287 q 39 -228 19 -264 q 76 -153 58 -192 q 101 -85 93 -114 l 207 -85 l 207 -99 q 173 -167 197 -128 q 120 -245 149 -207 q 68 -307 92 -283 l 4 -307 l 4 -287 z "},"ˆ":{"ha":446,"x_min":156,"x_max":493,"o":"m 158 856 q 220 926 190 890 q 276 997 250 961 q 322 1064 301 1032 l 418 1064 q 437 999 424 1039 q 466 920 450 960 q 493 856 482 881 l 490 842 l 431 842 q 405 880 418 860 q 378 923 392 900 q 353 971 365 946 q 281 899 315 932 q 218 842 247 865 l 156 842 l 158 856 z "},"ˇ":{"ha":447,"x_min":200,"x_max":539,"o":"m 276 842 q 257 906 271 865 q 228 986 243 946 q 200 1050 213 1026 l 203 1064 l 264 1064 q 285 1032 274 1051 q 312 988 297 1013 q 342 935 326 964 q 413 1008 379 975 q 476 1064 446 1040 l 539 1064 l 536 1050 q 482 988 515 1028 q 418 908 449 949 q 372 842 388 868 l 276 842 z "},"ˉ":{"ha":444,"x_min":157,"x_max":507,"o":"m 157 847 l 174 931 l 507 931 l 489 847 l 157 847 z "},"˘":{"ha":425,"x_min":190,"x_max":508,"o":"m 329 842 q 250 858 281 842 q 205 906 219 875 q 190 978 190 938 q 192 1004 190 992 q 194 1026 193 1017 l 264 1026 q 272 969 264 992 q 294 937 279 947 q 335 926 310 926 q 399 949 375 926 q 438 1026 424 972 l 508 1026 q 448 890 493 938 q 329 842 403 842 z "},"˙":{"ha":240,"x_min":176,"x_max":308,"o":"m 231 869 q 190 885 204 869 q 176 926 176 900 q 197 994 176 964 q 254 1024 217 1024 q 284 1017 272 1024 q 302 999 296 1011 q 308 968 308 988 q 288 899 308 929 q 231 869 267 869 z "},"˚":{"ha":400,"x_min":190,"x_max":471,"o":"m 331 846 q 227 883 264 846 q 190 985 190 921 q 228 1084 190 1046 q 331 1122 265 1122 q 432 1085 394 1122 q 471 988 469 1047 q 433 885 471 925 q 331 846 396 846 m 332 908 q 387 929 367 908 q 407 985 407 950 q 388 1040 407 1018 q 332 1061 368 1061 q 276 1040 296 1061 q 256 985 256 1018 q 274 929 256 950 q 332 908 293 908 z "},"˛":{"ha":311,"x_min":-64,"x_max":147,"o":"m 39 -311 q -38 -283 -12 -311 q -64 -211 -64 -254 q -49 -137 -64 -172 q -3 -69 -35 -103 q 75 0 28 -35 l 147 0 q 82 -67 107 -36 q 45 -127 57 -99 q 33 -185 33 -156 q 44 -219 33 -207 q 78 -232 56 -232 q 102 -229 89 -232 q 129 -224 115 -226 l 113 -299 q 78 -308 96 -306 q 39 -311 60 -311 z "},"˜":{"ha":488,"x_min":156,"x_max":569,"o":"m 156 844 q 185 938 168 900 q 228 997 203 976 q 290 1018 254 1018 q 340 1006 318 1018 q 378 977 361 993 q 410 949 394 961 q 443 936 426 936 q 478 954 465 936 q 501 1019 490 972 l 569 1019 q 539 917 558 956 q 495 863 519 879 q 442 846 471 846 q 394 858 415 846 q 355 888 372 871 q 322 917 338 904 q 288 929 306 929 q 249 908 264 929 q 224 844 233 886 l 156 844 z "},"˝":{"ha":538,"x_min":156,"x_max":628,"o":"m 364 856 q 426 935 397 897 q 476 1006 454 974 q 511 1064 497 1039 l 628 1064 l 626 1053 q 588 1003 613 1032 q 533 944 563 975 q 473 888 503 914 q 418 842 443 861 l 361 842 l 364 856 m 158 856 q 219 935 192 897 q 269 1006 247 974 q 306 1064 292 1039 l 422 1064 l 421 1053 q 383 1003 407 1031 q 328 945 358 975 q 267 889 297 915 q 210 842 236 863 l 156 842 l 158 856 z "},"΄":{"ha":314,"x_min":156,"x_max":408,"o":"m 156 842 l 158 857 l 274 1078 l 408 1078 l 406 1065 l 228 842 l 156 842 z "},"΅":{"ha":786,"x_min":231,"x_max":701,"o":"m 375 842 l 378 857 l 479 1078 l 614 1078 l 611 1065 l 447 842 l 375 842 m 282 856 q 244 874 257 856 q 238 928 231 892 q 266 981 244 964 q 313 997 288 997 q 350 980 338 997 q 356 928 363 963 q 328 874 349 892 q 282 856 307 856 m 619 856 q 581 874 593 856 q 575 928 568 892 q 603 981 582 964 q 650 997 625 997 q 688 980 675 997 q 694 928 701 963 q 666 874 688 892 q 619 856 644 856 z "},"Ά":{"ha":647,"x_min":-4,"x_max":557,"o":"m -4 0 l 411 996 l 553 996 l 557 0 l 442 0 l 443 315 l 246 315 l 117 0 l -4 0 m 283 417 l 447 417 l 453 765 q 454 828 453 799 q 458 883 456 858 l 454 883 q 440 831 449 860 q 417 765 431 801 l 283 417 m 44 756 l 47 771 l 163 992 l 297 992 l 294 979 l 117 756 l 44 756 z "},"·":{"ha":283,"x_min":124,"x_max":269,"o":"m 182 578 q 140 593 156 578 q 124 638 124 608 q 147 715 124 682 q 214 749 171 749 q 255 732 240 749 q 269 688 269 715 q 244 609 269 640 q 182 578 218 578 z "},"Έ":{"ha":724,"x_min":96,"x_max":785,"o":"m 215 0 l 425 992 l 785 992 l 764 892 l 515 892 l 447 568 l 679 568 l 657 468 l 425 468 l 347 100 l 596 100 l 575 0 l 215 0 m 96 756 l 99 771 l 214 992 l 349 992 l 346 979 l 168 756 l 96 756 z "},"Ή":{"ha":886,"x_min":96,"x_max":917,"o":"m 215 0 l 425 992 l 536 992 l 447 569 l 715 569 l 806 992 l 917 992 l 706 0 l 594 0 l 693 468 l 425 468 l 326 0 l 215 0 m 96 756 l 99 771 l 214 992 l 349 992 l 346 979 l 168 756 l 96 756 z "},"Ί":{"ha":604,"x_min":96,"x_max":703,"o":"m 172 0 l 186 63 l 296 85 l 469 907 l 369 929 l 382 992 l 703 992 l 689 929 l 581 907 l 407 85 l 506 63 l 493 0 l 172 0 m 96 756 l 99 771 l 214 992 l 349 992 l 346 979 l 168 756 l 96 756 z "},"Ό":{"ha":849,"x_min":96,"x_max":828,"o":"m 425 -14 q 304 17 353 -14 q 232 114 256 49 q 208 278 208 179 q 219 435 208 353 q 253 599 231 518 q 309 754 275 681 q 388 884 343 828 q 490 973 433 940 q 614 1006 546 1006 q 775 936 722 1006 q 828 725 828 867 q 818 581 828 660 q 788 418 808 501 q 735 258 767 335 q 658 119 703 181 q 555 22 613 58 q 425 -14 497 -14 m 433 88 q 519 119 481 88 q 590 203 558 150 q 644 324 621 257 q 683 463 668 390 q 706 603 699 535 q 714 726 714 671 q 687 862 714 818 q 604 906 660 906 q 513 872 553 906 q 441 783 472 839 q 388 658 410 726 q 351 518 365 589 q 331 384 338 447 q 324 276 324 321 q 336 168 324 210 q 373 107 349 126 q 433 88 397 88 m 96 756 l 99 771 l 214 992 l 349 992 l 346 979 l 168 756 l 96 756 z "},"Ύ":{"ha":769,"x_min":96,"x_max":889,"o":"m 376 0 l 457 382 l 393 992 l 508 992 l 543 532 l 771 992 l 889 992 l 569 385 l 488 0 l 376 0 m 96 756 l 99 771 l 214 992 l 349 992 l 346 979 l 168 756 l 96 756 z "},"Ώ":{"ha":914,"x_min":96,"x_max":910,"o":"m 225 0 l 247 106 l 396 106 q 333 219 353 151 q 313 369 314 286 q 325 546 313 453 q 394 799 347 696 q 511 953 440 901 q 676 1006 582 1006 q 824 952 771 1006 q 894 796 878 899 q 889 547 910 693 q 847 367 876 451 q 775 217 818 283 q 675 106 732 150 l 824 106 l 801 0 l 551 0 l 572 93 q 665 210 625 147 q 732 354 704 274 q 774 538 760 435 q 783 733 789 650 q 747 860 778 815 q 658 906 717 906 q 559 863 601 906 q 488 737 517 819 q 442 536 458 654 q 425 355 428 436 q 438 210 422 274 q 496 93 454 146 l 475 0 l 225 0 m 96 756 l 99 771 l 214 992 l 349 992 l 346 979 l 168 756 l 96 756 z "},"ΐ":{"ha":350,"x_min":28,"x_max":544,"o":"m 146 -14 q 81 1 107 -12 q 41 44 54 15 q 28 115 28 72 q 31 157 28 135 q 39 206 33 179 l 154 744 l 267 744 l 151 204 q 145 170 147 186 q 143 142 143 154 q 153 101 143 114 q 186 88 164 88 q 210 90 197 88 q 238 99 224 93 l 217 -1 q 183 -10 201 -7 q 146 -14 165 -14 m 218 840 l 221 856 l 322 1076 l 457 1076 l 454 1064 l 290 840 l 218 840 m 125 854 q 87 872 100 854 q 81 926 74 890 q 109 979 88 963 q 156 996 131 996 q 193 978 181 996 q 199 926 206 961 q 171 872 192 890 q 125 854 150 854 m 463 854 q 424 872 436 854 q 418 926 411 890 q 447 979 425 963 q 493 996 468 996 q 531 978 518 996 q 538 926 544 961 q 509 872 531 890 q 463 854 488 854 z "},"Α":{"ha":561,"x_min":-90,"x_max":471,"o":"m -90 0 l 325 996 l 467 996 l 471 0 l 356 0 l 357 315 l 160 315 l 31 0 l -90 0 m 197 417 l 361 417 l 367 765 q 368 828 367 799 q 372 883 369 858 l 368 883 q 353 831 363 860 q 331 765 344 801 l 197 417 z "},"Β":{"ha":597,"x_min":0,"x_max":607,"o":"m 0 0 l 210 992 l 393 992 q 502 970 454 992 q 578 906 550 949 q 607 799 607 864 q 588 680 607 738 q 526 581 568 622 q 419 521 485 539 l 419 517 q 500 451 472 501 q 528 335 528 400 q 492 167 528 243 q 388 45 457 90 q 218 0 319 0 l 0 0 m 218 99 q 328 131 286 99 q 392 218 371 164 q 413 338 413 272 q 381 437 413 403 q 294 471 350 471 l 211 471 l 132 99 l 218 99 m 310 565 q 407 595 367 565 q 468 675 447 625 q 489 782 489 725 q 460 867 489 839 q 371 894 432 894 l 300 894 l 231 565 l 310 565 z "},"Γ":{"ha":460,"x_min":0,"x_max":550,"o":"m 0 0 l 210 992 l 550 992 l 529 890 l 299 890 l 111 0 l 0 0 z "},"Ε":{"ha":508,"x_min":0,"x_max":569,"o":"m 0 0 l 210 992 l 569 992 l 549 892 l 300 892 l 232 568 l 464 568 l 442 468 l 210 468 l 132 100 l 381 100 l 360 0 l 0 0 z "},"Ζ":{"ha":465,"x_min":-57,"x_max":551,"o":"m -57 0 l -39 86 l 406 892 l 139 892 l 160 992 l 551 992 l 533 904 l 86 100 l 371 100 l 350 0 l -57 0 z "},"Η":{"ha":671,"x_min":0,"x_max":701,"o":"m 0 0 l 210 992 l 321 992 l 232 569 l 500 569 l 590 992 l 701 992 l 490 0 l 379 0 l 478 468 l 210 468 l 111 0 l 0 0 z "},"Θ":{"ha":689,"x_min":49,"x_max":668,"o":"m 243 454 l 265 556 l 475 556 l 453 454 l 243 454 m 265 -14 q 144 17 193 -14 q 72 114 96 49 q 49 278 49 179 q 60 435 49 353 q 93 599 71 518 q 149 754 115 681 q 228 884 183 828 q 330 973 274 940 q 454 1006 386 1006 q 615 936 563 1006 q 668 725 668 867 q 658 581 668 660 q 628 418 649 501 q 575 258 607 335 q 498 119 543 181 q 395 22 453 58 q 265 -14 338 -14 m 274 88 q 360 119 321 88 q 430 203 399 150 q 485 324 461 257 q 524 463 508 390 q 547 603 539 535 q 554 726 554 671 q 527 862 554 818 q 444 906 500 906 q 353 872 393 906 q 281 783 313 839 q 228 658 250 726 q 192 518 206 589 q 171 384 178 447 q 164 276 164 321 q 176 168 164 210 q 213 107 189 126 q 274 88 238 88 z "},"Ι":{"ha":361,"x_min":-71,"x_max":460,"o":"m -71 0 l -57 63 l 53 85 l 226 907 l 126 929 l 139 992 l 460 992 l 446 929 l 338 907 l 164 85 l 263 63 l 250 0 l -71 0 z "},"Κ":{"ha":563,"x_min":0,"x_max":675,"o":"m 0 0 l 210 992 l 321 992 l 217 499 l 293 617 l 554 992 l 675 992 l 363 538 l 476 0 l 356 0 l 267 453 l 190 375 l 111 0 l 0 0 z "},"Λ":{"ha":560,"x_min":-90,"x_max":469,"o":"m -90 0 l 332 994 l 464 994 l 469 0 l 354 0 l 358 654 q 360 745 358 697 q 364 838 363 793 l 361 838 q 323 726 344 786 q 274 597 301 667 l 28 0 l -90 0 z "},"Μ":{"ha":899,"x_min":0,"x_max":929,"o":"m 0 0 l 210 992 l 365 992 l 394 181 l 397 181 l 763 992 l 929 992 l 718 0 l 608 0 l 751 672 q 762 714 757 693 q 772 756 767 735 q 782 800 776 778 l 779 800 l 415 0 l 304 0 l 274 799 l 271 799 q 261 745 265 771 q 253 695 257 719 q 243 647 249 671 l 106 0 l 0 0 z "},"Ν":{"ha":713,"x_min":0,"x_max":744,"o":"m 0 0 l 210 992 l 342 992 l 471 201 l 475 201 q 492 300 483 251 q 510 390 501 349 q 524 458 518 431 l 636 992 l 744 992 l 533 0 l 406 0 l 274 803 l 269 803 q 256 720 264 764 q 240 635 249 676 q 225 561 232 594 q 214 508 218 528 l 107 0 l 0 0 z "},"Ξ":{"ha":536,"x_min":-10,"x_max":586,"o":"m -10 0 l 11 100 l 408 100 l 388 0 l -10 0 m 128 469 l 149 569 l 471 569 l 449 469 l 128 469 m 192 892 l 213 992 l 586 992 l 565 892 l 192 892 z "},"Ο":{"ha":689,"x_min":49,"x_max":668,"o":"m 265 -14 q 144 17 193 -14 q 72 114 96 49 q 49 278 49 179 q 60 435 49 353 q 93 599 71 518 q 149 754 115 681 q 228 884 183 828 q 330 973 274 940 q 454 1006 386 1006 q 615 936 563 1006 q 668 725 668 867 q 658 581 668 660 q 628 418 649 501 q 575 258 607 335 q 498 119 543 181 q 395 22 453 58 q 265 -14 338 -14 m 274 88 q 360 119 321 88 q 430 203 399 150 q 485 324 461 257 q 524 463 508 390 q 547 603 539 535 q 554 726 554 671 q 527 862 554 818 q 444 906 500 906 q 353 872 393 906 q 281 783 313 839 q 228 658 250 726 q 192 518 206 589 q 171 384 178 447 q 164 276 164 321 q 176 168 164 210 q 213 107 189 126 q 274 88 238 88 z "},"Π":{"ha":665,"x_min":0,"x_max":694,"o":"m 0 0 l 210 992 l 694 992 l 485 0 l 374 0 l 563 890 l 299 890 l 111 0 l 0 0 z "},"Ρ":{"ha":561,"x_min":0,"x_max":586,"o":"m 0 0 l 210 992 l 360 992 q 485 965 435 992 q 560 890 535 939 q 586 775 586 842 q 564 622 586 692 q 499 499 542 551 q 396 417 457 446 q 256 388 335 388 l 193 388 l 111 0 l 0 0 m 254 488 q 374 522 325 488 q 447 619 422 557 q 471 761 471 681 q 438 859 471 826 q 342 892 406 892 l 300 892 l 214 488 l 254 488 z "},"Σ":{"ha":461,"x_min":-57,"x_max":547,"o":"m -57 0 l -37 92 l 215 510 l 151 901 l 169 992 l 547 992 l 526 892 l 364 892 q 326 892 343 892 q 296 894 310 893 q 268 896 282 894 l 326 513 l 321 488 l 76 94 q 128 99 104 97 q 175 100 153 100 l 367 100 l 346 0 l -57 0 z "},"Τ":{"ha":478,"x_min":92,"x_max":585,"o":"m 92 0 l 281 890 l 110 890 l 132 992 l 585 992 l 563 890 l 392 890 l 203 0 l 92 0 z "},"Υ":{"ha":494,"x_min":101,"x_max":614,"o":"m 101 0 l 182 382 l 118 992 l 233 992 l 268 532 l 496 992 l 614 992 l 294 385 l 213 0 l 101 0 z "},"Φ":{"ha":903,"x_min":51,"x_max":883,"o":"m 303 0 l 332 140 q 198 181 254 149 q 108 263 142 213 q 63 380 75 314 q 63 522 51 446 q 104 670 74 604 q 188 783 135 736 q 315 856 240 831 q 489 883 390 882 l 511 992 l 625 992 l 601 882 q 737 842 681 874 q 827 759 793 810 q 872 642 861 708 q 872 500 883 576 q 831 353 861 419 q 748 240 800 288 q 621 167 696 193 q 446 139 546 140 l 417 0 l 303 0 m 353 240 l 467 782 q 314 749 374 781 q 222 660 254 717 q 179 522 190 603 q 177 409 171 460 q 206 322 183 358 q 265 265 228 286 q 353 240 301 244 m 467 240 q 621 274 561 243 q 713 363 681 306 q 756 500 744 421 q 758 613 764 563 q 729 700 751 664 q 670 757 707 736 q 581 781 633 778 l 467 240 z "},"Χ":{"ha":515,"x_min":-82,"x_max":614,"o":"m -82 0 l 217 522 l 149 992 l 264 992 l 306 626 l 496 992 l 614 992 l 344 507 l 413 0 l 294 0 l 256 399 l 36 0 l -82 0 z "},"Ψ":{"ha":822,"x_min":99,"x_max":858,"o":"m 265 0 l 319 254 q 208 282 254 260 q 135 343 161 304 q 104 439 110 382 q 114 569 99 496 l 204 992 l 314 992 l 226 582 q 215 464 213 515 q 247 383 218 413 q 342 354 276 354 l 475 992 l 586 992 l 450 354 q 546 378 506 356 q 615 450 586 400 q 660 582 643 500 l 747 992 l 858 992 l 769 576 q 725 442 753 501 q 656 340 697 382 q 559 276 615 299 q 431 254 503 254 l 376 0 l 265 0 z "},"Ϊ":{"ha":361,"x_min":-71,"x_max":499,"o":"m -71 0 l -57 63 l 53 85 l 226 907 l 126 929 l 139 992 l 460 992 l 446 929 l 338 907 l 164 85 l 263 63 l 250 0 l -71 0 m 428 1135 q 392 1147 404 1135 q 379 1186 379 1160 q 399 1249 379 1222 q 453 1276 418 1276 q 487 1264 475 1276 q 499 1228 499 1251 q 478 1161 499 1188 q 428 1135 458 1135 m 219 1135 q 185 1147 197 1135 q 172 1186 172 1160 q 192 1249 172 1222 q 246 1276 211 1276 q 269 1271 260 1276 q 285 1255 279 1265 q 290 1228 290 1244 q 271 1161 290 1188 q 219 1135 251 1135 z "},"Ϋ":{"ha":494,"x_min":101,"x_max":614,"o":"m 101 0 l 182 382 l 118 992 l 233 992 l 268 532 l 496 992 l 614 992 l 294 385 l 213 0 l 101 0 m 475 1106 q 439 1118 451 1106 q 426 1157 426 1131 q 446 1220 426 1193 q 500 1247 465 1247 q 534 1235 522 1247 q 546 1199 546 1222 q 526 1132 546 1158 q 475 1106 506 1106 m 267 1106 q 232 1118 244 1106 q 219 1157 219 1131 q 239 1220 219 1193 q 293 1247 258 1247 q 317 1242 307 1247 q 332 1226 326 1236 q 338 1199 338 1215 q 318 1132 338 1158 q 267 1106 299 1106 z "},"ά":{"ha":604,"x_min":31,"x_max":581,"o":"m 174 -14 q 67 40 104 -14 q 31 192 31 93 q 43 338 31 260 q 81 490 56 415 q 142 625 106 564 q 224 722 178 686 q 328 758 271 758 q 389 747 364 758 q 431 711 414 735 q 457 650 449 688 l 461 650 l 489 744 l 581 744 l 465 199 q 458 160 461 178 q 456 128 456 143 q 464 94 456 106 q 492 82 472 82 q 511 84 500 82 q 535 89 522 86 l 515 -1 q 497 -8 508 -4 q 473 -12 485 -11 q 450 -14 461 -14 q 380 2 403 -14 q 351 44 357 18 q 344 99 344 71 l 340 99 q 287 35 313 60 q 234 -2 261 10 q 174 -14 207 -14 m 210 81 q 291 119 256 81 q 351 217 326 158 q 389 332 375 275 q 413 451 406 397 q 421 549 421 504 q 401 635 421 607 q 340 663 381 663 q 269 629 301 663 q 213 542 238 596 q 174 425 189 488 q 150 304 158 363 q 142 204 142 246 q 158 110 142 140 q 210 81 175 81 m 328 840 l 331 856 l 446 1076 l 581 1076 l 578 1064 l 400 840 l 328 840 z "},"έ":{"ha":411,"x_min":11,"x_max":540,"o":"m 197 -14 q 83 17 125 -14 q 26 101 40 49 q 21 219 11 154 q 72 347 33 301 q 165 403 111 392 l 167 408 q 103 473 119 433 q 94 578 86 513 q 131 674 101 633 q 204 738 160 715 q 301 760 249 760 q 382 748 347 760 q 449 711 417 736 l 404 618 q 358 649 382 639 q 307 660 333 660 q 251 649 274 660 q 215 618 228 639 q 196 564 201 597 q 208 480 188 510 q 279 450 228 450 l 338 450 l 318 358 l 265 358 q 200 344 228 358 q 155 301 172 331 q 131 228 138 272 q 142 119 119 157 q 224 81 165 81 q 274 88 247 81 q 335 119 300 96 l 335 25 q 272 -6 310 3 q 197 -14 233 -14 m 288 840 l 290 856 l 406 1076 l 540 1076 l 538 1064 l 360 840 l 288 840 z "},"ή":{"ha":571,"x_min":-1,"x_max":547,"o":"m 401 463 q 415 532 408 496 q 421 594 421 568 q 406 643 421 626 q 361 660 392 660 q 305 643 331 660 q 259 593 279 626 q 222 511 239 560 q 192 400 206 463 l 107 0 l -1 0 l 157 744 l 244 744 l 231 644 l 235 644 q 268 693 250 672 q 307 728 286 714 q 351 751 328 743 q 399 758 374 758 q 467 744 438 758 q 515 698 497 729 q 532 618 532 667 q 526 551 532 589 q 513 478 519 514 l 340 -333 l 233 -333 l 401 463 m 294 840 l 297 856 l 413 1076 l 547 1076 l 544 1064 l 367 840 l 294 840 z "},"ί":{"ha":292,"x_min":28,"x_max":450,"o":"m 146 -14 q 81 1 107 -12 q 41 44 54 15 q 28 115 28 72 q 31 157 28 135 q 39 206 33 179 l 154 744 l 267 744 l 151 204 q 145 170 147 186 q 143 142 143 154 q 153 101 143 114 q 186 88 164 88 q 210 90 197 88 q 238 99 224 93 l 217 -1 q 183 -10 201 -7 q 146 -14 165 -14 m 197 840 l 200 856 l 315 1076 l 450 1076 l 447 1064 l 269 840 l 197 840 z "},"ΰ":{"ha":554,"x_min":25,"x_max":651,"o":"m 193 -12 q 97 13 138 -11 q 40 87 56 36 q 42 218 25 138 l 154 744 l 261 744 l 146 210 q 146 123 135 158 q 204 88 157 88 q 318 153 274 88 q 389 344 363 219 q 405 442 399 389 q 415 551 411 496 q 420 656 419 606 q 419 744 421 706 l 524 744 q 528 625 529 693 q 520 482 528 557 q 497 333 513 407 q 432 149 475 226 q 329 29 389 71 q 193 -12 269 -12 m 325 840 l 328 856 l 429 1076 l 564 1076 l 561 1064 l 397 840 l 325 840 m 232 854 q 194 872 207 854 q 188 926 181 890 q 216 979 194 963 q 263 996 238 996 q 300 978 288 996 q 306 926 313 961 q 278 872 299 890 q 232 854 257 854 m 569 854 q 531 872 543 854 q 525 926 518 890 q 553 979 532 963 q 600 996 575 996 q 638 978 625 996 q 644 926 651 961 q 616 872 638 890 q 569 854 594 854 z "},"α":{"ha":604,"x_min":31,"x_max":581,"o":"m 174 -14 q 67 40 104 -14 q 31 192 31 93 q 43 338 31 260 q 81 490 56 415 q 142 625 106 564 q 224 722 178 686 q 328 758 271 758 q 389 747 364 758 q 431 711 414 735 q 457 650 449 688 l 461 650 l 489 744 l 581 744 l 465 199 q 458 160 461 178 q 456 128 456 143 q 464 94 456 106 q 492 82 472 82 q 511 84 500 82 q 535 89 522 86 l 515 -1 q 497 -8 508 -4 q 473 -12 485 -11 q 450 -14 461 -14 q 380 2 403 -14 q 351 44 357 18 q 344 99 344 71 l 340 99 q 287 35 313 60 q 234 -2 261 10 q 174 -14 207 -14 m 210 81 q 291 119 256 81 q 351 217 326 158 q 389 332 375 275 q 413 451 406 397 q 421 549 421 504 q 401 635 421 607 q 340 663 381 663 q 269 629 301 663 q 213 542 238 596 q 174 425 189 488 q 150 304 158 363 q 142 204 142 246 q 158 110 142 140 q 210 81 175 81 z "},"β":{"ha":601,"x_min":-68,"x_max":625,"o":"m -68 -324 l 169 799 q 219 942 188 883 q 301 1031 250 1000 q 429 1063 353 1063 q 534 1040 490 1063 q 601 974 578 1017 q 625 874 625 932 q 597 730 625 797 q 518 617 568 663 q 400 557 468 571 q 507 498 461 546 q 553 356 553 450 q 534 227 553 292 q 478 108 515 163 q 384 19 440 53 q 253 -14 328 -14 q 178 -1 221 -14 q 113 32 136 11 l 36 -324 l -68 -324 m 253 83 q 339 110 303 83 q 398 177 375 136 q 432 265 421 218 q 443 354 443 313 q 430 442 443 408 q 390 491 417 475 q 324 507 364 507 l 283 507 l 303 599 l 338 599 q 413 623 381 599 q 468 685 446 647 q 502 767 490 724 q 514 851 514 811 q 490 940 514 913 q 424 968 465 968 q 354 950 383 968 q 306 895 325 932 q 275 803 288 858 l 133 131 q 188 96 153 108 q 253 83 224 83 z "},"γ":{"ha":490,"x_min":24,"x_max":513,"o":"m 24 -292 l 93 36 l 82 744 l 189 744 l 185 288 q 184 223 185 253 q 183 168 183 193 q 179 122 182 143 l 185 122 q 291 307 246 210 q 365 513 336 404 q 404 744 393 622 l 513 744 q 457 474 496 600 q 353 233 418 347 q 192 6 288 118 l 129 -292 l 24 -292 z "},"δ":{"ha":568,"x_min":31,"x_max":633,"o":"m 231 -14 q 121 17 165 -14 q 53 102 76 49 q 31 224 31 156 q 62 406 31 319 q 153 556 93 492 q 299 649 213 619 q 244 744 263 701 q 226 843 226 786 q 255 956 226 908 q 335 1031 283 1004 q 453 1058 386 1058 q 562 1042 515 1058 q 633 1004 608 1025 l 579 917 q 519 952 550 940 q 449 964 488 964 q 365 933 396 964 q 335 850 335 901 q 346 785 335 817 q 376 722 357 753 q 418 658 396 692 q 472 566 450 613 q 505 468 493 519 q 517 354 517 417 q 499 219 517 285 q 447 100 482 153 q 358 17 413 47 q 231 -14 304 -14 m 240 79 q 318 108 286 79 q 369 179 350 136 q 398 268 389 222 q 407 349 407 314 q 399 442 407 399 q 375 522 390 485 q 339 589 360 560 q 232 508 276 567 q 164 376 188 450 q 140 228 140 301 q 151 155 140 189 q 185 100 163 121 q 240 79 208 79 z "},"ε":{"ha":411,"x_min":11,"x_max":449,"o":"m 197 -14 q 83 17 125 -14 q 26 101 40 49 q 21 219 11 154 q 72 347 33 301 q 165 403 111 392 l 167 408 q 103 473 119 433 q 94 578 86 513 q 131 674 101 633 q 204 738 160 715 q 301 760 249 760 q 382 748 347 760 q 449 711 417 736 l 404 618 q 358 649 382 639 q 307 660 333 660 q 251 649 274 660 q 215 618 228 639 q 196 564 201 597 q 208 480 188 510 q 279 450 228 450 l 338 450 l 318 358 l 265 358 q 200 344 228 358 q 155 301 172 331 q 131 228 138 272 q 142 119 119 157 q 224 81 165 81 q 274 88 247 81 q 335 119 300 96 l 335 25 q 272 -6 310 3 q 197 -14 233 -14 z "},"ζ":{"ha":419,"x_min":21,"x_max":538,"o":"m 181 -281 q 238 -186 224 -219 q 256 -125 251 -153 q 256 -78 260 -97 q 235 -44 251 -58 q 186 -18 219 -29 q 84 51 122 4 q 33 163 46 97 q 32 306 21 228 q 59 416 40 364 q 107 521 78 468 q 178 636 136 574 q 274 778 219 699 l 404 969 q 368 965 388 967 q 326 962 349 963 q 278 961 304 961 l 149 961 l 168 1056 l 538 1056 l 522 983 l 363 746 q 242 552 286 633 q 176 412 197 471 q 149 304 156 353 q 145 222 143 267 q 174 137 147 176 q 268 71 200 97 q 335 32 310 56 q 368 -26 360 8 q 369 -111 376 -60 q 355 -169 365 -140 q 328 -224 344 -197 q 292 -281 313 -251 l 181 -281 z "},"η":{"ha":571,"x_min":-1,"x_max":532,"o":"m 401 463 q 415 532 408 496 q 421 594 421 568 q 406 643 421 626 q 361 660 392 660 q 305 643 331 660 q 259 593 279 626 q 222 511 239 560 q 192 400 206 463 l 107 0 l -1 0 l 157 744 l 244 744 l 231 644 l 235 644 q 268 693 250 672 q 307 728 286 714 q 351 751 328 743 q 399 758 374 758 q 467 744 438 758 q 515 698 497 729 q 532 618 532 667 q 526 551 532 589 q 513 478 519 514 l 340 -333 l 233 -333 l 401 463 z "},"θ":{"ha":568,"x_min":38,"x_max":586,"o":"m 38 243 q 42 345 38 290 q 58 460 47 400 q 82 585 68 521 q 133 759 103 672 q 203 916 163 846 q 296 1028 243 986 q 415 1071 349 1071 q 508 1044 469 1071 q 566 963 546 1018 q 586 817 586 907 q 574 652 586 744 q 539 465 561 560 q 486 294 517 371 q 430 167 460 224 q 366 69 400 110 q 293 8 332 29 q 208 -14 254 -14 q 115 14 153 -14 q 57 99 76 42 q 38 243 38 157 m 140 232 q 160 115 140 151 q 215 78 179 78 q 282 109 251 78 q 340 197 313 140 q 390 328 367 253 q 435 494 414 404 l 174 494 q 149 343 157 410 q 140 232 140 276 m 193 585 l 453 585 q 472 722 465 660 q 479 829 479 783 q 462 943 479 907 q 406 979 444 979 q 342 951 372 979 q 286 870 313 922 q 237 746 260 818 q 193 585 214 674 z "},"ι":{"ha":292,"x_min":28,"x_max":267,"o":"m 146 -14 q 81 1 107 -12 q 41 44 54 15 q 28 115 28 72 q 31 157 28 135 q 39 206 33 179 l 154 744 l 267 744 l 151 204 q 145 170 147 186 q 143 142 143 154 q 153 101 143 114 q 186 88 164 88 q 210 90 197 88 q 238 99 224 93 l 217 -1 q 183 -10 201 -7 q 146 -14 165 -14 z "},"κ":{"ha":501,"x_min":0,"x_max":563,"o":"m 0 0 l 160 744 l 267 744 l 222 544 q 207 480 215 517 q 186 397 199 443 l 189 397 l 446 744 l 563 744 l 339 443 l 418 0 l 304 0 l 246 354 l 161 263 l 107 0 l 0 0 z "},"λ":{"ha":553,"x_min":-62,"x_max":485,"o":"m 403 -14 q 335 6 361 -14 q 297 65 308 25 q 285 165 285 104 l 288 404 q 288 440 288 422 q 288 477 288 458 q 288 514 288 496 q 290 549 289 532 l 285 549 q 269 507 279 528 q 251 465 260 486 l 53 0 l -62 0 l 276 733 l 274 865 q 249 944 272 926 q 199 961 225 961 q 168 958 185 961 q 140 951 151 954 l 163 1051 q 184 1057 172 1054 q 209 1061 196 1060 q 235 1063 222 1063 q 306 1046 274 1063 q 359 988 339 1029 q 379 872 379 946 l 388 186 q 394 129 389 151 q 413 97 400 107 q 443 88 425 88 q 465 90 454 88 q 485 94 476 92 l 464 -4 q 445 -10 456 -7 q 424 -13 435 -12 q 403 -14 414 -14 z "}}}
